<mxfile host="app.diagrams.net" modified="2023-12-29T07:07:20.837Z" agent="Mozilla/5.0 (Windows NT 10.0; Win64; x64) AppleWebKit/537.36 (KHTML, like Gecko) Chrome/115.0.0.0 Safari/537.36" etag="RHUDgf_9vhwlyxA4uw3g" version="22.1.15" type="github">
  <diagram name="Page-1" id="QtO7GHNI5BT6F8j2O0Rp">
    <mxGraphModel dx="773" dy="451" grid="0" gridSize="10" guides="1" tooltips="1" connect="1" arrows="1" fold="1" page="1" pageScale="1" pageWidth="827" pageHeight="1169" math="0" shadow="0">
      <root>
        <mxCell id="0" />
        <mxCell id="1" parent="0" />
        <mxCell id="3TXhHMI0m_8I4MH5fjPX-2" value="" style="shape=image;verticalLabelPosition=bottom;labelBackgroundColor=default;verticalAlign=top;aspect=fixed;imageAspect=0;image=https://cdn.cookielaw.org/logos/cb85e692-4053-4d0a-8dda-d24b5daa8b06/da03e0fe-832b-44c4-8eb4-08e1f224aa22/SNO-SnowflakeLogo_blue.png;" vertex="1" parent="1">
          <mxGeometry x="129" y="301" width="163.79" height="39" as="geometry" />
        </mxCell>
        <mxCell id="3TXhHMI0m_8I4MH5fjPX-6" value="" style="shadow=0;dashed=0;html=1;labelPosition=center;verticalLabelPosition=bottom;verticalAlign=top;align=center;outlineConnect=0;shape=mxgraph.veeam.3d.datastore;" vertex="1" parent="1">
          <mxGeometry x="167" y="340" width="44" height="60" as="geometry" />
        </mxCell>
        <mxCell id="3TXhHMI0m_8I4MH5fjPX-7" value="" style="shape=image;verticalLabelPosition=bottom;labelBackgroundColor=default;verticalAlign=top;aspect=fixed;imageAspect=0;image=https://upload.wikimedia.org/wikipedia/commons/7/7c/Kaggle_logo.png;" vertex="1" parent="1">
          <mxGeometry x="309" y="412" width="135" height="52.14" as="geometry" />
        </mxCell>
        <mxCell id="3TXhHMI0m_8I4MH5fjPX-8" value="" style="shape=image;verticalLabelPosition=bottom;labelBackgroundColor=default;verticalAlign=top;aspect=fixed;imageAspect=0;image=https://cdn.iconscout.com/icon/free/png-256/free-python-3629591-3032289.png;" vertex="1" parent="1">
          <mxGeometry x="474" y="487" width="83" height="83" as="geometry" />
        </mxCell>
        <mxCell id="3TXhHMI0m_8I4MH5fjPX-9" value="" style="shape=image;verticalLabelPosition=bottom;labelBackgroundColor=default;verticalAlign=top;aspect=fixed;imageAspect=0;image=data:image/png,iVBORw0KGgoAAAANSUhEUgAABLMAAAGXCAYAAABIhxLlAAAgAElEQVR4Aezdh1dc5/U9/PfP+SaOY8dpLokTlzj5OT2xJNR7ly1ZEiABaqj33nuvVu/F6r33LqYDUxgYYPqw33XOndEgBUkgDWXEZi2WBgx3hs997qzcnXPO8/+BHxSgAAUoQAEKUIACFKAABShAAQpQgAIUSBOB/y9NXidfJgUoQAEKUIACFKAABShAAQpQgAIUoAAFwDCLi4ACFKAABShAAQpQgAIUoAAFKEABClAgbQQYZqXNqeILpQAFKEABClCAAhSgAAUoQAEKUIACFGCYxTVAAQpQgAIUoAAFKEABClCAAhSgAAUokDYCDLPS5lTxhVKAAhSgAAUoQAEKUIACFKAABShAAQowzOIaoAAFKEABClCAAhSgAAUoQAEKUIACFEgbAYZZaXOq+EIpQAEKUIACFKAABShAAQpQgAIUoAAFGGZxDVCAAhSgAAUoQAEKUIACFKAABShAAQqkjQDDrLQ5VXyhFKAABShAAQpQgAIUoAAFKEABClCAAgyzuAYoQAEKUIACFKAABShAAQpQgAIUoAAF0kaAYVbanCq+UApQgAIUoAAFKEABClCAAhSgAAUoQAGGWVwDFKAABShAAQpQgAIUoAAFKEABClCAAmkjwDArbU4VXygFKEABClCAAhSgAAUoQAEKUIACFKAAwyyuAQpQgAIUoAAFKEABClCAAhSgAAUoQIG0EWCYlTanii+UAhSgAAUoQAEKUIACFKAABShAAQpQgGEW1wAFKEABClCAAhSgAAUoQAEKUIACFKBA2ggwzEqbU8UXSgEKUIACFKAABShAAQpQgAIUoAAFKMAwi2uAAhSgAAUoQAEKUIACFKAABShAAQpQIG0EGGalzaniC6UABShAAQpQgAIUoAAFKEABClCAAhRgmMU1QAEKUIACFKAABShAAQpQgAIUoAAFKJA2Agyz0uZU8YVSgAIUoAAFKEABClCAAhSgAAUoQAEKMMziGqAABShAAQpQgAIUoAAFKEABClCAAhRIGwGGWWlzqvhCKUABClCAAhSgAAUoQAEKUIACFKAABRhmcQ1QgAIUoAAFKEABClCAAhSgAAUoQAEKpI0Aw6y0OVV8oRSgAAUoQAEKUIACFKAABShAAQpQgAIMs7gGKEABClCAAhSgAAUoQAEKUIACFKAABdJGgGFW2pwqvlAKUIACFKAABShAAQpQgAIUoAAFKEABhllcAxSgAAUoQAEKUIACFKAABShAAQpQgAJpI8AwK21OFV8oBShAAQpQgAIUoAAFKEABClCAAhSgAMMsrgEKUIACFKAABShAAQpQgAIUoAAFKECBtBFgmJU2p4ovlAIUoAAFKEABClCAAhSgAAUoQAEKUIBhFtcABShAAQpQgAIUoAAFKEABClCAAhSgQNoIMMxKm1PFF0oBClCAAhSgAAUoQAEKUIACFKAABSjAMItrgAIUoAAFKEABClCAAhSgAAUoQAEKUCBtBBhmpc2p4gulAAUoQAEKUIACFKAABShAAQpQgAIUYJjFNUABClCAAhSgAAUoQAEKUIACFKAABSiQNgIMs9LmVPGFUoACFKAABShAAQpQgAIUoAAFKEABCjDM4hqgAAUoQAEKUIACFKAABShAAQpQgAIUSBsBhllpc6r4QilAAQpQgAIUoAAFKEABClCAAhSgAAUYZnENUIACFKAABShAAQpQgAIUoAAFKEABCqSNAMOstDlVfKEUoAAFKEABClCAAhSgAAUoQAEKUIACDLO4BihAAQpQgAIUoAAFKEABClCAAhSgAAXSRoBhVtqcKr5QClCAAhSgAAUoQAEKUIACFKAABShAAYZZXAMUoAAFKEABClCAAhSgAAUoQAEKUIACaSPAMCttThVfKAUoQAEKUIACFKAABShAAQpQgAIUoADDLK4BClCAAhSgAAUoQAEKUIACFKAABShAgbQRYJiVNqeKL5QCFKAABShAAQpQgAIUoAAFKEABClCAYRbXAAUoQAEKUIACFKAABShAAQpQgAIUoEDaCDDMSptTxRdKAQpQgAIUoAAFKEABClCAAhSgAAUowDCLa4ACFKAABShAAQpQgAIUoAAFKEABClAgbQQYZqXNqeILpQAFKEABClCAAhSgAAUoQAEKUIACFGCYxTVAAQpQgAIUoAAFKEABClCAAhSgAAUokDYCDLPS5lTxhVKAAhSgAAUoQAEKUIACFKAABShAAQowzOIaoAAFKEABClCAAhSgAAUoQAEKUIACFEgbAYZZaXOq+EIpQAEKUIACFKAABShAAQpQgAIUoAAFGGZxDVCAAhSgAAUoQAEKUIACFKAABShAAQqkjQDDrLQ5VXyhFKAABShAAQpQgAIUoAAFKEABClCAAgyzuAYoQAEKUIACFKAABShAAQpQgAIUoAAF0kaAYVbanCq+UApQgAIUoAAFKEABClCAAhSgAAUoQAGGWVwDFKAABShAAQpQgAIUoAAFKEABClCAAmkjwDArbU4VXygFKEABClCAAhSgAAUoQAEKUIACFKAAwyyuAQpQgAIUoAAFKEABClCAAhSgAAUoQIG0EWCY1dRPVVUVUFWFqlgUUX8FIqUeBAotqHxyF+V3rqDsykmUnD2IkmO74Dq4Ga596+HavwHuQ1vgOboD3jMH9WfkZ/3mBwg57Yj4ShEL+lEVjeixmzoBXx8FXkdArpmqcAiR8jKE3MWoND9Exb1rKLt2Bt5zh1FybDdch7boNePcux6ufRvgObId3lP7UXb5BMpvXULl49sIOEwIe5yIVviMa+Z1Xgx/hwIUoAAFKEABClCAAhSgAAVSJsAwK2WUKTyQhlcxvXGuCocRCwYQrfQh5CrUEKv0yil4ju5E8Y4VcKyaBtu8EbBM+h6mEd1gyukAU25HmEZ2g2Vif9jmDEPhqmlw7lyFkpN7UX7rIgK2JwjJzbm/Qm/25aZfAjP9TOGfwUNRoEEFdA3HUBWTa6da+GsrQPnda/CePgDnrlUoXDsT9vmjjGtmVA+YcjqiYGh7/dc8pi+sM4bCsWwynFuXwnNkG0ovHkPF/RsIFloRKS81rploRANmeS5eNw16lvlkFKAABShAAQpQgAIUoAAFwDCrKS2CeAWWhFeRMq9WUfkL7sF36xK8F4/Cc3y3Vl3JTXbhmhmwLxoD26yhsEwaAPOonkaQld0GpqFtYc7tCPOoHrBM+A62mUPhWDIORetnw7ljBTyHt2plilSe+E0PNCST6pWqSFiDAN6cN6VFwdfySoFEiBUJa0AbLnFpYCtVWKWXjsPz4w64dq1C0YY5sC8dB9ucPFgnf29cM7mdYBrSFqbsNigY0g6mYV1gHtsPtunZsC/M1yC4ePNCuPas0QC59MJRlN++DLkug8U2vU6lyhFVsVe+TP4ABShAAQpQgAIUoAAFKEABCqRGgGFWahzf7CiJSqxw6OnNuN/ySNucSk7ug3PPGhSunwX7sgmwzR8J26wcWKcOhmXCt7CM7gXziC4aXpmyWsM0OAOmzAy9OZcqLfPwLvoz8rPWaZl6I29fNBqFEmztWavVKtKCGHCYESkrQSxQCakGY7XWm51S/nY9CyQCrGhUQ1gJlCI+IwCueHgTpRePwn1oM4o3LYBj2UTYZufCOi0L1sn9YRnTG+aRXY1rRsLfTOO6KZBrZ2g7mId1hiW/Jyzj+8E6ZSCs07NgnzcC9sXjULhulgZjUuXou3Eecp1KlWMs4K8WBjPYquezz8NTgAIUoAAFKEABClCAAs1cgGFWYy+AKqOdMFpZrnN9/JaH8N2+BO/ZQ3Af2IiiDXMh4ZNlymCYx/eDJb8XzKO6a0hlzusIU047rcQygqxWKBjYAgWDWsI0uBX0e0Pa6M+Yh3UyQq/87rCM6WNUniwag+JN8+E6uAml549oK5bf8lhfh7Q1xkJBVmo19vrg8/+vgIS/0aiuT71uPE747QUov39dZ125j2zTFsHCFZNhnZWj1Ynmkd2M9T+sE0y57Z+9Zga1QoF+tjSCYL1m2kOuL/Pwzhp8SbhlHtcXlqmZsEnFloTBe9fpTDqpnDRCrWLI65E5XWzb/d/Txu9QgAIUoAAFKEABClCAAhRIlQDDrFRJ1vk4MtQ9hqpISG+AQ04bpKLEe+FHo6Jk80I4lk2AdeZQvYk253XSqhFph9LKq8ESWMmnhFctjBBr4DcoeObT+G/6c5lyoy6frbRqS6q5pFrLNjsHjuUTUbxlkQ6Nl/lAEgoECy06bF5aHpPth6w4qfNp5i+kTiBRwRiNaCWUVBIGi6yofHQbpZdPwn1kO4p/WALHiimwzR2u7bemUd1QMLSdca3I2pdrYHBL45p5et0krp/4vxoGJ66v+L9ZUrXVVqu2zGN6wzY9y2jd3WiEwd7zR1Dx4AZCTodWiMVCofiweM6iS90C4JEoQAEKUIACFKAABShAAQoYAgyzGmklSBtfLBzUG1+ZvVN++xJKju9G0ZZFcCweqzfLlnH9IBUlptwORttgZoZWXUnllVZgSRXWM+HV82FW9a+r36i3gmlIG5jzOsA0qqvRTjV1MByLx6D4h8U6G8h34xz8pvsIeYrjux9KqMXdDxtpuTTvp02EWLGYboZg7E5YBK1ivHlBNzZwbl8O+9KJsE7NhGVsX90AwZTXCQVD22qFYvJ6SQRX1a+Nmh4nfi553RQMboUCCZNz2hvtu2P76PPJ7LqiTfP1upHrWDZYkKAt6q/kjqHNe+Xyr6cABShAAQpQgAIUoAAF6kmAYVY9wb70sFVV0Bk/pR74zQ9Qdu0U3Ac3oWjtTJ1pZZab8WGd461QMgNL2qDi1SR1CrBqukn/RqtSnlZrJSpO8joa7YdzclG4ZroOvC45tU93P5TXKKGW3JyzfeqlZ5b/MdUCT4MsI/zV4e5WmSd3Uee9ufauRdG6WcaOnhO+1eC3IKs1CuSaiVcvvrhy8QXXxwsD4kQLb7zCUdoRpX13bF9jk4VV0yGvR6ob/QX3EXIXJQOtVLvweBSgAAUoQAEKUIACFKAABZqxAMOshj75Ori6SiuypILDe/YgijfPh33BSG37M43oopUfz8zASkWAVeMNeuLmPD5fK6ctTCM6wzKurzH0etlESMWL98xBVDy8BQkSGGY19IJp5s+XCLNkc4RKHyqf3IX33BE4d66CY/lk2GZk63qVCkOdhZWdgYJnWm+lsqquodWrfj5ZraVtvzntjBl2Y4xKraKN8zRoq3x0C2GvR2d7NfOzyD+fAhSgAAUoQAEKUIACFKBASgUYZqWU8yUHi4dYUpEV9rpR+fi2Dl0v/mERbHNyjRvynPZGO6G0Mz1tJXzVjXUq/nu12VpZrYyh8rIL4sT+GrLJkHjPj9shrYcB62OEXIXGXCDdwY2thy856/xPrymgbbghow1XKpykOlBbcY/t0vlusimCddIAHc5ukhB2SGuYZO1qkJWKa6I2x0iEwfFKLZmpldcJtlm5urGC99Q+SKAVcjmMXUKjkdfU4K9RgAIUoAAFKEABClCAAhSgQHUBhlnVNerzsVSYRKO6U2DFvWs6X0d2RLPNzYNlTC+9CX62Gqs2N9Op/Bkj0JKWLFNWBgpkppYEWmN6wzotS3dUlIoT14GNKLt80mij0tbDivig6/rE47Gbm0AsFNANCCpN91F27Qxch7agcP0c2HWenFRj9dP1qbt5SqtsZqINN5XXRG2OVe26ycwwZtHl99BrpmjDbJQc24nyO1c0AI4F/M3tNPLvpQAFKEABClCAAhSgAAUoUC8CDLPqhfW5g8qMrIAfQXcRfHeuapBVtGEubLNzdfh6YsC7MRdLhrvX5ia6Pn6mWvtU/MZcXpt5VDcND2yzcmDX1sMVKDm+B77rZ+EvuGdUapWXajtVlVSfSBUaPyhQawHZ2TOq6ydaUYaQxwm/5RF8dy6j5PQBOHetgmPlFFinZ8My4TuYR/Uwwl+ZWSXzsRq0irGm6+6560YGxI/qpvPvijbMMQKt25cRLLYbM7Ri0VrL8AcpQAEKUIACFKAABShAAQpQ4H8FGGb9r0lqvxNvLwyVuFF+7xrcP+5A4bpZsEqQNbonzHkdjUqoRr8hf/4mvQWMIfHxeVrSQjWqG6wTv4N93nAUrp4O165VupOcDOOW9sNIaYnuNoeqWGoNebS3VyA+EysmLYVlJQg4TBr4lpw9BNf+9ZDqRfuCUbBMHgBjnlwHyIB3k4St0o6r8+TqYy7W89dDLb+WysZMY7dQy+hesM0aCgm0PD/uQPmdqwi5ijhD6+1dzfzLKEABClCAAhSgAAUoQIEGEmCYVV/Q8bbCWDCASHkpKp/cgefYLhRtmGcEWeP76c5rMkA6dbut1fKGu9aVXzVUnEjr4ejesE4ZpCGDtFK5929A6YUfUfHgBgIOs84Ei1aWoyoc0oobVmrV1yJL0+Mmro2QDHUv13bCYKEFFQ9vovTSMbgPb0HRpgVwLBkH28whsIztC7NsjDC0rQZZyQrG+Pqs9XpO9fXxguNJoDW4lV7f0qZrnzsMUonpOSoth1d1IwUJ76QajddGmq5hvmwKUIACFKAABShAAQpQoFEFGGbVF7+0FlarNvFeOIrCDXNhnZ0Hc35PmHI6aAWHEWS94Ka4Sd2kxyu1ZMh2ZkuYslvDPLIbrFMHw7F0ApzblhmthzfOw2+6r62HElSIgXHDztbD+lpq6XZcmR0XkyBLWgp1uPtD+G5e1Co/544VcCybaOxSOFpmyXU0Kp0kHGrwjRHe5LqMXy9D28KS31NbiiXQKjmxFwHrI2MDhUSglW4nkK+XAhSgAAUoQAEKUIACFKBAIwswzKqPEyCVJ5EwIr5S+C2P4T3/I5zbl8M+bwQs47+FObej7lrYdCuyXnQTX23YtYQL8dlA0npom52joVbxD0tQcmwXfDfOI2AvQLjEra2HT6u0wFCrPpZc0z+mzMWK6WYBUX8lwl4PArYnKL91CZ4Te/T6kFDUNnOoMRcrv4cR+CYqFwclqrCaUEvhq8Jm3UwhWaFlm5OH4s0LUXb5OPyWh9pWaYS9bMtt+uuXr5ACFKAABShAAQpQgAIUaEoCDLNSfTbiLVRRf4VWJ0mo49y2HLb5I412qbxOOu8nfSqyagq2jGBBZ2plZ8A0tA3MeR20Fcw6NROFq6bBfXATyq6f0SqtsMepVTjScqmtVak25/GauEAVZI6aBJrRCp9RjWV6oLsUeg5vRdHambDOGGLsTpgtQ91ld0KpxJLNENIovPqfcMsIf/U6kZlz+d1hnzcMrj1r9G8PFlkRrfTFrwmGvE18EfPlUYACFKAABShAAQpQgAJNSIBhVopPhlSfSOVJyF2sM6Q8P26HY9FomMf1hUmCLNmB7eng6pqCojT6ns4GamkM45YQIn7Dbp06CPZFo3VOkOvgRpRe/BHlD24g5HJAQj5+NC8BCTBll8uQpwiVj2+j9OJRDTuLNs6DY/EYWKdl6Rw2qfTTWVNp1U74qus1HmhlZWjLpGV8P50159y9GhX3riHkLkQsxJC3eV0R/GspQAEKUIACFKAABShAgTcVYJj1poLP/X5VJKItVDI3ynvuMIo3LYBl4rcw5bTTOVPpX21Sw8277MQ4SEKtVkagNawjzKN7wDp5gBFqbVqgrYflty8jUGjR6hyt0oqE40Ow2Wb13DJK8y/jLYWRMGIBv26AINV5Ffev61wsaUWVsNM6ZSDM+T1gHtbZuD7eqhCr+nUSn5+V3VqHwptH9YR9yXh4zx6C33RPfbTdMM3POl8+BShAAQpQgAIUoAAFKECBhhJgmJVK6aqYVlnIjn5lV0+jeMdKbS8053eDaUhro21Kgp//aUeqfuObxo8TgZZUn0mVzYiusEzqD5kVVLh6Opw7V6Hk5D4d9l1pfoCQp1h3s5P2M2lD48fbISBVWLFAJSTAClgfo/z2JZScOQDX3rUoWjcL9vkjYZ3YH+ZR3Y11IuslM0MD0bf32mhhbPggf2teR1hnDoFzx0qUXjqOgK1AB8K/HWeffwUFKEABClCAAhSgAAUoQIH6F2CYlSpjnZUV0ZvSigc34P5xBxzLJ8EyQaqy2hs3sjrEOo3DqleGcPEh3Tr4WmZptdWqG9nNTVoPbfNGonDtTDj3rtWqtYp71xGwm7SSTcIPGZovbZrG7oepOjE8Tr0LyNqX4e5SiRUK6DUQLLah4uFNo6XwwAYNsWwL8yEz1Sxj+xjVWEPaVgux0nk2Vi2vaQ1749eFtBsunQDXgU0ov3NF5+vp2ucGCfW+XPkEFKAABShAAQpQgAIUoED6CzDMStU5rKrSeVDBIhvKrpyEc/sK3ZnNNKJLfE6WtOLV8qb3laFRGhxHbtxlx0NprZJQa3gXWEb30vlI9kVjULR5IdyHt2plioR/wUKrsbtbOMiB2Klakw1xHA2yorpjpezeGXLadS6WVCZ6ju6Ec+tSbamzTBlkhFhyPeR00N08k9VYzSDI0mta2g3lmsiAeWRXWKYMRuH6OUa7ofmBMTsrGmmIs8bnoAAFKEABClCAAhSgAAUokNYCDLNSdPqkqiJc4kblo9t6Ey9tdVadlSXVJ62Q3rsXvm54Zgy/lr9dd6jLaWvcxE/4FtZZOXCsmIzibcvhObYLvuvn4Dc/QNjr1tbDmIRa0bBRpVXFnd5StExTc5hEJZa0E4aCOgPNaCl8BN/NCzoXy7VrFRyrp8M+d7jRUjhcQqz2MGVJu23ieohX8r0N4W1t/wa5FmS2nMzQG9kdUq3mOrARMk8uUlaigVZqThKPQgEKUIACFKAABShAAQpQ4O0VYJiVonMrc4ICDhPKLp+Ec8cKnQtkye+hVRgFA5tL5clLQq/q87Ry22ubmXl0b9gk1Fo1Dc6961B64SgqH9+BVLfJjb3sfCgD9Y32qxSdKB7mzQQSQVY4pHOx5DxJS2Hlo1sou3wcrn3rtZVU5qRJi61U5BUMbR+vxJIQS2bGNfPrQdqNJeDObgPL1MEo2rQA3vOHEdTNEcre7PzwtylAAQpQgAIUoAAFKEABCjQDAYZZKTrJMi9IbujdR7brsHOZEWUe3gmmrFa8eX9atRLf1W1wSxQMbqnth6ZR3SEtaNJ6KDs/ug9tQenFYzpvSUKSSHkZdEB8is4TD/NmAonZWJHyUgSdDj1PZZdPwH1oM4o3zodj8RhYpmbCnN9Td+7Tijw513LOdWZcMw+yEtdCvFrRPL4fHMsmql/FvWu6KcKbnSH+NgUoQAEKUIACFKAABShAgbdfgGFWis6xBC5l18+h+IclunufhDSmHGkxZCVKzTvUGfODCmSmVm4HyI6PcmNvnZaForUz4flxJ8pvX0HIXaRthxwKn6KF+oaH0Z0Kg34Ei+0ov3ddW0QLN8yFdcZQWPJ7wSwzsXLbG0GlBLlv/aYHL6lGTARXNf0rlYrZGbCM7qkttzJDznv2EAL2gjc8Q/x1ClCAAhSgAAUoQAEKUIACb78Aw6wUnGO5wZdKFe+5wyhcMwOWyQNhzu0IDWqkIqWmm1l+TyvWpGLn6TytYZ1gHtVdB+fLzDHX3nXwnj+C8rtXtYUzXOJ62nrIcCsFC7e2h6iqMga8l3o0bCm/fx2lF47orKfCdbNgm50Hc34vFAxtawz8z2pVrRLrNcOet/360MqsVjAP7wzrxO/gWD4Z7gObdHh+VSzKHT1ruzb5cxSgAAUoQAEKUIACFKBAsxRgmJWC0x4LVGrLlezeZl80FpYxfZ4bdM0b+hcHejIkvqUxFDu7jQ7GNo/qpsPzbXOHwbFqKpy7V6PkzEGUP7ipbVixgD8FZ42HqJWADN+vqkLY60Hlk7s628m5Zw0K10yHbW4erFO+hzm/BwqGtjPO4TPthGwpfNm61yBXdvoc0RW22cNQvGkRym9d0rZaDbTAjQ9qtUb5QxSgAAUoQAEKUIACFKBAsxNgmJWCUx4pNW703fs3wDZ3hDEvSHdsY1XWi2/mnwv4pFLlaZVWO2NA/Ng+2nZoXzIOxZsXwnN4K8qunNTqFZ2nJbu/Bfw6JJ6VWilYyHKIqhhk/pu4RnylCLkK4bc81BbakmO74Ny6BI6l42CdkQ3LuD66O6W2FWa3ZkthXavJpAVTdnfM6QDr1EwUrp6B0kvHESnzIhb0gxVaKVrTPAwFKEABClCAAhSgAAUo8NYJMMxKwSkNOe3w3TgH57Zl2iInlRbcte25sKq2N/pyg58ItqRtbXgXWMb3g23GEB2ULWGKhCriHbA+grQeSmWcBDASxDDUeoMFLTsVRiOI+ivVNWB7At+tSyg5tQ/OXatQuHoa7HOH6fkwj+wan4uVUa2lkJVYtQ5v9XqIz43LzIBl/LdwLB4L76l9kPeTaEVZPMyKvcEJ5a9SgAIUoAAFKEABClCAAhR4OwUYZqXgvPotj+A9tR9FG+ZohYUOwdZZWby5r9vNfSIAE7cWKMjMQMGQNkaVVn4PWCf21+H6MpfMtXetDswuv3MVErqEPMWIVvoQCwWNQEva4/hRCwFpIzSqsaL+CoS9bgTsJsjOeqXnj8C1fwMK186EbcEoWKYMhGVMbz0fJgkaszKqhbZc66+11rXFNkNbk+3zRuhuntLOKSGtBLSyeyQ/KEABClCAAhSgAAUoQAEKUOBZAYZZz3q81lcVD25AWgwdyyfBOnmAcbPPMCsFg+/jrYfSfpjZCqYhbWEe3gXWKQPhWDQaxVsWwXNku7YeVjy8BW099Hm17dAIAYx5T691UpvDL2klmwRZIUT95Qi6HPAX3EPZtTOQ+W9FWxZDWjwtk2UuluzO2Q6mIW2em42VCCD572uFWQON6ixzfk/YZuXAtWuVzs2S6izZIZVhVnO4EPk3UoACFKAABShAAQpQgAJ1FWCYVVexGn7ed/Miijcvhn1hvtGCldfJaL2S6qLattfx515gFa/Skpv+zAxtbZPKN8vYvjpPS1qzijctgOfINvhunEXA+hjRCqnQCsQrW+I7w7FSq9rKrUYfGm8AACAASURBVNKQRGdjhQKIlJUgWGxF+e1LKDm+B8U/LIVjyXj1NctmBsO7wJTTXv2T7bNc26m5tuNhluziOT1LA9rSC0cRsBUYa1h2NuQHBShAAQpQgAIUoAAFKEABCjwjwDDrGY7X+6L08kk4Vk6DdWYOLKN7GTf+rMx6QTj1JhU88Z0PszJgym5tBFvSfjgtC4WrpsK9f70O0PabH+jcoYjPG5+nFeEsrWpLW+ZiSTumDnh3F8FvuqdBoPvwFhSumwXbrFxYRvdOVmFltWI4W19hs8yHy2ylg/StUweiaP1slJzYA7/pvrG5QTRS7czxIQUoQAEKUIACFKAABShAAQqIAMOsFKwD77kjsC0cA8uUwTCPirdjMcyqhzBLgrB4oDW4FUyyE1xuB1gk0JoyEPYFo1C0fhZce9bAe+4wKh8ZrYfRynJjQHwKzvXbcAjZKS/s9RgthZdPwH1go4YoWlk4dbAxFyuvY7ISa1BL7lRY32HWiC6wTuqPwlXTdNfOike3ITPMqiIMs96Ga45/AwUoQAEKUIACFKAABSiQWgGGWSnwLDl7CLZ5I2GV2UIjjF3ejHasN6lC4u++uI3LaD00ySwtqdLKaQvzsE6wjO4Jy5TvYZs7DMWbF6DkuOx6eB4yoD/kLkZEQi2dQyStW81nQLzMXdKWwkAlwj4vgoUWyJw375mDcO5YAcficbBMGgDz6F46k0xnY2W35nD3+gqwqh83UZkls+Amfqdz91wHNqH8wQ0YISzDrBS8RfMQFKAABShAAQpQgAIUoMBbJsAwKwUntPT8j7AvHAPr1GRlFsOsBgrj4mFAgbQdylynkV1hlnlas3JQuGKyhjUlx3fDd+McKk33dZc4qUyq0llEzSHQqoq3FHoRcJhRfvea7gIpLZlFG2ZrNZtlUn9jLlZuB6O18OkuhQ10DquHO83t8XNhlqxZ14GNDLNS8L7MQ1CAAhSgAAUoQAEKUIACb68Aw6wUnNuyyyfgWD4ZtplDtDpIQxW2GdZTm2FNAUtyllaB7LaX2wFmaT2cPAC2+SNRtG4WnHvXwXvuECruX0ew0IxIqSfexhVGVTQ+JD4Fa6HRD1GVGO4egYR2kfJShJwOVD65g1JpKTz0A4o3L9RqLNuMbFjG9jGqsYa0QUFmKxRw3Tbguv1G2zd1ZlaizXD1dLgPb0XlY7YZNvq1xBdAAQpQgAIUoAAFKEABCjRZAYZZKTg1UvVTtHEe7POGwzKur4Yp0gKn852aW6VJY/69g1rqMG1tPZRQK6c9zPk9YZk6GI4l41C0eZHueijhY+Wj2wgW2xApL9PKJWnFQ7rveJgIssIhbVELe5zaYum7cUGHihdvX6HVajrgfVw/oyVWnLLiLYUyG6sxz19zfO5EZdbIrkgOgN8Lv+kBB8Cn4L2Zh6AABShAAQpQgAIUoAAF3k4BhlkpOK8V967DtXsNHEvHwzrpO53fxDCrpgqq+v6eMUurYFC8UksqjYa209ZDy8T+sM7O0wo659ZlMFoPLyBgfYyQx6lVWrLDX9pVaUkAVxXTtkmZByZDw6XqTKrPZC5W6fkjcO1bj8I1M2GXuW6TvoclvyfMuR1hym5jzMUSLxms3xzDpEb/m+O7GeZ3h1TKObcugYStAYcJsVAg3g6bgjcpHoICaSRQVVWFWCymn/JYPpvjR3UH8WjOFs3x/PNvpgAFKEABClDg5QIMs17uU6v/6jfd13CkaN1MWKcOgnlEF5gyWZnVuOFIYkh8K5h0nlZ8SHx+T9imZ6Fw9Qy4D2xC2dXTqHxyFyFXISK+UqNKS9oO0+GjWpAVCwefVmMFbE9QfvuSUY21eaExF2tsX5iHdYZpaFvDIzMjPuC9vgNGHv+l14FUE2ZlwDKmF+xz8+Datw4V964h5C7Uof1aMZgOa5GvkQIpEkgEONFoFJFIBNGohFpGoNWcQi35WxMGhkNUv2aglaKFxsNQgAIUoAAFKJD2AgyzUnAKg0U2+K6f1aoKmZtlHtkVrMxqCiGGVGjFq7QGJ0ItaT3sEW89HIviTQt1jpRUw1Q8uo2QpxhRf2UKVkU9H+JpS2EYMdmlsMSlLYVlN86j5OReFO9YicJVU2GbnWO0vuZ00HZCXZdqwkqsl4ZMDVSxJedDwizzuL6wLcyH59guBOwmRMq86VclWM9LnodvHgJSgSThTUVFJcrLK+D3BxAOG6FWcwmzDIMogsGQOoiFfMrXkUi02VaqNY8rgH8lBShAAQpQgAK1FWCYVVupl/xcpKxEZ9y492+Afe5wmEd1qxZmMTRoCqGB0UaXHBRvymkL0/BOMI/uDdvcESjatBDeU/vhL7iLsNfzkrPdRP5TPMyKBQMafPjND1B2+SSce9bCsWwSLFMGGjs7DusA09A2OkuMrYRNIWCt9hpkXpaErFmtYZnQH/alk+C9eOztmuPWRC4Xvoz0EJCwSoKcYDAIt7sETqcbpaU+DbQk4GouYZZUo4VCYZRXVMDtKYHb7YHHU6LhnnxfKtX4QQEKUIACFKAABZq7AMOsFKwAqYwJuYu0IkZ2NbRO7K/Dx03aysUwq2mEWRIiJKq0jGoYDbSGdYZlwrewzR2OovWz4T64EaUXj6Li4U0Ei6yI+LzxQdxNa8fDqlgUMiNL1l3l4zvwnjsM165VKFwxSdsopfpMd9WUICurlVGhxrlYTWgumARZLeObFPSAbd5IFP+wFL7bl41ZWXLj/jZsSpCC91ce4u0UCIfDGlJ5Sryw2Rx48OARrly9gZOnzmLf/iPYsHErdu3ejytXb8JqdWhlkgRab8uHBHMSWomDVF25XG6YzFbcuXsfFy5exZEfT+jfv3nLdhw6fAyXLl/T/15W5tPfeVsc+HdQgAIUoAAFKECB1xVgmPW6ctV+T4aGRyt8KLtySit8rDNzjOosmU/EXQ2bUIAQD7Q01DIGb5uGtIE5r5O2Hlonf6+VdRpqHdiIsmundUC8tPDJYPWqaMTY8bAJDCOW1yIhqt/yCKUXj8G1exUcS8fqjnjm/G4w5bbX9rWnbYUN1DbXdILLahVQTfFvl6qsrFbG5gRTBqFwzQy4f9wBmb8nQaUM9U/73TWrvUfyYfMUkMAmUW0lwU1iBpQEOKVlPhQWOXH33gOcOXsBO3fuw/LlazFp8iwMzclHz94DMWz4OGzdtgvXrt9CSYlX2+zSUbImB6mwqqwMwFtapmHejZu3cez4KfywdScWLFyOMWOnIjN7JPp+m4Wp0+Zi2/bduHr1BoqLXQgEgunIwNdMAQpQgAIUoAAFUirAMCsVnNIaEQyg4v51uA//AMeKKZBgREIShllNOFSQ4duZGZBAS6qYzCO7wTKuH2yzc1G4YjKcO1fCc2IPyq6fNYbEOx0I+0q1IqqxgwYNs0JBBIttKL9zFZ7DWyEbENhmD9Vh4okwS2eGsSKriQWq3xhVWdmtYR7bB/ZFo+HctQpl185oNSCDrFS8KfMYjS0g7YKhkDHzSaqvHI4iPH5iwq3b97TK6OixU9i5az9Wr9mIOXMXx8ObEejecwBate6Gv/49Az16f4+Vq9ZrpZK026VbiFO9+krmf7k9Hg2uHj56ghs37uDcuUs4cuQ4tm7bjRUr12HGrAUYmT8RAwbmolOXfsho0x3ftOysod669Ztx4cIVFBUVIxAINPbp5fNTgAIUoAAFKECBRhdgmJWiUyDhQsBegNJLx+Hcvhz2+SO1OqsgM9Hi1YRDnaZYudJQryk+DF1Dx6zWKBjazhgQP6k/7PNHaMWMc/dqlJw+AN+dKwg4TMauh+GgVmo1ViuYPG9VJKzzvQLWJyg9fwTOHcvhWDIW1sn9YR7e2di1kJWBTS7IknZXmZVVkN0Glinfo2jdLG1R9pseIFKaBvPaUvSeycO8HQIvqrzy+/3wlJTAarNr9dWFi1e0Xe6HrbuwbPlaTJ8xHyNGTsDAwXno0et7tG3fE//8dzv86c//xe8+/Rq//u0XaJnRBQsWLsPpMxfgdHkQCDbdiqTnHaT6LBHmlXhLYbXatYXw3PlL2H/gCDZu2opFi1ZqJdqwYWMx4PscdO3eH61ad8Xf/tEan3/5b/zhs3/gsy/+ie8H5mLZ8jU4c+aChoIMs96Oa4d/BQUoQAEKUIACbybAMOvN/J7+toQL4RI3Kh7egufoTjhWT4d5fD8USKshA60mGCg8Hy7GAwap1MppB/PwLrDk94Rl0vdaOVO0cb7uelh6+US8Sssen6dViarEfKOnq6EBHlQfAO/zPp2b5dyxAo7FY2Gd1B/mYZ11uHjBoJbGvLCGCgj5PC9Z7/G5bVINOLyzzmqTqizf9TMIe5zaOtoAq4dPQYGUCBi77kV09pXPVw6Px4uiIicsVjsePHiMy1eu4+ixk9i+Y49WHmmANWoCvhswBB069cG//9sB/++vLfH5l//Cp3/8Gz765C/49W+/xAe//gzvf/ApvmnZEfMXLtU2RJe7aYZZiRBLwisJmcp85Tq03VFYpDOu7t59gMtXbuDo0ZPaKiih1JSpc5CbNwZ9+g5Gm3Y98K9/t8Of/18LdZAg77cffYVf/eZz/ffTP/4d/b8fyjArJSuWB6EABShAAQpQ4G0SYJiVqrNZFdO5SiGnQ2dnObevgHXmUJiGd4Epu0283fD5AIVfN60ZS9UGxGfKLnMSbLWHeUwf2GblwLFyqraDlZzcB9/Ni/BbHiLkKUa0sjzZeijztBp4ppbMbJO5XpVP7sJ77pBWBjoWjYZlwncw53bUVkoGWk3hWouvr8xWxpy28f3gWDkFnuO7UfHoNmJBvzGXLVXvSTwOBVIkIIFN4lMCLNlNL6q7DoZ0hz2nyw2zDC+/8wAXL13DseOntYVQWgRnzlqA/DGTMShzGLr3/B4tM7riL1+3wO//8DU++NUf8fP3f4d33v0YP/2ZfH6kj9/5+Sf42c8/wX9bdNDKrLPnLkDCrGAolKK/6PUO86xBTA1kKL1UjEmYJ/OsTCaLtlKev3AZR348rgGW4bAQ+aMnayVal27f4T/fdNQqtA8//jN+8cs/4t33Eg4fPXX44Fef4Xef/hXfDWCY9XpnjL9FAQpQgAIUoMDbLMAwK1VnV/7HfjSig+ClOkuGOduXTYR1YiJQYLth0wquXhRuyO6T8U+ZqZXVGqbcDtoyKrseWmfl6Hl17lylrX3lD24g6CpEpLxM2/6M4d0NHGjJzLZQEJGyEh0gXnrpGOT1aaCV3xOmp9WBrNBq3DUY38FQZmWN7gnbvBF6nnzXzyJYaEluMJCq9yQehwIpEEhUHsnwdqk+CgaDGt5U+gNaiSXtczdv3cWp0+exY+c+LFu2BhMmzkBm1nB07toP/23REV//rRW++NO/49VXf9bqq/c/+IMGVhJg/eSdD/F/P/1Q/zUCrY/w7nsfa2WWtBnKgPjGDrP+xyEUgj8QgK+8HBLmFZgsuH5Dhrif1qH1ixavwLjxUzFwUC46duqDFi074+u/ZeDLr/6D3//hb5AQ65e//gLv/eLTeJhnOPzknd/GHT7UkOuT33+tlWxsM0zBYuYhKEABClCAAhR4qwQYZqX4dFaFQwg4zFqdVbxtOezzRsA8oqtW+XAY94sCpKb6/WQljSm7tbYfmkZ0gWV8P9jmj0TxlkXaUlp24zwqC+5rlVZiQLyGWileW686nISpMnPJb36A0gtHIS2Htjm5xkD4HNndsHUyqGMr4EtaAetpPeqGA600XLRMHoCiDXMhVX7+gvs6++xV55f/nQINLSABTjhitBGWlpXB6XTBYrXhwcPHGmCdOXsR+w/8iHXrf8C8+Ut1iLvMd2rfsTf+9o8MnX0l1UXvvPuJVhv9RIKrxOc7Rnj1fz/9Lap//vRnH+Kddz/Eu+8lK7MaO8ySajQJ87SNsMyHYqcLZosN9x88wtVrN3Dy1Fns2XsQa9dtxuw5izEqf5JWU7Vt3wNf/7UlPvrkzxCHd9/7vVr85GcfGw7vSID1kQZ51Q3ksQR8EvhpmNV/iIaEnJnV0FcAn48CFKAABShAgaYswDArxWdHW768Hm35Kjm1H4XrZsE8qgcKZOBzouKHQULDBwmvbW5UacmAeG07HNoW5mGdYB7dC9apg+BYPAZFmxbAfWQ7fDfOIWB9rLO0JNRs8I/qFVoSaF08iuIflmigahndS1smdfA4dzds+PUnQdbgVtpyLJsMWGfn6g6UshMlZ2U1+JXCJ6ylQDQaQ6Xfr5VHjx8X6C6EBw8dxfoNP+gOhNI2N2CgDC7/TtsHZYC7zH6SweUy9ynRPicthFJ59X9SgZX4fC7ESoQ5TTHMklZCGWjvdLrx6HEBZJj9vv1HsGr1BkybMQ/DRozT6qnO3b7VAe7/+Fc7fPWXb/CHz/6ODz/+SkOpn/38d9pKqeFVvBJNTV7gwDCrlouUP0YBClCAAhSgQLMVYJiV4lMvg+CjlRUIFtvhu3UJzj1rYZkyGKa8TjDJ0GcZBs8woeHDhNcOsxJVOtWqtOQ85rSFOa8jzOP6wjor19j1cM8anVlVcf86goVmrZKKBWRAfBgNsuthYih8KICw1w1/wT14zxxE0ZZFsM0cCnO+BFrtjCpBrsEGXIPG5gJy/cvGAuaxfVG4ajpKL53QHVB15loknOJ3Ih6OArUTSFQdBYMhVFRUoqTEGOIu7YNSgXXl6g0cP3Hm6RD3adPnIW/YWPTuMwit23bXAe5//PwfGtrI8PZf/vpzvP+BzID6vbYRvqjyKBFePf9vY4RZiRZCCa0SDl5vqc7AEof7Dx7j6rVb6rBz1z4sW7EWk6fMRtaQkejaoz9atOqkc8D+8Pnf8fHvjCH24mCEeUY1lgR6SQtpq3y2Iu35rxlm1W798qcoQAEKUIACFGi+AgyzUn3uq2IaXkR8XvgtjzRMsC+dAIvMzpJh8DK/6GmVViIo4b+NO8uoDv6D4nOPZEB8ZoYOWLfkS5XWYG09lEo859618J47jHIJtYrtOkdNKrUaLtCK6q54MhTeb7oP7+kDurumbXo2TCO7xyu0WsJoe63D3/7GgWAzfS5ZMzInK6+jDuW3LxwN1551qHhwAyGPUzcP0LWR6vciHo8CtRDQAeaBANweDywWG27cvIOTp85h956DWLN2E+bMXYIx46YiM3sEevcdjI6d++Kblp01xJLKo998+CV+8UuZf/WxMbz9XeNfYxZWzS10zwc31b9ujDBLAj2ZByZhnsfjgdli1TbK02cuYM/eQ1i3fgvmzl+K8ROmY8jQUejTL1NbKf/zTQf8+f99o+2Uv/7tF1qB9fP3jRBPhtrLpwRYRoj18vCquoE8ZphVi8XLH6EABShAAQpQoFkLMMxK9elPVMcE/DpDyXfrou6AZ5fd5cb11RY1aVdjkJDuwUa8/VAGxOd0gGlEV624sU7Lgn3xWBT/sBieozu09bDSdB+yy6UEnLFAfMe6et3x0NiMQKrCwl4PKu5dh+vAJhSunAbLlEEwj+oOU3YGd9hsoHBOqjGlIs6S3xO2OcPg3LoMpeePImA3GRsHxKINvgNmqt/2eLz0E9CKrEgUvjIfHI5CXLt+C4cOH8WmzduxaPFKTJw8E0Ny8tGrzyC0adcDRgvhN/jiT//SQe7SRihzoCS8MUIbo9pIQhj5NFroXl2B9HyI0xhhlgR63tIynYN1/fotHD12Clt+2InFS1Zh0uTZGJo7WoO8Dp1649//7aBB3udf/ktDrN98+CcN82TGV8IhYfAmDvK7nJmVftcVXzEFKEABClCAAg0nwDCrnqyrIsbOhn7rY3jPH9Fh4dbpmTDnd9MqDZnBxHbDdA+0vkFBYhaSBJRZrWEe1hmWMX10JlLhmhlapVVy5iDKb19GwPYYUi0lIRPqNcyCcfz4DpshlwNl187CtWctJFSVHTa1QpChaj23Gsar+LIyNMS2TuyPwpVT4T21X2fqybD+WCggJ6ue3oV4WAq8WCAaiSIYCMJhL8K1a7fww9ZdmDJ1ztP5Tx069cE//90Wn30h86/+hPc/+FSHsv/s559o+2BiqLtUYD0fSL3J140RZgWCQVisdly4eFXbKRcsXK5D3PsPyEHHTn3xr/+0h4RX0kIorYPv/cKovkpUo4lBqh0YZr147fK/UIACFKAABShAARFgmFVP60DahuRGNeRxGcPgj+3UYeGyE54psbPcIKO6J21a7BqokiX9PGSeljFTqyC7jdF6OKY3LFMHw74wH4XrZ8O1fwNKL/yorWXBIqu2Hsr6eGaeVqoDLjleVQzRijKtApLnL9q8EPZ5w2Ee2dWYn8VQtf4CLWkv1Kqs9rCM6Q373GGQHU6lUk5DzaAfuutlqs97Pb2n8bBvl4C01fl85bhz9z727T+sLXRt2/fEf1t0wl//3hpf/OnfupPer37zxTPVV9WrjhKP3yS8ev53GyPMKi+vwM1bd7Bj514N9AYMzEVGm+74+z/b4Muv/qMVWOLw3i8+1eoro4XSqECrDwMxYZj1dl1vTeGvSczHk2tfAlzZ1EB26JSvZbfOWKwKMj+OHxSgAAUoQIF0EWCYVV9nSqtioogFA4j4SuG7eUF3NpQ2NKneMWZnsTor/YKrV1STJWZqSRufzEcb1gmWCd9qkOncthQlJ/fBd+cqQk47ImUlWqVVr/O04tVZsg5lILznxx0oXD1dX5POcJMNCTRUfcXfxSCz7qGXVO3JrKwRXWCdMhCOFVPgOboTIVdhPMSKsSqrvt5/edxXCsjNrKfEi7PnLmLpstXo1KWvVhfJoHKj6urjp7vvGXOfEu2DdZv99HxY9aqvGyPMkmHvJ0+dxbz5S9Gr9yD85euW+MUvP4tXoIlDYu5V3dsmX/X3vui/M8x65RLmD9RBQEIqCayCwSAqKipQ4i2F0+mCy+WBhLmy8UEkYgRadTgsf5QCFKAABSjQqAIMs+qTPxFohYKoLLgH98HNcKyYDMukAUZlTBaDhLcuzJLQR6u0jKqcgvgOdlKRZ5uTB8fKqSjesQKeE3tRfvsSpEpLQ61w0Ag46mM9yqYE0YgGaL4bF+DevwGOpeOhVYIMs+oeUtUy2JNWYgk0E2Gma+9alF0/p7tcGm2m/H/A62O585i1E5Awy+X24MzZizobStoKJUBJtMw9G2AlZmDVb5AlwU5jhFmyg+OJk2cxZ+5idO/5Pb76yzcaZskMrEQVljEDrP7//kS4xTCrduuYP/VqAQ2yYjFUVvr1mn9SYMa16zdx7PhpnDp9XnctlWCrotIPmR/HDwpQgAIUoEC6CDDMaogzVVWl1RhlV05qkGGbPwLmsX2qzc5iVcxbGWoN/EaHrGurWXw3O3N+T0h1nmPZJLgObET5rUsI2J7Eq7SqtZ3VQ6l/tMKHgMOM0ksn4NyxAraZQ7gGaxlMvc761DArt4M6F2+ar22mMjetQWamNcT7Gp8jrQWkvcjlcuvNrAx8T4RZEqLIZyJUaeh/GyvMkhv72XMWoVv3/vjTn/+rw9clyGrovz/xfAyz0vryapQXL6GVfEq7oFRhSTAVCoXhDwRQXlEJR2Ex7t57qMHtD1t3aiXi8hVrdffSh4+eQELdQCDIVsNGOXt8UgpQgAIUeB0Bhlmvo/YavxMpL4Xf9ADeU/tQuHYmrNMyYcppq2EC27ze5jAvPgR8cCuYhrSBKbcjzKN7wTI1Ew7Z9XDzQrgPb0Xp1VOofHJHQ08JnWSWVqqHxMdCQURKS3RuV8nx3XAsnwxzfg9jhpvMdtL5WW/zuWigv+2ZWVl9tArOfXCTuoe9bkhbKT8o0NgCEma53R6cPnMBi5esRMfORmVWcw2zjp84o2FW9x4Msxp7bfL56yaQCLEkvJI5WB5PCWw2B+7ee4ALF6/o7pw7d+3D6rUbMWfeEowZOxWZWSN0h86RoyZi1+79uHnrrlZt+f0Bhll14+dPU4ACFKBAIwowzGogfCNI8GhrmXP3atgW5nMIdz1WxbxOJU39/E5iyL+EWq1QIDsIDm2nc5RkKLhlYn84Fo+Dc9synadVfueKVk+FdZ6WH7IrpmwmkIpgq0oGvIaCCBaa4btxFjLDS2e4SaCV3VqHlTNYffPASyuysjM0KLRNz9bAsvT8EXUXfz2fDfS+w6ehwIsEng+zkjOzZD5U86vMOn7CqMzq0XNAvM3wj9pimKiUauh/WZn1opXbfL+fCK0SlVc6yD0QRGVlpW7mIG3DFosNt27dxekz53VnTpmHN3nqbAzNG43e/QZDNnn457/b6Vw4qUDs2Wsg1q3fgkuXr6OoyKlhmDwPPyhAAQpQgALpIMAwq4HOkswsigX98FsewHt6P4o2zIV1aibMo7rFQwQOg6+fMOnNw4mUvS4dDt8KpqzWOktJQ628TrBOGgDbglEo2jBHdz30njsMDbVsTxAucSMW8OvMqzcPtKo0SJHqoMond1FybBccq6bDOvl7o0owM4PD4N84YI1X4g1po0PfC2Xo++GtKL97FVqVFYumJJhsoLctPs1bLFA9zFqydBU6demDd979SGdWNdcwa87cRejRsz+++st/8YtfMsx6i5d/2v1pRvtgTHcelPBKqq/sdgekPfDGzds4d/4SDh85rgHWylXrMXPWAozKn4SBg/PQtXt/tMzogr/+PQOfffFPfPTJn/Hr336J33z4J7Tr0AvLV6zDhQtXNMySuVoMs9JuefAFU4ACFGi2AgyzGuzUG0FCyF2o1VnuAxvhWDYB1onfGe1nUrUzUKp4mlD4wtdSD+cjXqkVHxJfIEPC8zrBPK4vrDOHwL50HIo2L4Tr0BaUXj6BysfJ1kOt6klUauH1/5/TaGW5DoMvu34Wrn3rYZ87HOa8TroOCwZJqMo1+HoGLSB+GlbmtId93gg4d65C2eUTCNgLEK2saLB3Gz4RBV4lwDArKWQMgD8DDbN6MMxKyvBRQwskqq+i0ZjOvQqFQjrHSkImn69c59xJ9dXtO/dx7twlHDh4FJs2b8eSZasxaB+xdAAAIABJREFUdfpcDB85HgMG5qBL9++Q0aYb/vGvdjoD7pPff41f//YLvPeLT5HY2ODn7/9eQy6p3jp3/jIKC506JJ5hVkOfdT4fBShAAQq8rgDDrNeVe53fq6pCxOdFwPpYh0E7ty+HbXYuTLkdYMpuw5lFzS5EMYItPfc57WEa1dUItWYMgWPZRDh3rtQqPq3Ssj5ByONEpLxMWwWl0u91P7Tl1eeF33Qf3vNH4FgxBeZRMjurA0zSBqmBFoPVugVaiSArQ2eQyaB/x+oZ2jpa+eg2wl4PZ2W97oLl79WLAMOsJCvDrKQFHzWegIRIicHtMrS9TMIrtwd2RxGeFJhw5+59XLx0VWdgbd+xBzK8fdr0eRg2fBy+7Z+NDp1641//aaeVhb/79K/48GOpwPoTfvnrzzXEeve93z3dnVOqL+XrFq26YNnyNTivlVkucGZW451/PjMFKEABCtRdgGFW3c3e6DdioQAipR6U378Oz4k9uqudDuGWQCsrA6bBDBHqFiKkexWRhCAtYMpsaWwGIPO0RnaDdWJ/2BcmWw9l5lLFveta4SPBiOyI93SWlsy3qMOMC215DQURcheh4v51FP+wBJbJg2Aa2R2moe1gknZDVgnWsUKthXH9Dm0Ly+heOovMuWsVfDcvIFhsQywYQJW0GPKDAk1EgGFW8kQwzEpa8FHDCCQqsGIxowJLQiyZgSVhks9XgeJiFwpMFly/cVvnX+3bfxgbN23DkqWrMW3GPAwfOQEDBuaiWw+jhfDrv7XEHz//u7YPvveL38dDK5l/l/g0dilNtBAnw6zOWLp8DS5cvIqiIoZZDXP2+SwUoAAFKJAqAYZZqZKs7XGqYqgKhxEssqL81kUUb1kM6+SBxuysoW2M+VkMEuoYJKR7oCWv36jsKZBdBXXXww66JiwTvoV1dp7ugKmth1dPIWB9hLDXZVRoRSJGkFWnQMtoeY1WlCHgMGlLo21BvgZo5uFd2G5Y5wrBeFXWkDYwD+uoQZbMIis5uQ+V5ocIl3mTwWNt3yf4cxSoZwGGWUlghllJCz6qfwEJshIhlgRYwWBQB6+XlRmVWFarHbdu38WJk2exZetOzFuwFPljJuHb/kPQoVMf/ONfbfHlV/+BVF999Mlf8JsPv8QHv/pMq69+9vNPntu4oObNHBhm1f955jNQgAIUoED9CzDMqn/jGp8hUlYCv/khPD/u0OosGQJuym1vVOfIPKU631C/DYEO/wat0hocr9SSSr2c9pCWNdl10LFsEoq3r9CQpOzGBfitjxEucenGAlWRcJ0DE9mQIOxxQqq+ijfOh212nu7AZ8ppF2955Tqs1XUoc7IGtzLO1ahusC8ZD/ehLfDduoSgu0gH+Nf4JsBvUqARBRhmJfEZZiUt+Kj+BBIhViQS0Qosr7cUhUXFePykADdv3sH585d1iPu27XuwYuU6zJg5H8NGjEPfbzN1F0IZ4P7pH/+mbYPvvvd7rbr66c9k04Znq69qs/Mmw6z6O888MgUoQAEKNJwAw6yGs37mmSKVFQi5i+G7eRHug1tgnz8KWhWT3YY7yjHIi1dqSagVD7RGdIFlTG8NteyLx6J42zKUnNyP8gc3dB5T1F+BqmjddsqLhYOQUFV22pMd92RDAqkE0xlug7m7Zq2CrHhFnZwnGaJvGdtXqy3LJcgqNEOG7UvQyA8KNDUBhlnJM8IwK2nBR/UnkKjG8vv98Hi8ePzEpDOw9u47jFWrN+j8q9zcMejVexDatuuFf/67Hf7ydQt8/uU/YQxw/xLvf/BHnXUlAVZtQqsX/QzDrPo7zzwyBShAAQo0nADDrIazfuaZZAh32FcKv+URyq6cRNG6WbCM/w7mYZ3jw+C5u2HtwoS3vJpLd8fLMFoPc6rN01qQj6KN8+E5sg2+62dR8ei2zmaSeWy1nc8ks7MkBAvYnqD00nEUbZgD69RBxhrM5Pp79fqLtxdmt4E5ryMsE76Dfd5IPSdiqrPNQkGjYu6Zq59fUKDxBRhmJc8Bw6ykBR+lXiAQCKKkpBRmiw23bt3VXQgPHT6GzVt2YPGSVZg4eRaGDB2Fnr0GolXrbvjL1y3xh8/+gd9+9BV+9ZsvnrYQSjXWO+9KG+HHkDDqRUFVbb7PMCv155lHpAAFKECBhhdgmNXw5vqMMgxaKmOkTazyyV249qyFbc5wWMb1gzm3I0xZrVmhxQoto91UBsQPjreySXCSa1QA2aZnw7FkHIo3LdAApezqGfhNDxAuces8rVcOhdf5bSH9+YqHt+DcsRLWmUNhHtHVGALPXQ1f0e4bPy+5HXTou33eCBRvWqjhtJ6D6kP6G+l9hk9LgRcJMMxKyjDMSlrwUWoFpLVQqrDu3XuIIz+ewKpVGzB9xnwMHzEOAwfloXvP77WF8F//aY+v/vINfv+Hv+FXv/kS7/3iD5D5V++8+7G2ERqthBJgJT5/yzArtaeKR6MABShAgTQUYJjVWCdNgoRYVNuQQk4HvGcPoWjDXNhm5eqMJGNuEatjXl0d85ZXZj0N9GR+lYQnRpWWtrTJLK2J/WGbmQPH6ulw7VkD75mDKL9z1dj1sMRltLmFQ/Gd9KqeXe1VVdDqrMpyBOwmuA5uhm3BKFjG9DF2NRzM9ffS9SdVc9mtYR7VHdapg1G0fjZKTuxB5aPbT901UKzDTpPPniB+RYH6E2CYlbRlmJW04KPUCSRmZFltdpw6fR5Ll63B0Jx89Oj1PVpldMXf/9lGA6zPvvgnfvfp11qJ9cGvPodRgfXm1Vcvq9BiZVbqzjOPRAEKUIACjSfAMKvx7PWZZZ6O7CpXfu8a3Ie3wbFiMiyTBmjbkszh0V3uuLvhKypkmkugJX9nvLVNBo5ntYZpaFud1WSd9D0ci8egePNCo0rrykkNVSQojfhKtQrwf2dqya6GUZ3pJBWCnuN74Vg2GZaJshkBqwNfHmTF55kNbavVlPYFo+Datx4V968j5CpU06pYrJHfXfj0FHixAMOspA3DrKQFH6VOQGZkRaJR3H/wCNu278bwkeMhFVh//Pwf+MUvP8PP35e2wY+fVl/95B1jkHuqqq8YZqXuXPJIFKAABSjQNAUYZjXyedF2w1BA5x2V3TiP4u3LYZ87HOZRPYw5SZxdxCDraXVWIrQzqrQKpDJIBsQPaQOzDIif8C1ss3LgWD4Rzq1L4Dm6A74b57T1MOQpRrTCp+2HVZEIkhVDEmjFECnzovTiMd3VUFsN8+PrTwfBJ56X/z4NuMQ+7m6bkY3CdbNQcvagBlnibASHDLMa+e2VT/8SAYZZSRyGWUkLPkqdQGLg+81bd7Bm7Sb0/z4Hf/z87/jNh3+KV1/J/CsJsD58+mkEWW/WQviyECvx31iZlbrzzCNRgAIUoEDjCTDMajx745ml1UvaDf0VuvtZybGdcKyYAqtWZ3XSNqaCQRJeMEigQU1rID63SUJPaXkb1knbBK0zhqBw1TStFiq98CMqHt5EsNCiuxfGZJZTNB5oxde/7Lrnu3EBrt2rYV80Gpbx/WDKaQ+TthrW9LzN+XvJWVnmcX0hu0vKzDvZFVIqLeV6fuW8ssZ+3+HzN3sBhlnJJcAwK2nBR6kTSIRZV6/ewOIlK9G1R3988OvP8O77v48PcZcdCd9skHsinKrrvwyzUneeeSQKUIACFGg8AYZZjWdvPLPM05FAKxxG2OtG2bXTcO5aBdvCfMiNsjE7qyXDLIZ5L1kD0noYD1ikWiivI0wyx0nmac3OQeHqaTpPq/T8YVQ+uqXVQ7GAH1qhFV//EnBV3LsOz+GtKFw5FdYpg+KtrjI3qzkHVzX87WKd2UpnZUkVpXPbUngvHNVdIRlkNfYbKp+/tgIMs5JSDLOSFnyUOoFEmHXt+i0sW74GPXsPxG8+lOHun0JaChsryJLgi2FW6s4zj0QBClCAAo0nwDCr8eyffeaqKkT9lbqzYcnp/SjaOBfWWbKzXBejOotzsxiq1CJU0l0PM2WeltF+KDO1LGN6wz5/BIq3LELJyX0ov30FgSIbIqUexEIBbYmTcMtfcB/e0wdQvHEebDOGaJWXKZNB6v+EebKz5NA2sE78DkVrZ6Lk2C69bsNeDyuynn1X41dNWIBhVvLkMMxKWvBR6gQSYdaNm3ewYuU69O47GB9+/BXDrNQR80gUoAAFKNDMBRhmNaEFUBUOIeguRPndK3Ad2gLH8kkwj+mNgqFtISGF0W7IlsP/CRdqEfI0q99JVGnFQy1tPZzwLexzh2mVVvGOlbrrnrQVBmxPEPF5IWFWwGFG2bUzcO5YAfu8ETAP72KsO/rGg1Sj+k2uR/PIrrDNyYNr1yqtpgy5C7VVmO2FTegNlS/lpQIMs5I8DLOSFnyUOoHnw6w+/TLx0Sd/xvsf/IGVWalj5pEoQAEKUKAZCzDMakInX1qUIpU+DRVKLx7VId6WqZlPq7M00GKFFiu0ahUuPdd6OLwTLKN7wjqpvwZVjsQ8rYvH4C+4h5C7CH7LIx0Y79qzBnZpc2WYVW2tGZ4F0l44rBOsk79H4erpKDmxF5WP7yBaKUPfI03o3YQvhQIvF2CYlfRhmJW04KPUCfxvmDUYH33yFcOs1BHzSBSgAAUo0MwFGGY1pQVQFdMB0tL+VfHgBtxHtsGxbKLOPtLZWdLyxWHw1QKGGuYZ1SroaU6/Z8x3MmW31go/CWKk2s86LROOZRN03lPJ8d1aXeS7fhal54/AuX0F7PNHMcx6Zi3Fw6ysVjDnd4dj8Ri49q6F7+YFBIutiIWDbDFsSu+lfC2vFGCYlSRimJW04KPUCTDMSp0lj0QBClCAAhSoSYBhVk0qjfm9qhii/nIEHAUou3wCzu3Ldd6ReXhnmIa0ibcbco5Rs2obfCZUqWsQJ22p0h7XAgXSqiqthzntYR7RVXfMtM8brnOfnDtXwn1oM9wHNqJo/RzYZuXBnNfZ2M2QAarhkJWhgaBlUn8Ub14A77lD8Jsf6Oyxqmi0Md81+NwUqLMAw6wkGcOspAUfpU6AYVbqLHkkClCAAhSgQE0CDLNqUmnk70mVh+xsKDvPeU/tR9G6WbCM7aMhhCmrtXFjzXZDVmjVOeSS6qKWMGVm6KYCptwOMI/qpqGWbc4wFK6YgsI1M2FfOBrWyYNQkNMhHmY17/BUh+prkNUOJp2VNQyeI1u1ejLsceq8Mc7KauQ3TT59nQUYZiXJGGYlLfgodQIMs1JnySNRgAIUoAAFahJgmFWTSiN/T2ZnxQKVCDkdKL97Fc69a2GdlgVzfg9ou2FWaw6Dr3OQU9eKprf1541KLWlXNUmV1pA2OgPKkt9T50BZp2bCOnEAzPk9Ycpuq+GXVHY120q4hJNUs43qDplhV7R+tlZNBgvNiFaWoyoSYYthI79n8unrLsAwK2nGMCtpwUepE2CYlTpLHokCFKAABShQkwDDrJpUGvt7VVV6cxz1VyBYbIP3zEHYF42BZWJ/Y45RYnfD5hwyMMxKQcAUr9TKildqSRtr4jNbWlpbaYtisw2yBn6jbb2m7AyYR3SGdfIAFK6YDPehLah8fNtoL4yEGWQ19vsln/+1BBhmJdkYZiUt+Ch1AgyzUmfJI1GAAhSgAAVqEmCYVZNKE/leVTikN8xSnSXDph1LxsEypg/MuR1ZMcMwKwVhllSfxQMtmacls7H0M/FY2gubcVWWzBrTGWNtYRndC7a5w7RKsuz6OQ2ZJWyuisWayLsFXwYF6ibAMCvpxTAracFHqRNgmJU6Sx6JAhSgAAUoUJMAw6yaVJrI92SotFZnFVl01zTnjhWwTBmkw7tl9pERNDTnsOFtbQVs6L8r3nr4XED4ZOA3kM/mWZlVrWott4PuKOpYORWll08g6CqMtxeyKquJvFXyZbyGAMOsJBrDrKQFH6VOgGFW6ix5JApQgAIUoEBNAgyzalJpIt+Tqg8ZBh8p9SBgL4Dn+B44Fo81ZhrldoQpuw0rtJpt2NJcQ6YG+rvjs7LMeZ1gGdcP9kWj4dy1ChUPbyJaUYZYKAiZbcfB703kzZIvo84CDLOSZAyzkhZ8lDoBhlmps+SRKEABClCAAjUJMMyqSaXJfK9Kb5hjwQCiFT74bpxH8eZFsM8doW1PshudtEE171awBgo3GJo1rwotCbOyM4z2wlk5KN68UGfXBYutqIqEjSALVU3mnYIvhAJ1FWCYlRRjmJW04KPUCTDMSp0lj0QBClCAAhSoSYBhVk0qTeV7Ogg+hqpoBDI/y2+6D8/RnShaN0t3VZPd1UwyvFvmHTFsoQHXQIrWQAuYslrDlNse1qmDULhyCjxHtqHi3nVj6LvOyTI2aWgqbxV8HRSoqwDDrKQYw6ykBR+lToBhVuoseSQKUIACFKBATQIMs2pSaaLfC7qL4Lt5Ec6967TtyTK+HwqyW7M6iyFOikIcVrkZA/FbwDS0Lcwju8I+fyRkVl3Z1dMIOR2IBfxN9N2BL4sCdRNgmJX0YpiVtOCj1AkwzEqdJY9EAQpQgAIUqEmAYVZNKk30e5HyMgQLrfCeO4KiDfNgnZ5t7GyY3drYhY6hDkMdroE3WAPxoe+ZrWAe3gWWid+hcM0MlBzbBX/BPd2MoSoSaaLvDnxZFKibAMOspBfDrKQFH6VOgGFW6ix5JApQgAIUoEBNAgyzalJpot+rCocR9Vei/O41uA9sgn3xOFhG94YxOyuxuyGra9hyyTXwemughbbsSuuuZWxf2OaN0KHvvutnEXIXNdF3Bb4sCryeAMOspBvDrKQFH6VOgGFW6ix5JApQgAIUoEBNAgyzalJpot+T3Q2lMiRgK0DpxWNwbl0K25w8WPJ76LDqgkEMtF4vxGD4QzdZA8kwyzo9C8VbFsJ79hD85oeI+LxN9F2BL4sCryfAMCvpxjAracFHqRNgmJU6Sx6JAhSgAAUoUJMAw6yaVJry96qqEPY4UfHwljEMfu1MWCcPgCmnrTE7SwMthjMMZ7gG6rQGBrWEaXArmIa0gXlYJziWjIPn6A6U372KcIkLsSBnZTXlt0W+troLMMxKmjHMSlrwUeoEGGalzpJHogAFKEABCtQkwDCrJpUm/r2ovwIhlwO+G+fh2rcetjnDYM7rpDfipsxWYIUWg5w6BTnNfs5WC5gyM4wga1Q3WCcPRPGWxfBdP4OAvYCzspr4+yFf3usJMMxKujHMSlrwUeoEGGalzpJHogAFKEABCtQkwDCrJpUm/r2qcAjRCh/8pvvwnjuMwtUzYB7/rQ6tNmW3YZjV7MMZhnm1D/PirYXZbWDO6wDrlIFwLJ8Ez4/bUfnkjlZlSWuvtPjygwLPC1RVVUE+jZvWGCLRKCKRCMLh8NPPUCj09LF8X/67fEajUf2U35VjNPQHw6ykOMOspMXzj55Z35EIZD0HgyEEAkEEgkH4AwHIWpLH1T/lZ+Qzsf5lvctab6z1/vzf1RBfG+8LUdy4eQcrVq5Dn36D8dEnX+H9D/6An7zzEf7vpx/i/37620b5/Mk7H+Ld936HFq06Y+myNTh/4QqKipzw+wON8n7UEOeDz0EBClCAAm+fAMOsNDynxuysMEKuQvjuXIVz71rYFubDPLYvTDnttMpE5v/U/oae4QetmuMakGvECLMKhraFeWRX2OaPhGvvWpRdO4OQ06GhMVAFNELYkIZvTc3qJSdu8uWGVcKpUCisN/YVFZXwlZejrKxMP0tLS58+9vl8KC+vQGWlX28a5UZfbvIZZiVv6H/6sw/xzrtyo/0J/tuiAxYsXIYzZy/A5fYgGArVyxpjmFUza2KNy/qW8ErWbmlpGTyeEj0fxU43iotdGoI4nW44XclPOV8ejxder6x/HyorKxEMBp+u98ZY8zX/lfX33fQJs1ZXC7P8jfJ+VH9ngUemAAUoQIG3WYBhVjqeXakGkBuoMi8CticoPX8Ezq1LYJs5VG/IZe6PzP9hQNMcAxr+zbVf9xJktYJUM5qHd4F5fD8UrZ+N0kvH4C+4r0PfY6FgOr5D8DW/oUDiJj4ajWlVlVScSAClN/NlPr1Bd3tK4HTKjXwxbDYHTCYrHj0qwL17D3Hn7gPcvHXX+Lx5B7du3dXP23fu4+69B3jw8DGePDHDbLbC7ijSQCBx8y9hQZnPBwnFpOpFqlskTEhUtKQqBGBlVnKRNNcwK7nOo1pB5fcn17iYyJqUah1Z30+emHRt37x5B1ev3cSly9dw4eJVnL9wGefOX8aFi1dw8dLVp5+Xr1zHlas3cf36Ldy+cw8PHz6GyWSB3V6ox5Rjy3OUlsUDXn9yrUcbqVoxuSJS84hhVmoceRQKUIACFKDAiwQYZr1Ipql/X1pbgn6EvW5UPLoF76l9cCybCMu4fjDndYQpKwOmwdzdsPbBBkOgZmc1qAVMWa1hyukAy5g+sM7MgWvvOlSa7htD38NBVMWiTf2dgK8vxQKJG/xwOKJBkgRYnhIvCouKYbHa8Vhu6u8/xM1bd3DlynVcuHAZp06fx9Fjp3Dw0FHs3nMQO3buw/Yde7Ft+25s3bZLP+Xxjp17sXvPAew/cASHDx/DiRNncPb/Z+8svNpKuy7+77zfeKfTqbv7VKm7O1KKlRapu7u7u9t06u7eQgR3lyL7W/tcLtAW2iQkJITnrpWVkNxcOc+5F54f++xz5wEePnqGZ89f4eWrt3j3/hMiDSZERccKLCPcoqqFJYo8Nv1R1dNWMKssgrURZul5TlBKiMU8I5w1R2k5/ubNezx79krgFPP7ypXrOHP2kuTywUPHsXffYezecxA7dx3Azl37sWv3AezZe7D0wc/3HziCw0dO4MSJszh//gquXbuBW7fv4cGDJwK5uA8CYJMpWgAXx4EQlypHdwBaNRFm8V5THpzr9xtHP5ddjeqVioCKgIqAioCKgOURUDDL8li53Jr08tHN4DNfP0L8kc2IWhkAU9g4GAIGI1LM4FW5Ya2DNMozzAJVYh9EEvb6D4IpbCyiVgUibt9qpNy5jPzkeM30nSCrWHlludyNz84HpE/qqcIqKCgUaETfmLS0DLB0igoqgqZbt+8LrCKU4iR+0+YdWLV6IxYtXok5c5dg1uz5CAgMw3TfWfCePhPTvAIx1dMf0/SHVwC8fIIwfcYs+AWEYmbwXISGLcT8BSuwbPk6rF23FVu37cH+A0dx6vR5gWNUulDlRYhGoEboUF6pVX7SaW1YFMwqi1htgVllua7nuQaxqJaiopC+SZcu/4ujx04LpFq/YRuWLlsr+T0zeA58Z8yCp1cgJk+ZgQmTpmP8RB+Mm+Bd+hg/0RtlDx9MnDwdU6b5Sd7P8A9B8Ox5mDtvqWyT5aMEYIS9hMB37j4UmGsyRSEpKUWUkMz1muy1VRNgVu++w7Fh4zbcuHkXjD3LQllSytiLLxq90Rz04D5Yespya0JV5qdaVARUBFQEVARUBKyJgIJZ1kTLFdelQis/F3lxZiRfOY6YrQthWuQFQ/AIKZ/SOhsq1ZECWioHvswBdjD0gCF4OMyLPRG7cwmSr51E1ocXGsgqLHDFq10dk50joE/uOenkZIqTKypDOKHjBP/9+0+inDp56rwYOC9dtgZBM+dg0mRfDB4yDj17Dkb7Dr3QomVXNGzcHn/93Rp16jbH73Wa4dffm+KX3xp/8fjtj6byed16rfB3g7Zo0qwTWrftgS5d+6Ovx0gMHzkZnt6BCA1fhDVrNwvYunT5GliyxRItehXRf4hQi0otfaJvyyRQwayyZKoNMEvPdT3PWTZLTyuWEFKBRYhFNdXyFeskx8dP8MaAgaPRuWs/NG/ZFX83aIM//2oJ5jDz+udfG+HnXxtqz6U/8z3t/Z9+aQj6n3Fdfqfu363kGuG10qVrP/QbMEogmH9gmMAtqruoWKRKkQA5KSkZmZmZYi6ve8vp8LZs5Fz7VU2AWT16DcGaNZtx5ep/+PAxQhSoLP3kIzUt3WEPfR/0F8zKyhKoVdPG17WzTx2dioCKgIpA7YiAglk1fpyLwe6Gn1OSkP78HhLP7UP0xjAY505EpN9AVWqoVEoWqJRqG+jSvLIi/QbAFDYe0etmIfHUTmS+eoS8+Gi5nooLVXlhjb81/uAEOLmnGosqrJSUNBhNUaLA+u/GHRBeUTWyavUmhM9Zghl+IQKwho2YBI/+o9Dtn4FoR4jVSoNY9eprEKtsoq9P9htBm9Rrk35O7GlszvUIvOrWa4n6DduhSdNOaNXmH3Ts7IGevYdi0JBxGD3WE1R3UcG1cPFKbNi4HQcOHhUVC/2J6LsVF58gPl4EW9YuCmaVRcydYZYOsZgjBAeEV/RwoxKHZa/btu8VmMQ8m+oZgBGjpsCj/0h07T4Abdr1QOOmHQXSaoC2CX76Rcvp0m58PzfA//SHdOdjhz79UV/yX4BWnaao81cLgWKEuNw299G330jZ55Rp/ggICse8+csk1w8eOia5fu/eQ7x9+x4xsXECPQjjioq0ctuyEXTNV64OswgeCdMnTZlRGndCxX37j8hj7/7DcMSD2+e9jCWop05fEJD27t1H6YbJjrBqURFQEVARUBFQEbA0AgpmWRopV11PzOALRU2SF2tC+uMbiDuwFqYl08ULyDC9n3RsU90NaxuwUef7pRKrXDy8+2qm70HDYF7shZidS5By4yzyk2JRlJsDAVmq3MFV73hVOi5O7HWIxUkxQRaNqN9/iBDfK06gV6zcAD//UIweMw1ULXTo1BfNWnRFk2ad0bBxB4FPVGD9Wa8l/qjbHL/VaYpfftfgFcEVW97zoUOs7z1zMvnr700Ebv3xZ3P8Wa8V6jVoiwaN2gtEaNaii0w2qY4hYBg/yQdhcxZh6/bdMtF/+uwloqNjRK3F8yGc08/xR4FSMKssQu4Is3SIRTjAMjEqYViuSsN2lvatXL0BMwJCMHT4RHTvMUhgatPmXdCoScfSHK9Tt4Xk5i+/aRCLAKsUYpUCK4IrvRulDrHKnkvznyqu3xrJtfL7n80EbP3aDvgUAAAgAElEQVRVv7Xsi/vkvlu27ob2HXuJaoslimHhi6Sc98zZi3j85DliYuKQnp6pldoWFpZ6O5WNpGu9cmWYxTHjfYogvkOnPujVZxgGDR6LYcMnYuSoKRg+ajKGj5pk98ewkdzmZIweOw0TJ02XkusFC1fI/Sw9Qxtb1xpFdTQqAioCKgIqAq4cAQWzXHl0LDw2djYs+pyHgrRkZH98icQLBxG9ZT5M8yfDOHMYBGh5K++sSuGGUm/VKvUWGyPQ9J3dC6M3hiPxzG5kPL8n3QuLWV5IkKVgloV3n5q1GtUpNHRnhzYCLHoEnT13WQyslyxbI8oQ+gD1G8Dyqv4CsQiWWF7FiT2BExUqVFYRQv38W2P89Gsj/PRrGcQqm9jrE/xvn3XgpUOvX37ToBa3ye1zP9wflVss72IJY8s23dH1nwEYNmKieHLNXbAMmzbvFJN5qsloHh8dEytm8SzL+lHJjoJZZbnrTjBLg1jFGsBKS4fBaAahJxsUHDp8HGvWbcGskAXiedV/4GgBGU2bdxb1FfP8mxz/tbGoscpA1rf5/KOcL833XxrItcLrpjzEFZD7V0uw/LZ+w7Zo3fYfAWwEbfToojpyw4btOHL0lJzH8xevRUnJMjiCOldVatUEmMX7TaMmHdCiVTe0bd8L7Tv2RsdOfSUvOnTuA3s/Onbug46d+6JLtwEC0KgEpMcgvQhlPPNUB+GyO5N6pSKgIqAioCLwowgomPWjCNWIz4ul6xq9s/ITopF2/yoSjm5G9NpgmOZMgMF/gGZ2raBNrYI2Ct6VU2OVy32DrweMs0YganUg4g9tQOrdS8gxvkdRvvojukbc7qw8SF2JRZBFLyyaHD958gIXLl4Tw3Wat0+Z6odBQ8aiR6/BMpmjSqRe/bb47Y9m4gFUOhkvUV2V/7msxMr6Sb4OAcpv7+vXVLawTIsT/r8btkXL1t2lPIsgguAtKHiu+GtRbcPyw6ioaBDOEFbxnCuDWgpmlSWSO8AsXYnFMafiMD4hCR8/RYKg88DBY1i2Yq2oYFi+ytI+AgUq/6gyJJxlnn2de/rP5csG9Zy1+bmkJFHfdvlnHgPVivSdI8Bl6S395PoPHINx473h7x8qzRII5Vgm+fGTQc6T56vlumuVH7o6zOIYMt4cf8JzwkwCRT7++ttRj9aScw0adUDzlt0EWo4YNVmaaiQlpyAnN7fswlSvVARUBFQEVARUBH4QAQWzfhCgmvOxBrQK0lOQ9e4Zkv89ibi9KxG1zBeGwCEw+OrlhhVP8BX4UHFx7xygMrHEK4sdDOdPBssLk68cQ9bbZ8hPjoOosmrOBa+O1III6BP8jIxMMXRnV0IaHe/ecwhLlq6Fj+8sDB4yHp26cGLfWRQK9eq3kYkdJ3g//9pYJvg2T9xLy6+qBrr0ST6PiRNNqsUIIlge1LffCEya4ouw8MXYtn2PGHmzJIuKHHZAJLTipPrrRcGssoi4A8xiMwApm01MRmSkUVSHp89cEP+p4FnzpKyrZ+8hJbC2szQgIMCgQor55cwc1/dNsMVjoa8cFUOEK/UbMte7ol2H3ujRayjGjPMSZdmGjTuk6ye7IH78GIn4+ETpgMhyW173rrDUBJjFmBNoaX5+TSQfmBOOfPA+9udfbAjQAZ26eGDw0HHYsXOflHxn5+S4wtCpY1ARUBFQEVARqCERUDCrhgyUpYdZlMfOhlHIeH4XCWf3ShmVYfZIRPoPRKSUGqpyQ/eGNgrKfTu+OsjqC4PfABhCRsG8MgAJJ7aLxxy95gqzM8FyXbW4RwR0NVZ+/meZ4HJyf/fuQ/EKWrV6IwKDwjFy9FR07zFYOrVRCcIJnaYS+doXyHYQpU/S7fFcpmBhlzita9yff7UQAKdNCMfDxzcYS5evBb2/qFyhqXJiYpJ0P9T9tPQRVjBLjwREyfbfjdtYvWYjxoyZKub+BD3OhDwcb6rxGjftJMrBrVt34/bt++IbxbHTFz3Xs7OzkZCQiFev3+LatRuidFmwaCWmTAuQpgUsIWMHzT/qtsAvJQBLzyl75Ke9tqEfk/7MMShVJjZoK1CLSi2a1c9bsBw7du4XvyV2ZIyOiQPBtWYSr/nH6XFyxnNNgFnauGkeZ3rMHf3MMaXqlf84IKQcOHiMdIulf6GCWY7JVMJudgfNyMj45sH3+blaVARUBFQEamIEFMyqiaP2nWMupglwdgZyjB+QeucS4vavgWnBFBjEO8sDkd59SwzhFfT4FnqomLhnTPoIyGV5oSFoCEw0fd+1FMnXTyPr40vNK6ugxCvrO9eW+sj1I6ApsYplMksvHXYpNEdFS6nV9h37MGv2fAwfOUnK9FhKyE6ChBacLHOCxUmcXUuq7KDM+hYSlE08CeBopl2vQRvQ94ilY/0GjERAYBg2bdqBCxev4tWrt6JaIQAh0NIXBbP0SNRMmCW5XlyMzyWNDGJj4/HixWucPn0BK1dtELDZb8AotO/YRxQwVPSVqQ2pxGIeuQao/dFx8Lpkrv9KZeLfrcWkno0Z+vYfiWnegVi8ZDWOHjuNBw+fipeWbhJPmMQ4OWupOTCr+vJAB2XMRfoB0qNr0NCxSpllhySlV2JERASuXbuGHTt2YPbs2RgzZgw6d+5s8WPy5MkICwvDvn37cPv2bcTFxcnvUzscntqEioCKgIqAQyKgYJZDwurEjbJbV0EBPicnIPP1YySe34+o9SEwzZ0Ew4z+MEz3UDCrnH+Se8IbBeW+HFeWF/ZF5Iz+MIaMErViwtk9SH9+D3nxUcory4m3K3vvmpPHz58LSk3eX7x8g8tXr0upla/fbPHeoecUJ/ZUN/GhGVvXnIn9FxP/0s6JVGo1FjDXoHE79O47DNO8AgRqnDh5VusEFxsnXeD0mCuYpUeiZsIs5joVSBmZmaLWevjoKQ4dPoFFi1dh/ARv8X9r1LSDdNz8vy/yXAe21QcwvsjZKgA0ASGEzr80EoVZg8btBUzTRDw0fBF27NqPf6/fwocPEUhOTikxhy8DuGUjXj2vFMyqOMc4jjrM6tCpN4YOHy9NOJQyy7q85PX/7t07AU9eXl4WAytr4BbX7dOnjwCuCxcuICUlxamA2LoIqbVVBFQEakMEFMxyt1GWTmxFKMhMQ25UBNIeXEPC0S2IWhUIQ8BAzTtLdTZURvC1BuhRldVXg7h+A2AKn4D4w5uQ/vgmcqIiUJCZrryy3OgeSOURfYNiYuOlgxuNr2fOmiet4KlaonqpvE8QJ1X2mmg7dzsNBMpRYUavISrO2rbviWEjJokabe++w3jw8AnS0tJLR5swiyWIt27fx6bNOzBsxAT8/CtLGLkt58WF+//51wbim9SrzxCs37AVt+/cFz+dvPz80uO354ua6Jmle2RFRcXI2O7afRDePsHSiZPG6fRV+61OM+m4KU0KapAS6/vXUgPwfNgRkefHUjWqLLv3GIgx4zzFIP7M2Ut4+/aDNHzghN9Zi4JZCmbZO/d43b9+/Rrr1q2Dh4eHwwDW94CXr6+vqL9Y2qwWFQEVARUBZ0dAwSxnj4Aj9l9cDHpnfU5JRNaHF0i9eR6xu5aKKsUQMBiG6f1UuWGtgTm1WaVVUl5IRWLgEBhDxyJq9UwkXzmO7Ig3+JyajOLP+YATy1AccfnXxm1qiiytW2FEpBE3b90DAc7skAUlfkE9pTsXQU+ZN5bzgM33J+sVTwB//B0NQlFtRqhFaNemXQ8xV54VskDi8eTpS8TFJQjwy8zMQoLArHsCs4YOVzCrJnhmEV6lp2cImDQazQIjaZ7tHxCGHr2GSIe43+s013yxfm0k4OfHuWNrzjnxeyVm8byeqfKp35B+Wr0wboK3lB2ePHUebPgQGxcvvnm8R1T3omBWxfmhlFnWZyL/+cDyQU9PT6cArIrg1vDhw7F//36kpaVZf0LqGyoCKgIqAnaKgIJZdgqkq22GndmK8nKQnxCNrLdPkXhqJ8yLvWAMHQ2DPxVa/RXQUkDLzRVqWnkhAa4pbByi18xE/KENSH9yS66LwpwsFBcVKpjlajcvG46H6ov0jAy8//BJzKDXrd8KT58gePQfKZ3QqN7Q/II0k3e3nNxL+ZZWQsbJIoEWPWnatOuJAYPGwj8wDPQNozE8jbLpJ8aynjt3H2DL1l0YNmKiUmbVAAN4k8kM+mNFRBjFC27T5p2YONkX//QcLGbx7AD4E5sZsEOhExV21XWNMdfpd0dQrXkw9cGw4ZOkuyeB9t17j0AA+PnzZxvuLFX7ioJZCmZVLYMg3WgvXrxotfdVRfDJUe/Rl+vMmTOgZ5daVARUBFQEqjsCCmZVd8Sra3/0ziosEHPrnOhIpNw4h5htC2FeMh3GWSMEaCkz+NqsWnL/czf4eIhPHH2yzEt8pBkCrwOqsgrSU0pUWdX/3/rqugW4+340s/cisGMh/XHevHmP8xeuYvXazfCePhM9+wyF7o+lg6wyk/eKJ1nVNQF37H40oMVyPc2Xpi3YyU4HWtu278X9+4/x8VMkzFExomLbum03RoyaJDCLcIAPxx5j5fFXZYZabDgGejfDqdP8sW37Hty6dQ8fPnzC69fvBGRx3Hz9QtCl2wDpaqmX0JaCLCeOY3XmD2OlK7TYsZEKrWEjJ2F26ALs2XtI1GsEWlQjVqchvIJZFV/nHC/t3tQGyjOr4t/UzJ0nT564lBLrRzAsJCQEZrO54hNS76oIqAioCDgoAgpmOSiwLrFZlhvm56IgLRmZrx4i4exeRG+aC1PYeBgChmim2F593Fyd4/7Q5kuzc3W+Wjz6iPqQKkQ2P4heH4Kky0eQ/fEl8pPjpQxXVFkucaGqg7AlApyUEmSxc9mnTwacPXdZDM+nTPVDz95DpeMZJ/e6yXt1Tq5dZV+Ed7/+3gR//d1awF4fjxEICArHwUPHcPvOA7x7/wnX/7stncRGjJpc2tFRwaxeUqbJ+DlrLMvDLE/vQOzavR83btzB8+evZMx27zkIP/9Q9OozTHyj9I6czjpeZ++X8eJ4EWpRnaaV2I4HS2zpJ3bn7kPpbFpYjeWGCmYpmGXL77bMzExs2bLFZcoJfwSxyn/O0sNbt25VKzS2JcbqOyoCKgLuEwEFs9xnLCs8k+KCzyjMydTM4B/fFPNrqlSMs0dpk312eVPldioGbpUDJabvLKcNHoGoZTMQt2cF0h/9JyCrMDtTM31XXlkV3jNc/U1CLE5Ic/PykJycivcfInDlynWsXLURBFk9eg1G85ZdBUaww58GZpynNHKFST6BFkstW7TqhsFDx2Pu/KXYt/+wqHtOn7kgZYbDR06W0kRnq9eUMutbZRZhFn2xzp27jCtX/8O+/UcwZ+5SMXtnUwOqXJjnWq5XDBCcnYfVsX89Br/+3ljyvX1HreSQ3nm7dh8QgMvS2pycHNBI29EqLQWzKs5FjpNSZlX8m/bjx4/w8fGpkSBLh1rsfnj16lUw/9WiIqAioCLg6AgomOXoCDt5+8VFRVJORXVWXpxZzK+j186Gac5EGPwGal3eVHdDB8IsKt80I/JIxll/iCJOqeIcA1LpleUBQ+BQGMMnIHpjGBJP7UL2p1clHln8A6vYyVem2r2tESiiIuvzZ6SlZ8BgNOPf67ewadNOTJw0HZ26eIBlRr/+3rREkVV7IVZ5eMDJIyHVL781EYXW8JGTMGfeErDbIxU+9BgbOnyiqLiobHGmIknBrIpgVhC2bduDg4eOC8hasGildO5r3KyjS6jpyueaa7wm2GuIOnVbokWr7hg4eCwCZ4Zj/4GjePfug3TxpL8PgZYjFwWzFMyyNL+YKzdu3ACVTToUqsnPBFo0rHc0MLY0vmo9FQEVAfeNgIJZ7ju22pkVF6G4sFDKqgqz0kWdErd3FaJW+MM4ezQMAYNUuaEDVUmG6R6aAo4d9fwGiIeTga9LO0qqskC7Ay1vlhj2k+6F5uV+YvqeevsicmOMJWbvCmTV5NsejZwzMjMFZLFrIRVZEyZOR9fuA9G4aUfxGWJp4f9+UiCrPFjQgFYjKTls3fYfMXwPDV+E8LlLEBK6AH37jZDYUcWlYJZrlBnS1LxRk44CapevWI8lS1cjNGyhdOzr3mMQ/qrfutYYvZfPZUteM98JbxkjesYNGjIOIWELBQg+evQUqalpyM3Nc+hkW8EsBbMs+V1LqHrq1CkQANVkgPX1sRPMvXjxwpIQqHVUBFQEVARsjoCCWTaHrmZ+MfPdcySc2YuYLQtgmj8FxpnDYJjOUkOlEnIIVJkxAOymxzgbg4dr8Q4YXNJRsp8DFWG1F5IZfPoKNDQvmIKYLfOQdPkwst4+w+eUpJp50aqjLo0A/8ubnZ2D+IREPHz0FHv3HcHYcd7SsfCvv9vg1z+aKUWWdDWsfBLJST4fzVp0weCh4zB67DRMmOSDbv8MQN16LfHbHwpm0UBc81tzrmcWS7EaNGoP+pnNDpmPqZ7+UibasXNfNGzSAb/V0coLLYE7tXUdKrT+rNcSzVt1E6A1M3gujh47BaPJjNS0dBQUFKKoyDH/4FAwq/L7kCoz1H6tEWQdPnzY7UCWDrZmz56NlJSU0t/h6oWKgIqAioC9I6Bglr0j6uLby42ORNq9a4g7vBFRKwPATm8Cs1SpoR3BEsvc+gqwMoaMhnnBVPFtMq8MQNQKP5gXesIYOgbGwKGiIOK6CibaC7710Upn/QbAvNQXsftXI+3eFSmxpVeWWmpuBAiyODmMiY3Do8dPxQMnIDAM//QcIqWFv9dpLubPnLzW1om7Jeetwyyawrdp1xMEI1269Qe9l6gEopE417FkW45YR5UZlgEAjsWff7VA5679BGKxsQF9oKhApMk5S0L/58SxcsT4232bPzeQsmPCbq2r5xgsXLwSV6/dwNu3H0ShlZeX75Abo4JZZblcflx5f1EwC1LmWp0gi8ovX19fBAUFlT68vb0drga7dOmSQ64vtVEVARUBFQFGQMGsWpYHn1MSkfXhpXR2o2rFNGeCTP4NPkqZZQ9llkAs334wBAwUUBi1zBcxm+Yidu8qxB9Yj7j9axCzdQFY/makb1ngEK38cLoHIr2VGX/VxkDzJDNQDRc4DFFrZiHh5E5kvHqEwqwMsBmCWmpuBAoKCkSV9fLVGxw7fhrBs+aid99hJRBGA1nOLI8rP1lz9decTLKckOqjuvVaSenhH3+2kLIsrfujglnOVmYxh5jPHKeGjdujZetuaNSkg4wVoSNBljOho6vneNnxaf5ZLDmsW681mjbvgvETfbBh43ZcvfofDAaT+O8RPNnb30fBLAWzKvuNy1yjp5SjSgsnT56MHTt24PHjx0hNTQV/f1a28FiysrLw4cMHUYlNnDjRboDr0KFDDvemq+y81PsqAioCtSMCCmbVjnEuPUuqU/Lio5F65xLi9q2CebGX5pslMEUBLdthSglI8RsAY/AImOZNQvTaYPFrSrp8FCm3LyLt/jWk3r2CpKsnBLIQarHU08DOkgE04++nGcQ70MPL9vOzl3LKUdspif90DxiDhkmDg9jti5F09TiyI96g6HOeZv5eeiWoFzUtAvS4+fgpEmfPXcay5WsxcvRUMTMnjNHUREqRVTaBr3gSWf5zghLGjbCED3Z+1ECWc+OolFllY0dYRWhFsMZulFRjUdGiQFZZjMrndGWvqdbk47c/mgm8pd/YNM8AbN26G3fvPUJUVAyoziostG/3NQWzKh4npcyCeEnZ2+ydEOr48eNITEysEphl3hoMBqxbt65KsE2BrJr2V5Y6XhWBmhkBBbNq5rjZfNTFn/NRkJmGjOd3kXBiO6JWBwl8EXNyVe5mc6mhdM+jImjWCNCriR304o9sQsrtC8h69wzZxg9giWeO+ROy3r9A+tPbSDy3D9Eb58C8xEcr9wwYImWHSqFlC/AizOpbYvw+Rso64w9tQNq9q8iNMYBdPVUHQ5tvG079oj4hjDSYcP2/21i/YRumeQWga3d6PLUSEKMUWRVPGiub3Ovvc1KpPbTJPk3z+bP+uTOeFcz6ciw5Hjp0JMRirjt7jJyRF1XfZ5lCq0mzTuj2z0DMDlmAo8dO4/mL10hJSUV+vn3Vu/q9i9vfvmOveNM1bNxOGi1o5dDOvdaqHtMvc9XS7TF/a3OZYVRUFLy8vOymfvL09MT9+/fBDp32XKjYio2NxZIlS6w6VqrNWD7p6G6h9jxXtS0VARWBmhsBBbNq7tjZdOSc1Bfl5yHz/XMkXTqC6M3zYJrLcrfBmteQ8s6yEmiVKIL8B8IQPEKUbjEbw5BwYgdS714WVVB+cgLYSbIwJwtUxn1OTUZerEmAVsKZPYjZvhjmpdNhChurqeR8+yuFltXqtBKfshn9RBUXs2mOwMKMFw+QnxRb0sXQpktGfclJEeAf0nzwD/TMzCw8ePgEO3buQ0BQGPp4DBcD819/11Qqlk6i1HoVTz45uXQVQKJg1rdjxLHR1ViuMk4181pqIDDwjz+bo2HjDtL8YMWqDbh46Ro+RRiQkWFfX0UFs77NZeYNc7i2wqzc3FysXbvWKjikm6l//ezh4SFKLG7TkQvz+ObNmxgzZswPj1uBLEeOhNq2ioCKQEURUDCroqi4+XvFhQXIMX5Ayq0LiGWp4VJfGGeNgMFX921S5YaWluOJIsu3H4yzR8K0cCqiN81BwvGtSLt/VWJMcEU1nKYM0hKL3k0EW1QMZTy/h8QL+xG7fSGils+AMXS05qMlJYfKQ8vScaCBvu5XZl7sKSW0KdfPIPvTa4GHbn5Ju+XpEWTxP7vp6Rkwm6Nx5uxFhM9djKHDJ6J5y66iytLKh2qnuqFmwoSKJ7flz0XBrIpjpCBWxXEpnzuWvNbBIEsO/+k5GD6+M7Ft+x7cufsQ8fGJ0mSC9x57LApmVTxmOsyqV781OnTqjaHDx2Pnrv1ITEpGdk6OPULvkttgXtnLJyskJARms7laz5P7o3n811BN/1mBrGodDrUzFQEVgZIIKJhVC1OhuKiwRBl0CwkndyBqfQhMoWPKlbgpmPVjiFKiyJrRX1RtZoKsDaGIP74NqfeuINf8CUW5OZrpOP8wLv/HMRUnhQUoys1GQXoKMl7cR+LZvYjZvkgrOSTQotLLx0N1ObRYoUWY5SHqQprus4Q27eF1yXOav6ul5kWAE0Ga1kbHxOLho6fYtHknxk3wku57f/zp/K57lkycv12H4K384+vJnqWfuS/AUzDr65xw1M8V55oOiDkO+oPw4UuYVv67+mtHHaf9t8tSTXrEtWjVDR79RyIkdAEOHzmJDx8jRAlKiG4PoKVgVsVjx1yiT19tg1n2Ki/cvn07cpwE/ZKSkhAWFvYN0FIgq+b9jaWOWEXAXSKgYJa7jKQV50GVUH5yHLLePkPy5aOI2bEYpjnjFcyyGJz0ljJAA83GZw7TzN43hgtAIcjKMb5HQUbqD0ZEA1wCFuPM4mGWdOGAlByalkwX761IvwGiNqLq6MdwzRafKXf5TolfFmGWb39ErQpC0qVDyHz1CJ9TkgQq/mAw1McuGIGCwkLk5ubh5au3OHDwKGYGz0HP3kNAvxvdN+jLCXbFE6dvgZJz1tOBgAYLNN8j/b0vAZcOB7RnfZ2y72n+Vvr7rnJ+9joOBbMcm5963nyZT3quNZQmACxp/PlXAp+yB8dFG2MNbH35fd3HS1/HsedQ1VzTYtBQOkO2adcD4yd6Y/WaTbh77yGSkpLlvqNgluPGkPHXYFYbdOjUB4OHjnN7ZRYB6c6dO7+BQLqqydLnAwcO4PNn+3q7Wfvrn90RywMtBbKsjaBaX0VARcCeEVAwy57RrCnbKi4WRVCO6YN0NYw/sFaADOGMZj6u4Ml34ZF3H1EAGfz6wzRnAqLXzUL8cSqB/kOOOUJTZBUWWpYNxcUoysuRUriMlw+RePEQoqXL4WQBZYYZ/RTQ+i5kZK6WwKzp/RE5YwCi1s1Gyn/npMSwMDtLU8dZNhpqLReJACeS/IOdXlnX/r2JWSHzZMIj5YV/t8L//dIQ/3OyUbk1E2pO3gjg5EET7xIjbw3KfQmn9Il2eVigfZeAoXFp10Htu18rZhw3AbXmfKuyroJZjhlDLa/0PKSRfNlDzzW+xxzTDOfZ6ZKvG8lDy0Et3/R8/KmkA6beBZPb0cCsY86hKnlV0Xd5rnXrtUbvvsMRGBSO4yfO4N27D+KdRVVVVYGWUmZVnAflYVb7jr0xeOh48UN05zLD9+/fo6rdC12pO6DJZBITewWyXOSPJnUYKgK1OAIKZtXGwS8uAkuv8uLMSH9yEwnHtsK0YCoMpT5NCmZVDLNKStlm9NcUWXMmIEovLbx7GTmG9yhIS9b8scqXFf4gx6jOoil/bowRGc/uinF5zLaFYiYvXmYsOfTtVwIa3UVNZa/z0EFWP600M2g4YrYu1LoYstQzn35lFoLFH4yT+rh6IsAJIE3fk5NTEBFhxP4DRzF2vCc6d+2HevXbiHEwJ0OuO2luoIE2Me1uKGCgTt3m+LtBGzRr0Rlt2/eUc6FfD43s+w0YhYGDx8qEjpO6QUPGyYPv9R84RsqgevcdJv4+Xbr1R7sOvcUzrH7DtvjzrxayfXcyB1cwq2IAUBGMseQ9XiuET1RZUQ3z19+t0bhpJ7Rp1xOduvRDz95D0bffSMnBIcMmYPjIyRgxagpGjtYfkzF85EQMGz5BcnTAoDGyPr/XtftAyUeW69VvyC59LUq7i5aBLddVazEuv9VpBgKV0eOmYdWajbj27w3ExsWLX5+CWfbNRearBlUblhjAt5X84b2O3R7dFWbxHzMbNmyokiqLpvGONnq39jf83bt3cerUKdW10NrAqfVVBFQE7BoBBbPsGs4asjFRA+Xic0oiMl89FL8m02IfKdESnyZvZTxeIcyiIsu3n3hkGedORNTaWYg/tg1pj/7TQFZGmkApW7KApZ8FmekCGOmhlXSZnSbnwjR/imbOT6AlyjkFGr8cG72LYX8Yg60DKAEAACAASURBVIbBFDYBcXtXIuPZHeTFRVkNFm0ZO/Ud+0aAPlnsKhYRYcCNm3exbPk6mXA3a9EFNG2mmsKVQZaucqF67Jffm6DOXy3QqGkHtOvQEx79R2DsOE9M952FkNCFWLx0tZQ3bdy0A1u37cGOnftlUsfX9Ahbt24rVqxcj4WLVyIkbCF8/WZj7HgvePQfJRPwJs06CtAipChTx7guPLAEviiYZT+AQHCglQo2EpUV4WfL1t2kXHfk6Knw8Q1G+NwlWLFyAzZv3oXtO/Zhz97DApAPHDyGg4eOSYnv3n2HsHvPAcnNDRu3Y/nKDZgzbyn8A8MwYdJ0DBoyFp26eKBh4/b486+WArR4nbo60GJ8qEJj6XKPXoMxfUYwdu05IJ0NCSAI1quy1BRllgaY9PJRxz8LRPyjmfxzol2HXug/cDS2bXdfmPXu3TsMHjzYZpjFkj6W9qlFRUBFQEVAReDbCCiY9W1M3P8dGpB/zkdBRhqy3j8X36yo5f6I9B+MyOn9lfH4N2VtJYos/4HStdC8cApiNoVLaWFqiSIrPzlBQBaN3a1eSgziqc7imORGRYiHVgJN4bctAj20xKA/YLAAR81DS0EtDWqVlHxybEJGwbzIC3GHNiDz5QPkJ8ZoxvtWqOSsHjv1BbtHgD5Z7Cp2/8Fj7Nl7CL4zZst/76lEKpsg22/CbwlgsWwdgoPG+L1OM/BYWRJJNRkNpseM94Sv3ywBAPTmITQ4dPgEzpy9hMtXruO/G3dw+8598exhV7Vbt+/Le9eu3cDFS9dw+sxFHD5yQnxl1qzdjLnzlmL6jFkYM84T/QeOAhVbLVt3F3UMW97rSi3Ljtu1Yqlgln3Gg5CmTt0WaNi4A1q1+Qdduw8Q9dXkqTMwa/Z8LF+5XuDU0WOnceHiNQHHzL0HD5/g4aNnePzkBR4/eY4nT5/j0eNncj3y8+v/3Zb1jx0/Ldfn+g3bBLb6BYQIaCWY6Nq9P1q16Y6/G7TF73Wal7tuXQu0arCvEf76uxXonTVsxEQsWrxSzpXK0Ny8PBRWodzQ1WEWz5+q0abNO4NQifcr5kn3HoMc+qAqlWrTfgNGS87M8A+REs/U1DTxK7P7LxUnbpA5sGvXLptBlpeXF1jSpxYVARUBFQEVgYojoGBWxXFx+3dZelWYnSmKopT/ziJqzSwYZw7XSrVUueGXhutUZM0YAGPwCOhdCxOOb9M8slhaWAVF1teJVlxYqCm0Ys1IZ8nhhYOQksMl3gJrDAGDlELrC9hImNUPhoCBMIWPg3mFP+JP7EDWu2f4nJzwdXjVzzUgAllZ2TAYTDh/4QrmzF2MIUPHo1GTjvjjz+ZfdVSzz6TfPsCHpVyNSkEWSwEJsSZP8UNo2CKsW79FFC5nz10WSMXujDS2//gxEiZzNGJi4xAXn4CExCTtkZCEmJg4REXFINJgki5rXJ/f++/GbYFg+/YfBsFW2JxFmOrpL6CC5VJ167XC73U0oEUFBCes9jnH6om3gllViTPHWisr1EEWSwkHDxkP7+kzsWDhcmzeshMEUfSie/DwKV6/fofISKOU1jH/UlJSkZKahtS0dKSVPAgZCHcSE5MQHRMn1+ebt+8Fdt28dQ8XLl6V/KZqi0qvqZ4BGDBotKgHGzRqLyVlrghYeW1oKqGmaNCorUBhn+nBOH/hqlx3aekZUvJsa7mhq8MsnjvVdPQMGz3WE57eQfD1C0FAUBgCZ4Y75BEQFA4+Zs6ah9mhC7FoyWoQiFKFS0UuS8zdaYmLixNvKUsN3suvRz+qa9euVdm7zZ3iaY9zoRl/eno66GN2//59HDlyBPQjq+jB+L98+RLs4kjVuFqqHgF24oyIiMDt27crjDnHgZ9xfDIyMqqskK36EdtnC8wfKixfv3793XPn+TPvnj9/Dt4/3O2eaJ9ofrkVBbO+jEft+Ymlhvm5YlieevsiojfOgTF0LAwBQ2CYQXUWSw1ru/qnxI/Jb4CmyFrkiehNcxBPkHXvCnLNEeKRRUWVTYqsr7OtvEKLJYcEWs/vax5a2xchapkvTGEco0HlFFr28p6qoduR0s/+UvppmjdJzN8Tz+1D9seXUkb7dYjVz64bAU4YCwsKkZKcihcvXmP3noOYMNFHypfo8/Pr701dDszok2Gqsejn1brtP+jVZyjGT/SRMkJO7k+cPCdKq9dv3kn5ktkcjbi4BPGHISRIT88EAV52djayc3Kk5Xp2do68RwN8Tqi5Hv1k+D0Cro+fIvH8xWsQJJw6fQFbtu7CnLlLJF49eg5G67Y9RKWle2oRENUUoKVglq0wi+VhDUUJRX82erP18RiBKdP8MW/+clH1ETrdf/AIBFEGo1kAVlJSCtLTMyTfOMmgMpKPvLz80of+Hj9nrjInk1NSRUHJfKS3HWHrvfuPRUXIfAwLXyTXAb21qBqkSouqwZ9+dT3AStCmlWB2x6jRU6XkjedCcMdrkVDKlsWVYRbvXTxvKtI8vQOxeMlqbNu+B/v2H8HhIydx5Ogphzy0bWvbp+H+ufNX8O/1W3j/4ZPkHUGDOy0XLlywWZW1ZMkS+b3gTvFwxrkwp4xGI44fP47g4GAQEpaHhta8njFjBvbt2weWjroa3OL9+dWrVwJBCELs/Xjz5o1NnTR5H6S6cP/+/Zg8ebLVsWfjhPXr18v51CSww/xgnjBfmDfW5NnX6zJu9N17/PixuidUcBNRMKuCoNSWt1hqmBdrQur9a4jZthjGORPFd8jgN0DBLFH/0COrP4zBw2FeMAXRNHs/ugWpd6+Ioq0wJ1vzZHJAwmim8PnIT4xF2pNbSDy3F7HbF8K8dDoMs0ci0n9gCWys5cCxFGYNkSYG0VvmI+nyUeREvhXQ6IChUZt0UAQKC4uQl5snsOb27fviFfVPz0HQlB3NSjyhXAnKaGosTtBZVti2fS9RR3n7zsSyFetw8NBx3Lx1Fx8/RQiM4h90fNiq8igfdm4nLy9PAFdEpAF37j4Ay8XofeTtM1OUOO079kHjph2l1IwlZzVFoaVglvUwS4eqLHOlETtLxthMgCW6a9ZsFqD66PFzubaoSOCEgDlkj0UgdCGbNnwW0EWV1917D6WMln53Xj4zpZysdbse+Lshyw411aArwVXGj9cIY0eVEuEfIfH795/k2uW9yZaFMeZEmuCZBucTJvmgYWMa5VNl6tzOj/o5d/tnIBYuWoVjx8/g7r1HeP7iDd69/4T3HyIc8uC29Qfjy3whECWwZ6zslZe2jJe9v0O4QCD19cTUkp/pscWJsFpsj0BCQgIOHz6MiRMn2jQGPxonDw8PbNy4EQaDwSXyNioqyiZY9KPz1D8PDAxEWlqaxQPCa5lwLTw83G7xHzNmjDQdcLVmCHpQeM5UXq1btw7MDz129nwmjF24cKHAPXeD/3ocrX1WMMvaiLnR+sUFn7WOho9vIHb3CpgXekopnYFm40qZhUgfD0T6D4KRip+SroVUZOWYP0lpYTElxw70Y2LJYWF2FvLio0BT+MTz+xGzfRHMizxhmDVCM6OXcaqhqqovygVtPAe9BDRoKEyLvRGzaxmS/z2FbOMHFKSnuNHV6v6nokmw0/D6zXucPHVefH3ou8OJn6uVy+nwgCCLiqyOnT0wasxUzJ2/DIcOH5eSGU7UomNiRcVClQsn/fYAWcwEDSAUiqdPekaGlClS2UDfLaodFi9ZhfETvMX3hubWLDljDF0JIFR2LApmWQ+zOLZULtap21I6FI4d54WFi1aKwoaAgsCAJYRUVekgy165WJaPRaJUYD6yGyCvY3rB0feOqsGhwycIZCtVaLlQPupghwrQDp36YvJUP7ApA/3DqIa0VYHh6jCLjSPoXcVz5Vh9ijDI+RIs6SWmjn7WVYH2vke6wm9MllJx8m3LRJYqDDYhUIv1EWBpFmFCVRRY1o4ZgQ3BjTNhrKNhFtVB3IclS2ZmJrZs2WJT7lsSe09PTzx9+tRuf1NZck7fW4fXKktWfX19HXbOFcWFcbh161atv1comPW97HTzzwiz8hOikf70NuIOrIN5yXQYZ4+CUmb1RiQhCaFeyChErZmJuMMbkHr3kiiyinKzqy8zioukhDE/KVbGKeH0bkRvDJMuh3J8vv2+9PeyByCqSdvQYdbMYVKGGbt/DVJunpfy2c/pqvtP9SVq1ffEUqao6FjcvvNAynw4oaRSQlMwWD/BrwyWVPV9TnxZnsPSQvrNUAE1asw0LFy8CidOnpUSLnoLVafKgH9A6zCQ5WMs3Vm2fC0mT5kBqtto8PzHn1S3uT7QUjDLulzn9cF8JCRq1aaHeB+xZOzU6fN48/aDeGBV/eq0bgvMx5zcXMQnJOLZ81fi0cWyQxqst2nXU45V68DpKvmoXdME5+ya2sdjOGaHLsCVq//BaDRLuaUt8M+VYZYGQBuj34CR2LX7IJ48eSFKT5re23Ku1mVI7Vj73LlzNk1slSrLtvygWufAgQMOU8RUBBO+fo9KPMI0ZyyOhlk8V6qOfrTwOIKCgmzK/a/j+b2fCStPnjzpVJDDe+XHjx8REhLi8PP9Xiy4fx5Hbb13K5j1o6vSjT8XmJUYg4zn9xB/eBOiVgTAGDpGgzhUJdVKz6w+iPTpqxm+h4yGeakv4g6uB33FsiPe4HNqEhi3alvER6sIBVnpyI0xIJ0lh2d2S8mjIWgYDH4lKjrvWupxpsMsloIun4H4gxuQcucScqMNKMi0XA5dbeOpdlRpBKgaefvuA06fuYAFC1dgyLAJonrSAIyrlBdqbetZKkXFE/2xPL0CxYidE1+qUehtRf8rTmSr6w8L7of7IxCk0oFlPOw6t3XbbvgHhooZfbMWnQXAObu86UcwUcEsS2GW5pHF8rjf6jQFO9FN8wrE2nVbpNvgi5dvJBcJlap7YT5+LihAVnaOqLRevnwjJvGr12zE6DFTxQevQaN2Jfmomdb/KC8c+7kWSwK2evVbS/fHSVNm4OixU6DXHb3rbCnncH2Y1UTuDSyBZHOJhIREEAhU132ruvOyOvdHBeSqVatsmuAuW7ZMxqE6j7cm74v5SrNwHx8fm+L9PUhgy2dU4928ebPaVVrVAbOuX7/+3VShNxY7cNoSN1u/Q8N0W+7P3z0RCz7kvZJ+WNWpAPxejHgcPB5XLcG0IKQ2r6Jgls2hq/lfpGl5flIcMl8+QPyxrYhaHQSTmMCzYx4VP7XRj6kPInnu/oNE/RSzaS6SLx9F1ttnYihOnzFHlhZWnFXFAtAKszOQY/wg5vOxe1fBFDZe8zjzrcWG/YRZNOifNRxRK/2RcHQL0u5dRW6MUbpCVhxP9a6rRYB/jLKchWU9O3bul85rbA/Psil2CWSHNsdOZi0BCNqEl6WFjZp0QI9eQzDNK0A6cRFkmUxRApLoHVRQUFjtE0LGkH/QUaGVkZklKjcaxO/YuQ++frNFbcKukCxHY0xdTfGmj6+CWZblIsdQgy9t0LJNd4yb4C3lYpevXJful4SqnFAX2skby9p7BvOxoLBQ/rBmh0SWOl6+/K90VGRJbodOfcQPT/Nzc75Ci9cDwflvfzQDyw0HDh4nMPj+/cfSxZEedTwna5aaALP69huBrdv2iHl/fHyiNKCw9jytiUltWTc+Pt5muMJOZmqxLAL8nXf58mWnqrEqAww7d+6sVrBQHTCLasPKFnbqCwsLq1aQxdgT4lR3109e3/b0Aqssh2x5f968edJ9s7Jxcsf3Fcxyx1G18JwEZiXHIfPVQ8Sf2IGotbNgCh9f0i2vn5TaRdakkjN7HKsofWj6PgxRK/wQt38NUu9cQo7pIwqz0jXDdyv/oLVwOL67WjFVHlIWGoOMFw+QcGIHTIt9NCUdDfsJ4LxrIXwsD7NWByLh+HakPfgXuTEmBbO+m1Gu8yEnTpz0sTTv2r83xfh9+IhJoo74vY5ulGzJBN+x67C8kPCAIIumyVM9A7B6zWYpRaJZMrsSfv5cgKIi+3ljWTtKeizp30A1CbvM3bhxR7qUEWh16TYA9eqXdJVzGUj45bgpmPVlPHTIV/5Zz0X6tXXq0k9A1vKV6yUXqQ5MTk4RKMHryplggvvWgJamGKTykuWPixavwvCRk9C+Y2/UqdtczNd5TuXP0RmvtZLNxtIR8p+eg7Fk6RpcvHRNQBw7OFobS1eGWXoOsaRSh1n0B8vJUcosa++7Fa3PrmO2TESpanFWmVpF5+HK7/H3HA3eXUUZU9F4r1y5EvSPqo6lOmDWnj17KrwPEioS3lUUg+p4jx0Pqc6rjuXDhw/Vrj6zNoZUKTIfasuiYFZtGekKzrMMZj1C4qmdiFo3G6Y5E2AIHCzm4rUWjviXKH1WB0n5ZdrD61LiV5iTVUEUq+utYtAQPj85HplvnoLeWVHL/TT4SG8vemfVdpi1ijBrG7TxUjCrujKzqvvhhI/mvyZzlBi/h4QuFNUT/ahcpQsfJ370JapbrxVYzjV+og/Yqe30mYulHc/4h7W1k92qxq6y7wtEKCiUDmGfPhkEEm7YuB1jxnmJx5duwu2KJYcKZn0fZum5SPVQqzb/YMToKeKPdubsRbx99xFU11BF5Iyyi8rykdc4rw8Ca5YcHj5yEjNnzcXAwWPQtHkn1K3XUrptOh9oaepLdoWkEfzM4Lk4cPCY+H4lJCRZXTZUU2DWlm27cf8Bze6pzFIwq7I8tub948eP2zSxZ2kiFZVq+X4EeH9jeZm1k3xnrF9dQKs6YFZl+fnixQvQ680Z8dX3Sb8yWjw4cqFnGI3w9X268nNtAloKZjky61182wpmVdBBT5Q+JcqsVQGIP7QBafevITc6EoU5/O+KdWUGdksBdkIjzGJZ6CvCx10wL5sBI8tC/QfA4OuhYNaqACQc26qUWXZLuurZENveZ2Rk4u3bD9iz5xB8pgejbfte0sWQAMn5E9z6Un5Ew/fGTTti2IhJmDd/ubSyf/7idWlLeVcBWfqo8XgIEOih9eFjhPgozV+4AsNHTkbL1t3x51+uVMJZBnAUzCqLxdfqJB1ksTsljcp79xmG4FnzcObsJbx6/a5EkZUr0MWV8pHHQrBDTzeWHN67/xibNu+Ej+9MdPtngKgdWeLn/Gu9DGbRTJ++Wes3bMXNW3cFtvMcrFkUzLImWu6zLu+7a9eutWnCq0oMf5wHBFmursj6GnIwHxztZVQdMGvmzJnIyMj4YpCq4g/3dZyq8jMVelREOmpxhh9YVeLB77Lsk+Wf7r4omOXuI/yd89M8s2JLygy3I3rt7LIyw9pctjajP4xBQ2Be4o2Y7YuRcv00sj6+REF6inQWRLF1f9B+Zwgs+4ggq+AzCrOzkGv+hLSH/4rRuWn+VBhmjYBhhvLM0stC449sQurdK5oBfIYygLcswZy7Fj2eWN5Cb5p167di3HhvmahTlaWZv1c+uf96su+In3kMPBZ2VuzUxQMBgWHYs/cQHj58irj4BFGVOTeCle+dEIEeXvRPevHytRhah4YvEuN6grlffmviEjEuP24KZlWe74Q9v/3BUteOUurKbpUbN+0AoSpVT5wsuZIi6+vMJLhmPkZEGHD+wlUsX7EOY8Z5ilrwZ5e43jWYRT8ydgAdPHQc5s1fKrDw/fuP4PFbsyiYZU203GfdtLQ0BAYGWg2zqGxhCZNavh+BO3fuuHRpYWUAwtFG5dUBs6j2oV9U+eXdu3dOV2XpMXdU8wRn+YHp51WV5+oAqeXzwRmvFcxyRtRdZJ8CsxJjxQA+4dg2RK2eqQzgvfqI/5TBfyCMIWNgXhmAhFM7kf7sDvITolCUm43iosLqM4GXbobFKMrNEQN6GtEnXz2B6K0LYAgeAYP/IBjYfdGnFvpl0SOtvMeZdDPUOk/mRkWiIMP9/xvhIreSKh0GSwxZCkdvGnYxHDx0PNjpzBVAlq6EoSk0S7oGDxmP1Ws24cbNu4iNjS/xyLJuglulYNnwZU0Rkyudyl69eou9+w5j7DhPtOvQC3/WbQGWVLmGwb4GcRTMqhxm8ZqgKqtNu57iOTV/wXKcO38ZCYlJYvzPsXYlRVZF6crjo6cXc/HI0VMIC18Mj/6j8FudZlLKWx5sVv/rBvjfzw2kQUL9hm3RrfsAzPCbhX37D+P581fSodGa+CqYVVEGuP97ZrMZEydOtBpmEYARhKml8gjURHWMDiIIK58+fVr5yVXxk+qAWezUGBERUXqkvB/u37/f6lzXY2LvZ0cAYf6TyFalpb3Pz5btOcMgvzRBqumFglnVFGhX3I0YiifGIOP5PVDRErUyQDMUDxgIg49H7e1m6N1XPKiMQUNhnDsRMdsWIvH8AYlTXqxJwFJ1dTQU4/fP+eKVJSDr2knE7VuFqGUzpOMiVVmR3n1R64z6dbN/HWbNHArz0ukSm5Qb58SwvyBdwSxXvO98fUw5OTniSUNvmoCgcPTuOxz16rd2iW57hFlUZdWt1xp9+41EcPBcHDl6Eq9fv5Pui9ZMbL8+7+r6mcdI9VtWVrb4KV27dgMhoQswcNBYNGvRVcoNtfIu5xtwE14omFU5zGLZ7d8N2oiyzi8gFPsPHMXTZy9lbGtCLuo5n5NLuJqEW7fvY/OWXeJBR6UgQZ3zfdwa4P9+aSjXRctW3TBuvBc2bd6Be/cfSZmkNco3BbP0Ea9dz/QPsmXSyQkzSxTVUnEECBXoP2VLbH/0HW9vbwQFBZU+fH19HaL+8vf3d1inueqAWYwj81tf0tPTERwc/MMxoUH7mjVrcPv2bWlwwFLF8g8qElk6agsE/nps6Vdnr4W/V69evfrD8/v6GH70M323qCKjWu/rx44dO8ByTg8PD7vtl40lmB/uuiiY5a4ja8F5aTArGhnPbiP+wFpELfOFMXQ0DLUaZpX5aNFU3UhIsnAaojfPQ9L5A8h8+RCEJIRMDgdaenlhThZyDO+Q8u8pxO5eDtNiLxhnjyxXXlh2zLUOaukwSy8L3bVcykJzTB+kLNSCy0Ct4uQIsOvezVv3pMRw8hQ/0GCdRuvapLbyiX11qDa0sq6maNCoPSZP9cP2HXtx584DREfHOtz/wp7Dwj/IWCJFFdzLV28FIHj7zETX7vQr6igqOA1oOTfeCmZVHH+OjV7u2rhpB4wYNRkrVm0QwELDd06AaxLMIuRhl0N6udHvKyh4rnQ2pCKTSkFnAy3un51L2S1y4KAx0uzh+vVb0iGUHUstXRTMsjRS7rUefa9+NJmt6HN7TsLdK6La2Vy/ft1ugInQhPFm58jKADWv36SkJIEZhFsVjZkt71HJVNk+q3vcaGhu7TmU93UjhKIaqrJtMG7379+3uKkB/bcuXrxYJZBDI3j+k9Qei70AIdVRCxcuFE+vrCzLmokxR4xGI/bt2wfCwMpibOn7mzdvdltYrmCWPbK9hm6DMCsvzoz0xzcQt2cFTAunwUgPJnbH86Hap5aWrpWofqR8z28AjCGjYVoyHTG7liLx0iExYM+Lj0JRfi40/yw7m8IXF0kpY1F+nlZa+P45Um6cRdz+NYhaHVRSCjqkFqvnysG78jBr0VQpv0y6fBQ5kW9QkJZcQ6/M2nXY6RkZUmK4cNEKmaSzhKpMoVHx5L46QJYOD9j5r037ngifsxiXLv+Lt+8+iOl7TfsPOv8w50TcaIwSv6LFS1Zj6LAJaN22h4JZKan478ZtrF6zEWPGTJUSTOagK5S6MtcJszTftrbo0q0ffGfMEt825iKbJ1jr5eTsOwzBGx9R0bG4fecBVq/djFFjpqJt+57lfNycqRTUupf+Xqc5evYeItf+2XOXER+fYNUkScEsZ2eac/bPyaelE8zy6xHWqKXiCBAqUdVUPl62vGaZHGGMtb+/eS0/e/YMfn5+VT4Ggon3799XfKLV/K4tMOvAgQOlR8mcrWgcqCoilLI2ztwwfzewHNNWgDN16lRER0eXHqOtL3jsBEAVnZ817xGuxcbGVukfTlQlEr5WRa3lSnln65hU9j0FsyqLTC14v/hzPlg2l/bgGmK2LYJxzkQYZw6DwW+AglkCtPoIMBL/rNDRMC+bjpgdi5B4YT8yXtwTWMIY2hVo8Y/8okIU5eWKsign8i2Sr53QSgtX+sM0ZwIMgUNg8O1f62GjqNBKYJYhcDBM8ycjekMoki7sR/bHl8hPSawFV3HNP8XU1DScOHkOQTPnoN+AUWjesgv++LOZUzub6fCAQIPH06vvMGzYtF1M1OMTEpGXn49CKzubOXuk+AdiUVExkpJS8Oz5a+zecwjTPAPQpVt/ASXOVsPogFKVGX4LcDk2pb5tQ8dh4aKVOHf+CqJj4qSElGNbExfm4us373D4yEmEhmmNCdg11PldTPWuho1ApShLOg8dPo5Ig1G6g1oaawWzLI2U+6zHku6NGzfaNAEmWFDLtxHg/e38+fM2xbQ8dCBUSElJ+XYHVrxDqEBYSaVN+W1b+9pVVDK2wCzmN/Oc47Jnz55v4sASuqrmclXH3B5dDatqbM848Dj4e8BeC6FYeHj4NzG3NP9cJe/sFQ99Owpm6ZGobc+c2OTlIDcqAqm3LyJ6YzgMISwxHCzla5oPU+1WZpXCEt/+ApBM4eNhXuGHmJ2aQivj9WPkxZlQkJ0BDWpVcUIhZYUFKMzKQH5iDDLfPUPqzXOI3b8a0WuCYJo7EUaavgtspKdZOYVSbX1NmDXdQ0pjTeHjYF7hj4STO5D59qn4jDm8FLS23TfsdL78Q4WPgoJC8c7Zt/8IpnkFSIc2lhr99kdTp8MsTqppAt29x0CMn+SDg4eOISLSiNS0dCmR4vHXtIXHTO8skzla1FkhoQsFINat11LKqrRSQ2cqYpRnlg71yj8TZhGsdvtnIDy9A7Fl225RNCUlpwigrGl5qB9vRmYmTOYoXPv3JjZs3I5hIyaKVxVL/LRc/BbslY+LY19r3lntOvTGNK9AKTF+/uKVNFLQj/9Hzwpm/ShC7vc5y6RWrVpl9WSTE1939rSpykgn+Z6mTAAAIABJREFUJyfb1B2y/AR/586ddrMGYPnXqVOnqgS0XEUlYwvM0sv4Ksp1ejMZDIaqDHfpd9lBMDQ01OprieN+7ty50u3Y8oKqrA0bNti0b+5/9uzZ33R9tOU4KvpOZmamzd5x48aNk9LFirZbk99TMKsmj14Vjr24sBCF2SVeTNdPI2p1MAxBw7USw+keJabiCmaVAa1+AvqMoWPFaDxm1zIkXTqCjBf3kZcQLQCKMdVUWjYMjA6ycrKRnxSLzPfPkfzvKSktNK8KgGnOeNCQXkAWx6eWl4CWgbwSmCXloKNgWuSFuEMbkPHyIfISY6rH28yG4a7tXyFU4R+E9HCKiorBlq27MGbsNCkz+vOvliW+Oc6DKpxI8ziat+yKIcMmIDR8oZRCxickgebVNRFkMed43PwjjT5ld+89wspVGzB67DTxzSor7XRe3AknlDLrW4BDQ/K6f7fCwMFjET53CY6fOINXr9/KONbke0luXh6SU1LExP7Y8TOYPGWGdDIlSGaJp1OB1s8azGrV9h+MHe+FNWs3i2E971eWLgpmWRop91mPE01OZMuDFEtes3yNpXRq+TYCt27dsjqe5WNOY30qquy58O8XGneX34+1r3ft2mVX1Y4t52cLzKI5uW7eztf6eRPQlTeHt+V4vv4OS+v07VvzrKvHvt6epT/Tq4rgx5p96uuGhYWBIM6RCz3BaKiv79OaZ3f05lMwy5HZ5qrbJjj5nC9G5lnvnyPp8hFELfODwX+QlK9pfllK9VMGTHoL3GNpnzFwqHhWRS2fgdgdi5FED63Xj5EbY0ShrQqtEo8sUWQlxYJdC9mRL3bvSlGCGcPHlyv/VCDri3HxYiloX1ETskTWGDYecXtXIu3JbfGD0wBjzVPQuOqtw17HxUkeZeqEKu8/fMKq1Rtlot6sRRcpp/rpl0b430/OgiosMWogqixNlRGATVu0bmYpKakC4OwVB2dsh7En0KIR/I6d++AzfSbad+yD+g3bOR8gKJiFb9VGmvn73w3bYtwEb2mUQH8vo8ksYNUZOWSvffIekJ2djU+fInH9v9sICAxDy9bdxHid6iynepaVwCwC7aHDJ2LR4lW4cPGaHKul569glqWRcp/1OMkvP8G3dJKpAwL3iYR9zoQQil3fLI3j1+sRLFa1tLCyM+GxVaW7oo+Pj8PUO5Ud89fv2wKzdBUh4Wt5DzF2I+Q9z57Ljwzmvx5v/WddPWbLsfCffseOHbMp56hMM5lMtuzW6u+weQFzSD9nS5/nzp0LS03orT4oJ31BwSwnBd6pu5USw1x8Tk6Q7nyJZ/fCvNi7DGR50/xdwaxvYiAlbVRoDYIxZBTMi6YhdtdSJF89jsyXD5CvK7Ss7HRYXFggHlksLcz68EJAVvyh9SAwk66FATpkVCDrmzGhQs27L9h5UsYleARiti5E2v1ryDVHoCg/HwK0nHrBqZ1/HQH+wUNVFj1znj57KR5AvfoMla6Bml9OQyfDrIaiVmK3P3r5nDl7Ubx9CN8IgtxhiYgwiMInLHwx+ngMR7MWXUGI6FQ1jIJZX8EszbuJ5u+Nm3aEj28wDhw8imfPX4IlhjU9F3kfINCKi0vA06cvMH/BcvFwa9KsE/74s3mJl5tzoDavA8K0ps07o//A0QgNW4gjR0/hzRvLjZsVzHKHO6V15xAfH2/TBLMqk2/rjrBmrW0rzODEnr5W9vBO+l7ECC4IdywFCV+vR9WZMxdbYBbjSuXT1q1bSzsZshzQEWqk9PR0BAcHWx3fqsBhW8ta2dWRxvXVuTC/rfVv43HyunKnRcEsdxpNS8+FJT5ZGaWdDBOObYV5wVTNe0i6GCqQ9S00KYkJwYmPh5RjGoOHw7zUB7HbF4lCS0rb4qNRTGNES/87UQIWC9JTxCMr+fppzex9+QyYQseIFxRBjfIw+05OEjKWqLNo1h+1PgQp/51F9qdXKMzK1PzMLL021HrVEgFdkcGSnVu372N26AIQHNWr3wZlRuTOmcRSGcNj4CS2d9/hWLFyA+4/eAKzORo5Obku01K7qgPF2F+5+l9JqaEnqEL76VcFs1ynm2GZCTnL7qhYmh0yH+yq9ynCgOzsHLv/F7yqOWXt9/kfcAIfKh7fvfsopXyDh4xH2/a95F7wy2/O887SYVajJh3Rs/dQ+AeGYdfuA3j+/JXFp6lglsWhcpsV6XtlC9ygzxY9iNTyZQRsLTMjNKqOmFZFxcNjpC+TM/8pYQvM+hrIEabcuXPny4Gz00+MDctEv97nj36uSkfDJ0+eWA2IeDz0ZWP5aXUuFfmW/Sg2/LyqnmLVeY6W7EvBLEui5G7r0Hg5LRk5hvdIvXVBfJlM8yYJzIr0Vj5ZlYKsUrWaDk/6iXLKvMgTsbuXIenyUSk5/JySiKLcHBrUVJ45LPUsKgJVWfnJCciOeIOUm+cQd2Atolb6lyiyBqoxKY35d2CWV28NZtFLzLcfolYFauWfrx7ic2qyNhaVj4T6xAkR4B8oNH/++ClSvKgCgsLRsbMH6v7dGv/7mRDLmSCrgXRTa9XmHwweOl6Mnz99MoiKLD//MwoL7Sujd0L4ZZdx8Qm4d/+RnJ/39JmiiFEwayNcCWZRGcRyu3r1W6NTFw8sWrIK/924g5iYWFE0EZa4w5KenoHISCN27TqAKVP80L3HIDRs3EFKjp2lFNRhVoNG7dGl2wB4egWKSf3DR88sDrmCWRaHym1WVDDLfkNJXyAq1iyZnH+9DtUn7EZXHQvLvVhe9vUxWPKzs0sN7QGz2F2PXnGOWtg90pJYll9HL4W09pgIJ/fv319t+7P2+Cpa3xb4RkDoTIha0XlU5T0Fs6oSvRr6XUKU/OR4ZL19iuTLRxGzfRFMcyZIqZZSAH0fmpSBrpLyNv+BUnIYtcIPsTuXIunSYWS8eFDWSY9A62uoVfIefcsKc7KktDD52gnpWkizd3pksWROU2QRLirAWBb3ysaHgFGDWeZlvog/sR3pj/5DboxJVIg19FJ128POy8tDWlq6+DadOHkOvjNmo2Pnvqhbr5VTy9w4gWWZI5UwPB56FB0+cgJJScmihCkoLKyx5u9fJ1NySipevnqDQ4ePY9bseejZe4gqM1zjOjCrfC5SJdi33wisWbcF9+4/RkJikvwHmH94u8PC8l0qH48ePYXg4LlS1te0eRcpNXQ2zKpXv62oFsdP9MHyFeulcYKlMVcwy9JIuc96CmbZbyxtjSWhBn227G36XtmZ8TqnmXt5mGLNa0eXQlZ23HzfHjDrwoUL39tFlT+7du2a1bGlWuzNmzdW75teUvSUsmb8uO6BAwecppQmSCRQtOaY3a3hhIJZVqd6zf9CcVEh8mKNSH9yC/EndiB6fQiMIaMVzLJQBVQGVthJT/NqMoWPR9QyX8TuXo6ki4eQ8foxqNAirCou+FwCtDSwxZ8Lc7IFeOUY3yPlxlnE7luF6DUzta6FM4eVG4vK4I16v2wcGIsStZxff5gXe0qpZsp/Z5D96Y2os2r+VeteZ5Cbm4fk5BQ8fvwM+w8cxTSvAJkwugLM+u2PpqKE6dFrMLx8gnDu/GUxqaacu4iKSjcBCGnpGVKudubsJSxYtAIe/UcqmOViMIteWXXqNpcunyNGTcHW7Xvw5OkLKctzlzzknY0lkzExcbhw4SoWL1mNESMno0Wr7tA6bDpJpVliAE+1KFWaI0dPxYKFK3Hz1j2Lb8YKZlkcKrdZ0VYAUx0lcTUtyHfv3rVqgl5+Mk8AUp0LVWBUg5U/BktfO7O7XFVhFhVpVKY5crEFZjH2PDdrl4iICIwZM8aqceT6/J4zF2vLcV3hmO0ZLwWz7BnNGrItlrZlGz8ghSWG+1bBtGQ6jMEjYPD1UN5M1gItemhN94AhcIh4XJmXz0AMuxxe1hRaeXFmDWgVaj5a9NMqzM6U0kIq41Kun5LSQvPKABjnToQxaCgMfgOkbO5LWKPg1ffjUVb6yZLZmE1zkHhun6aSS4ytIVdm7TlM/sc0ISERt2/fx9ZtuzFx8nS0adcTf/7V0nnKrJLJK42nGzXpIOqQoOA5uHrthsixOTF1J4CQlZWNqOhYOT+9myTL2vhwlhqGfmU//UJ1XAP8+ntj9OozBOs3bMXtO/eRmJSMPAd5ytCziR0CV7sYzGKJIa+Jbv8MwJRpfti777CoGQki3Wnh/SAxMQk3b97Fpk07QBUU7wdOhdsl9wPGn11WhwybgNDwRdJ10dL7gIJZ7pSllp2LglmWxcmStah2sRQIlV/P1hIzS46psnVsNSrncbMjItXqzliqCrNoBE8PVEcuth6jLTDLFoBanSrAyuJsS6MEnqu7LApmuctIWngeLDEsyssVs/HES4cRs3keTHMmCowhlFElbTZAIxqQzxigAa3w8WCZW+yuZUi6cAAZz+8gx/QR+QkxosTKS4iRnzNfP0HytZOI3bMCUatnwjhnggYUuR2Wy1kL1dT6JSbwHjCGjpYxiDu4Hmn3riA3OlLraFjsHv4yFl7qLr1adnY2YmPjce3fm2L6PGacp6gfXEKJUa8lWrTqimEjJ2HOvKW4eeuuQCxOYC2dxLp08EsOLocAISlZDPg3bd6J4SMnSfc4BbOmol2HXqIKYiwI2JzxIFCkSvCvv1tLt0n/wFAcPXYK795/RHqGu8GsPFGbPXz0VIDdNK9AF1Bqagb8vCexkyQ7GgYFzxX4aynYVjCrJtwJ7XuMCmbZJ562GlsTDjmjMyT/NtizZ49N8C0wMBBpaWn2CZyVW7EVFOnwsDqAiK3HaAvMsgWguoKZelJSElg6qI+LJc+ucNxWpmulqyuYVWlo3PMD+jQVZKQi49kdxB/bhqiVgTDOHC4wRvPLsgHmKJAiijat5HAwDLNHwrTYG9Gb5yLx3F6k3buKjBf3kfnqEdKf35ef6VXGkkTTYi+YQsdqMLEUZCmPLJtgHqGir4eo2wgHY7YtRNLlY8j+9BpF+fka0HLPy7rGnRVVQTSxvnDxKpYuW4PhoyajZWvnlhURHhBesKNi2/Y9MXa8F5YuXyceRTUuwBYcMM3sqfB59PgZdu85iLHjPAWe0DPMmRBHKbM0eMZ8pHdb/YbtMGjIOITPWQKWhH78FAF6TLnTwlykCfzLV29BD70Z/iHSEIIgz3kqQQ1mcQwaNGonQNHXbzYuXLwmSgR2rfoR3FYwy52y1LJzUTDLsjj9aK2MjAzMnDnTqsm5PoF3VtmeLaoeHvPEiRNhNpt/FBKHfG4rKOJxV5cCjqq358+fW/3g96xZbAGoLC2lKsrZC5V9VPjp14Alz4SvP/od5uzzsnT/CmZZGik3Wa8wKx15sSati+GeFTAv9ITBX3XNswmefAHxaAhPmNIPkSWm8KaF0xCzKRyx+1Yj4cR2JJzaKcbksfvXiCLOvNQXhlkjYQgYAoNv/xJFlgJZto+FVmoYyTLNoGGIWhOMhJM7BCQWpKeiKN85Mm43uXXY9TR0w+fTZy5i3vxl0jWwectu+OPPFk6bvOowi/CAneOmTPPH2nVb8MiK7mV2DZKDN8bSgOycXLx48VpM4CdPmYG/6rUSoKXBLOd4FSmY9SXMati4PUaOnoJly9fi0uV/EWkwgjDYnRbpbpqRifcfPgksCpw5B5269BNVmrM7m5b30PP0DhKgyImDDrO+NxlQMMudstSyc1Ewy7I4/WgtW+PISbyzDNVt8VvSocOLFy9+FBKHfF4VmEWjdBqmu8tiC0B1pqqufNxtUQa6k0+fglnls6EWvKYpedb750i6eBDRG8NhChuv+TN5K4hiO0Qpr2ZjHDWoZQgYCEPwCBjDJ8C02AeEV+YlPjBKWecwCHSZoSCWfeKuj0FJl8np/UQdF7t3pZQa5idEi3dZLbjEa8QpEmYZjVE4dvw0ZocswICBY6B1L3M2zGokflndewyCz/RgbNmyC0+fvawRMbX2IAsLi0BFzNu3H3Dy1Hl4+wShYaP2Ul5Hddb//cwSu+oHWgpmfQmzGjXpiAkTfbB+wzbx9WLXP7asd6eFMIuTIoPBJJ5Us2bPR5du/UUl6Ywc1MtKCbhpwv/nXy3QtfsATJ7qJ9cKy6R5zD8qN1Qwy52y1LJzsRXCuBsYsCxala9lK2RxprE1SwUJN3RAZc1zdRvW65G3Nc48N3dS9jAe0dHRmDp1qlXj50pAyFoTeHe65yiYpV/RteQ5x/wJKbcvIf7gekSt8INx9sgSs3EFs+wHVcqAisF/EAxBw2EIGQ1j6FgxiafZvoAsdkL06at8yr5QuOlQyvZnxpT+bzSCJ7BNvHAA9CgjyFWLa0QgIyMTBqMZR46eRNDMOfDoPwpNmnXG73WaO1mZ1QiNm3ZCrz7DEBAULuV3L19a397ZNaL8/aMoKipGQWEhPn6KxLnzV+DnHyJG1zTdLis1VDBLBxvV/ayXGdKviebvbJRw6/Y9RMfEVlvL+e9nkP0+pUqQgC46OhZ37z5EWPhigUcs+dVgVvXnIcdbh1lsCtGpS18xpieAJ4zPy8tXMMt+KeA2W4qPj4ePj49VE2KCAZbUURmiFi0CVFdZA4P0dekbRP8gZyy8h9GvSz8Wa57p1eSMpSowy1kAzlFxskVZt2/fPkcdjtXbtbbrozvdcxTMsjpdaugX2E6+uBiZb54i4dQuxGyaK5N948xhMExXQMV+IOsrCCPdDvtpnmR+AwRiRfqWQCxvxv2r9dXPVY8JY+7bD8aQMWIEH39gLVJvnkdutAGAdh3U0KvYbQ6bBtaRBhMOHDwGv4BQ8aNp0qyTS8AsKsQ8+o8UxdjBQ8fw+s17t4l7+ROhLL2ouBgRkSYpX5sZPBet2/bA3w3aOtUIXimzypRZWmfNjvD0DhSwev/BY8TGxYPm/e60sGQvNzcP8fEJePz4GebNX4ruPQaWKrMIlfhwBlAk2GWpYYdOfTB2nBcOHzkp/l48XqobVZmhO2Vi1c/FllIlQg9nQpiqn7X9t2DtxFwHR7Nnz0ZmZqb9D8iCLRLKs7uffizWPDsLilQFZvG77rTYEgtXAnrWXjMKZrlT9rr7uRQXobioEEW52WL8nnrvKmJ2LYd52Qzxa6K/k8FHqbIcBpUIVqgU8vHQ/LSme6iyTkcDO3qXTfcAQS07dUZvDEPCyZ3IevdMSg3ZBIFdPQl31eKcCKRnZCIy0oh9+4/AxzdYlFBURP32RzOnTFp1FcZPvzQSdVL/gWNEHaJ3j3NOlBy7V07C+aBC7srV/wTete/YGw0atVcwy0W6GRJm8brwnh4s1wq7/cXHJyLXSW3cHZWROsxKTEySst75C5bjn56DBKxSmeUKMIvXxpixnjh0+ITALPpmqTJDR2VEzd2urTCrusy0a0pkrS2Z0sGRs8u+CKX0Y7Hm2VnHbQvA4Xm5Y77aYuB/8+ZNUVTyunf24/z581blHksqWVrpDotSZrnDKH7nHIoLC1H0OQ+fU5OQa/6ExEuHxRibvk2RfjR+76fK3BwKVzQPLZrDlz68FDx0GDyUsdSM4A1+A2AMGiY+ZTE7FiPtwTXkJ8ahMCsDxQUFCmZ9577h6I9YZhgRYRS1iZd3EHr0GgJ6A7kCzGresqt0j5szbylOnjqH9x8iHB0Op22fMIveZdf+vYnQ8EVifN+oSQf8+ntT6WjoDDWMUmZ9qcxi+S276BGiPH7yHPEJSaJiclrSOGDHhEKEQ0nJKXjx8g0WLl6JHr0Ho37DtqUgyxm5yH3qyqzyMCstLV1KPRXMckAy1PBN2tJVjHCgT58+ePPGPUvabRlSW6EQlVFUSDlrOXfunFVAQQdeNQ1muYrxuT3H2Vplkz52NfXZnYCkgln2vBJccFvFBZ9l8p5j/IC0B/8i7sBamBZ7al30Sj2bVKmbY+GKim+1x7dEncVOnTTgj14TjKTz+5Hx6jHyE2JEqUjFolqcEwHCrE+fDNi1+yCmeQWgR09Xg1njMW/+cpw+cwEfProvzOLom0xRYrpNeNe1e39RAhFmcRLvDICgYFYZzKpTtwWaNu8spbj0amIzgsSkZPFrcs6V65i9EgqxLXpKaipevX6HxUtXo3ffYWAnR+Yhu2s6IxcVzHLMeLvzVtkYYO3atTYBDSpD1KJFwFaY5axyPX3cbAUiK1euFKCvb6e6nm1VZrmTebgea1vHTsEsPYLOe1Ywy3mxd+yeSzyyWF5I4+v0Z3eRcHIHojeEihG5IWBwifm4Ai3VDlocqgRT41k6nuJX5oH/Z+8s3KLavjf+7/y+t8trd7deRbCxsJOQEFHEQrG749peu7v1WijYKMwM3d3x/p53HY6gFxWGSdjneeaZYObMOWuvs2F/eNe7aLgfu2wGkvatRvr1U8h7/xKl2RlguaF4aFn3SlR7ryEC2dk5lTDrEGbM1GBW85bdHESZ1RfDR07E0tDVOHvushik13AKDeYldse7dfs+Fi9ZCXZxpBJIwawB0tWREMXWPk369xGk/Pp7W4FZ/nMW4OSp84iIfCXqJZqPN6SNMIsQgIqnN2+jsHLVRgxyGw2a33//Y0sFs77TAKeeG5a4Z379+HMr8SvcvvNvPHwUjqSkVBQUFH7VB6wh5Z21zsVcEMPSOrVpETA3hs4Ks+zlX2QuzLKXksya14eCWdaMrnX3rWCWdeNrt73TE4iqrNKsdBTGRiP9+mnp7GZaNhPGuaPAEqwYMSBXJW8f4YeCTPU3X3eoGGreWYaA4TAt8EDsGn8kHlyPrMe3UJQUq5UbllGdpbyzbD1ROTrMGuE+qdHArLi4BNy+cx9LQ1eh/4DhAk8UzHIcmNWmXS/MmbsQZ85eAjtrpqdnori4xNaXrFW/rwpmZeHt2yisXrMJbkPY4bQHfviplYJZCmZZNf8svXNzS83sXSJn6TiYuz+qNAlLzFG8KJhVt6ibC7N2794tnoF1+zbHfre5ANWcPHWEz6gyQ8fOR3V0XJ6XlaIsPxdFiSbkRD5CyomdMC2ZBuP8sTD4K68sBbAag4JL8ykzzB4MQ8AIGBdM1MoNL/+D3HcRKE5LRnlhgWYGr2YNm0bAeWDWpQavzCLMunP3gcCsvwaOEAN8BbMcEWZdbAQwKxtv3kRh1eqNcBsyRmAW1UOqzFAps2z6C6qeX2aOkTQXtw2xdMucUCqYZU7UzPuMuTDL3tDQvLP9+qcaG8zy8vJCcnLy14PiJD9VyiwnGag6HSZbrhcVoDg9GXlvniHjxmkk7lom5Vb0EGKnN02V1RiAhjrHRg/uxD/LDQb/YTAumoykwxuR9fAaCozvtHJDO5qF1um6bkBvVjDLcQZTLzNkBzka8bdu20uVGTpIN0OWGVKZFRAYgtNnLiDyRcMtM+QCNjMzC69ev8OKlevh4uqOlq27Kc8sK6iyWKaoygytNwdHRUVh+PDhdVYWTZ48GbGxsdY7MCfZMw3cqVIzR71ib8hibqmas5UZ2jvO1khlcxWV5uSpI3zGXjlnjbFTMMsaUbXnPtluvbwcpTmZKDC8Reb9y0g+vBFxq3yrFFnsrOdQ5WAKOKnxsGYOVCq0vF1hDBqN+C0LkHp2H3Ke35dyQ4Jf0GNObTaLQBXMogF8gEMZwLfr0Ec8swh3GoMBPGHWzVv3sGjxCvTpN1R5ZnlMRxeHgVntBGb5BdAz6xyeR7xssAbw7AKXnpGJFy/fYFnYWvzlMgLNW3YRVZZSZillls1+OVngi6h2oOrBnAXr06dPLXAEzr8Lc1Uy9oYs5sKsefPmITc31+YDZ64yqyH6u5k7duZc547wGQWzbH65qS+sdQQIs0pLUJyWhJyIf5F6Zi/i1gTAFDweUm5FVdYsBbMUPLImPHK0fTPfNf+sGL9hMC6eivjtS5B27STy37/UvLPKy2t9iak31j8COsz6e98RzPIMRP8BI9GiVXcHMYDvjWEjxmPR4jABCFFRH+p/wg68B3YzvHHzLhYuCkOvPuxm2F2UWfYCCKqb4efdDHtJN8Njx9nNMBIpqWkNrpthWVmZdPJKS89A5IvXCF22RvzbmjbvLAoiqoh4s4TxeV32we9kN8WffmmNrt0HwmP8TBw5elKM6gsLC8UzpuIr/wihFxjPjcb9u3bvx6QpXgLofvmtLf73PZsL2P6c9PNXyizrTcp5eXlSMmjOgvXgwYPKgB9AY4NZ9jJUNxdmEfw0tE3BLOcdUaXMct6xq/HI2aGNndryP7xCxq1z0sHNtHgKDAEjK8sLtYW9gjmOBlzU8Vg3J12keycbHxiCxohSMeX4TmQ/qTSDL8hT3lk1zijWeTE7JxcxMUYcOPgPvH2CMHDQKLRs3QM//8pFnn0WePze735oIUqYwUPHIXhBKP45dkq6q1knCvbfKxfiRlMsrl2/jfnBS9G9pwuat+wqXc6kk58dxkLBrE9hFrtLes+eh8NHTuDJ0+dISUlFYWGR/ZPHgkdA4MNz4rmFh0d+7Kz5Z7POlcCHc4Lt5wUdZv38axt06zEIEybOkjkhJydXjpewSsEsCyZCA9kV84IG2ebArLlz5yI7O7uBRML80zAXZtkLCulneujQIbPG3V7HrWCWPnLAzZs3zRo7c65zR/iMvXKuKuKWe6RgluVi6RB7Ki/MR2FcjCzSU07tRtzGeTAEjYZhNrsXKpBlXWCigJRjx5fqLDfE+A0V76yE3cuRfuUYct88Q1FaEsqVd5bN5rCc3FzEGEyicvDzX4BBbprZsyPALMKDQW6jETRvMQ4dPoZXr9/aLC62/CIuwrno4jhcuXoTc+ctlvK6Zi26CMz63w/N8X8KZtlcDVRdOUMFD/PR03su9h/4Bw8fhSMpKaVBwqyCgkIkJCTh0aOnohLs028ImjTtZHeY9cNPLQWyd+/piomTvECFHGFWUVExysoUzLLlnOVM33X16lWzFsbDhw/H27cN83dOXcbP3PjZe4FuLoSzVydLBbOqstLcWDgCmDLnGOx9rVRFvv6PFMyqfwztvwfK3KW8sBQlmWnIffFyTzh2AAAgAElEQVQYaZePInH3csSGeYrxtZi+q/JC5RXWqL3S6J01SMCucd5YxK2bg+Qjm5Fx7yLyY16DIBgVLDdU/lnWntRyc/NgNMXh2PHTCApaDCqhaDzuCDCLZXYDXEaCPkV7/z6EFy9fWzscdtk/YRaNdj9Ex+DipWvwn7MAHTr1FYDw/U8tITDLDmoYpcyqUmYRZlGxOGOmP3btPoD7Dx4J8GGJW0PamIcFBQVgyevduw9EFdm77+DPYJblfaN0cPileyqzCLN+/b09evcdgqnTZuPkqfPIz88HDeuVMqshZaFlz8VcE3guSlWpIWBuyZc9fYCcsQujuQCnIZYZRkdHw8PDo04QOiAgAI8ePUJERITT3QwGw1eVxZadEa27NwWzrBtfm+2dpu/lRYUoSjQh8+5FJB5cj7hVs2EK9tC8srwGKZDTqEGOUo1pqjGWG7rC4D8CxkVTEL8lBCmn9yAn4oHW2bCkuBJmKaBlzcmLMMtkisepU+exIGQZhg0fL+V9mpeM7cuJuJjVywxbtOqGfn8Ng5fPXGzfsRfPnr+wZijstm8uxEtKSvD23XucPXcJ3r5BaN2uJ37/swMEZtnJ00fBrCqYxfI2eslNmeqDrVt34/bt+4iLSxDwY7fEscIXMw/pMxQdbcD167cRGLQIPXu7oUnTjnYrO2ZZI32tfvy5Nf74syP69h+GmbMCpCkEYSIBnIJZVkiGBrLLtLQ0+Pr61mlhrKsruEBOT09vIJEw7zQiIyPNit306dMRHx9v3pfW81M0cKeRuz6OdblnJz17bApmVUWdecP8qcu4sdEDGz6ozb4RUDDLvvG3yLcLyCouRElGKnJfP0PKmb3Ssc0UMhEG/+HVvLIU0HDsMjg1PjYZH12dNXc0YsO8kLBnBTJunkFhvAGluVmoKC9V3Q0tMjN9eSd5efmyKD93/jKWhq7CyFGTwC6CjgCzmjbvgh69XDFthh82bNwuPkVfPhPn/YnuU/Ty1RtRyM2Y5Y+mLbrIGHz3Ywu7GVQrmFUFs3g90MPMY/wMrF23Bdeu3xKPs/z8AudNvBqOnIqG7Jwc8ac7f+GqqCJ5DToCzCJQpHcX1Zres4Nw4eJVUWXx+qG6UXlm1TCg6iWBnSwdq8vCuPp7796926ijaI5KhvFzcXHB69f2UVPXp4sl/ZrssSmYVRX1nJwcUNlX/TqszWPVgbQqhvZ6pGCWvSJvqe/lH1NlpSjLz0GBMQqZ9y8j8e9ViF02SysvFEUWvbIUKFExUDmg5UBluaG3GwxBYxG72h8pJ3ch5+UTFKckgE0UtHJDS12kaj+fR4CL8YTEJFy+cgOrVm/A6HFT0b5jH/z6ezu7KTE0ZVZzNGnaGV26DcSESZ5YuWoj/n3YMFulU1lCqPg84iUOHjqGSZO9JP4//twKYv4uJYa2V8kpmFUFswhSmrXoCvcxU7Bs+RopB40xGGXcPr+mnPl5UXGxdAiMiHyJ4yfOwGd2kBiuUxHF6/JLZYDWfV1TZhEoNmvZFa5DxsJvzgJcuXpDOhR+S5XF8eB7VDdDZ87M+h07gVRtFsM1vSckJARU+jTWzRnBECEaYVpN4/m11+wJ4BTMqrrCqBDesGFDncdv7969MtdX7Uk9snUEFMyydcQt/n0VKC8uQnF6MjIf3UDyP9sQty4QxgUTYPAbKh5BMcorS8E8BTM/y4HKcsM57jAtnY6EXaFIu/IP8t48Q1l+LipKSyx+paodVkWA/jg0sr556x42bd4Jj4kz0bFzf/z2R3u7L15/+6ODqMRGjZmKRUtW4u69h1UH3oAe0cA6IzMLDx89xe49BzDWYzp++qU1vhdVFgGCfSCCgllVMIvj8WezLhgyzEO6TZ4+cxFR76PBMt2GtBUWFSEtPV0M7vftP4LpM/0EKP/epIPd54NffmuHVm16YOjw8QgKXorrN+58s7xQHxsFs/RINM77uLg4TJ06tc6LYx18NERfotpmAsuOFy1aZFbs2EmS156tN5YK6mNXl3t7lkYqmPVplpw4caLOY6jKgj+NoT2eKZhlj6hb6jsrylFRVoayvBwUmN4j7cJBxG8OhmnJNBgD3WHwGVwJs5QiR6myVA58mgOEWYNEvWicPw6xq2aLojHz3iUUp6dUmsFrjRUsdbmq/VRFgJ4zqalpePDgsRhbT57qg85d/3IImKWVdnUXgBAYtBg3bt6t9eK16gwd/1F+QQGSU1Jx5+4DbN6yU0o9CbKoyrKfGqYpFMyqgllUyf3xZycMcHGHj+88HP3nlJTisSSvIW2E2ykpqbh1+z42b9mFiZO90KnLX3AEmEXA3rZ9b7iPnoKFi1fg9p0HtQ69glm1DlWDfCOVHps3b67z4lgHIX5+fqD3VmPcqBw2t0xz7ty5yM7OtmnY6jPW9NmylwpPwaxP04Qlg/r1V5f7xl4W/GkUbf9MwSzbx9xi38hyKKpIaPqe/ewekg6uh2m5J9ipzeA7VIyulSpLQZxPIY6Kx8d4eLoI8DUEjIBp0RTpbph6bj/yP7xCcVoyyosLpYTXYhes2tHHCBQWFiE9PQNPwyNw6PBxzJgVgC7dBtgZZmkm8FTDECD0HzACs7wCQQ8fLrb5x2p5+dc9cj6eoBM8EBP+2Dgpm1q9dpPAO1Fl/dDcTmVdGsRRMOtTmMVOej17D8akKd7Yt/8wXrx4LSV5TpBitT5ElrvGxyfiwsVrCF22RsBR2/b2LTvWDeBZ6tipywB4TJiJFSvXS0fJ2p6Yglm1jVTDfV99Sg25mD5y5IiUqjbcCH35zMxVOg0fPhxv37798o6t8JP6lEUS2hHe2WNTMOvTqJurply8eLHdgOSnZ9A4nymY5azjXlGOsvw8FKcmIvfVU6RfPY6ELQtgYnnhR9N31cHwI7hQZXafldkpqEXQK50NZw+GMXAUTIunIGn/GinXLYh5i9LsTCnhddYpwpGPm4bPmVnZePXqLVg65TN7Hrr1cMHvTexZZqjBrB9+aikm6N17umLCJC/8c+yU/HecPl+lpZrpsyPHtrbHlpWVLZ0MT50+j8VLV2KQ22jQ+P3/7OZRpGBWdQ8oquP0XGQJ7gj3Sdi6bQ+ehj9HenrmV43Ha5sDjvK+nJxcmExxojwLmBMC18Fj0apNTwdoCNEcbAjBuWDqdF+s37ANjx6H1zpsTgOzdvwt3oAs/S4oKGxQuVXrwbLSG9mVkGVIdVF5VH/vqFGjwM5+jXEjaDHHg4rxO378uE3zuD7Q8urVq3YbXgWzPg09/3EZFhZm1vXamMuCP42i7Z8pmGX7mNf/G8X0vQylWekoMLxFxq2zSDqwFrErvLXywtlDVHmhglcKXtUmB9jZ0MtVKzecNwbxm+Yj9cxeZIXfQVFyvJTwoqKi/tes2sMnEaDKicqgD9EGXL12C3PmLkKPXm6wr+GzDlOag+VdLHMaOWoKdu85iJgYIzIyMlFSUirqrE9OxkmfpKalI/xZJA4cPIqAwBD0+2u4wCx7lhgS5ihllpaHVAZRKUelYMvW3fHXwJFYvWYz7t1/JH5zejc9J02/Tw47JzsH0dEG8W6bPMUbffoNRbMWXeTc7ZWP/F6W3DZv2Q19+w8X4L5z1365Zj45+K88cU6YVWBTCPCV8DWIH7HbJcFKdUBV18ezZs2CyWRqEPGoy0mwxNLX19es2NnSx4i2CStXrjTrOKkii4qKqktYLPpeBbP+G05zFYFeXl5ISkr67w7VK1aPgIJZVg+x5b+gorwM5UWFKEoyISfiAZKP75ASKU2VpcoLlRpLqa7qlgPVyg2XzUT8jiVIv3pCyg1LMlK1UkMFtCw6kVFST8+m+IREPPj3MRaELJcF7J/NOld20tMX9La/1xexLHNyHTwO69ZvFTVMXHwiWB5ZWlZm0VjYa2fsJnnn7r/YsnWXqE569HJVMGv9Fnh4TJeSV3bW1Lo62j4HNYWW1k2P6ixCXioXFy1eiStXb8JgjBUFTVmZ7U2OLZmvXOjzxpLjt2+isH79Ngwd5iH+eX/82UGUafaGWVSIDXIbg6B5S6Qk+uWr2pcv/RdmeaN5y66VijOW89qnyQLzi3EltHdxHYXtO/ZWU2YpmGXJHOe+jEYjJkyYYBbs0MHXggULkJmZaelDc+j91cc3i3GzlVKGJY2EUvpY1eXeHv5e1Qddwazq0dAe1+d6ZTdEwk212TYCCmbZNt4W+TZ2LyzNyUL++5fIuH0OCTuWwBg8AfT+MczWTd9dlDKnNsoc9R6VJyw39HaFwXeI+M3FLpuB5KNbkBV+FwVx0SgvLJBGCxa5eNVOJAJc5LGbXnpGJiJfvBafnAEuI9GsRdeP3fTstYjVvHKaoWXrHuj31wgBCBcvXcPbdx9Abx97eVtYOnWMpjhcuHgVy8LWivl7h0798N0PLexq/q6UWZ+Cs/9931wA40+/tEGbdr3gPycEx0+cxes3UcjOznH6XNRhD8vbnj2LxOIlK9Grt5so0diIgSDPXvMAv5cwk+bvw0dOxJKlq3Dm7CW8i/pQ60tRP7+IyFfYtXu/+J4pmFXr8DWYNzIP9u7daxbsqA5GWP6UlZXVYOJSmxOpT/kejdUzMjJq8zVmv4eWCWvXrjV7bA8ePGhXJaSCWf8d+voo7Xi9Nmafu/9G0zavKJhlmzhb9FsIsgrjDch+chMpp3Yjbo0fDAHDFchSYEqBKbNywEXKcg3ebh/LDRO2L0balePIefkExenJArQsehE38p3xj3tCIcKh9x9isHb9VgwdPl4W7FQLiBG53bybNEVM0+Zd0a2HK7xnB2HP3oN48vQ5srJzUFxc4vSjRzVM1PtoHD56AoFBi6TEsFWbHrJ4txc80NRIqsxQj4N+/78fmuP7H1sK6J0+019y8eGjcCk1JBB25o1zABcOLOO9dese/AMWyBxAJRpBFuGqHgfb32vzQPuOfTFm3HSsXrNJOpsaTbG1Dnl1mLV7z4FKmNUNv/zWDgSVjqHMGo3t2/eKQjYxKRn5+fl2XVzXOrhO9kZzjaWrwyw+ptF0Y+pwyLItlll+HofaPj969Kh0I7ZWuty8edNsXy/6gREm2XNTMKvm6NcHonJcr127ZtW8q/moG++rCmY529hXVIjpOxfZqZeOIGHnUpiWTIHBb7CoS1T3QlViV7cSOxWvqnix3JBAayjiVs1G8qFNyLx7EfnRmhm88s6y3GRJmMKFHr2zWGq4Y+ffGOsxXXyqfvujvUPALHY0pFpp7LjpWBq6Gtdv3EFqarqUGlouErbfE2NPv6XIF6+wfedeTJ3hi3Yd+0opG5UoCmY5SplhlUqLxvxNmnbCGI/pWLtui/jM0WOKZrXOvLFsNzMzC5GRr6QRxJSpPvi9SQf8+HNrgT32zUUNZtE7b8q02di6bTceP3kGAp/abv+FWT7iweU4MKs1Bg4ahS1bd+PuvYcyF/MfDJwj1GbZCDCmJ06cMBvKVIc39OZ59+5doxgnXkP1UbVZ00CfPmb1AW0hISF274CnYFbN13lubi44PtWvu7o8JtA6deqU/I1b8zeoVy0ZAQWzLBlNK+9LvLKKi1AQ8waZdy4g8eA6xK7wgXH+WBh8XBHjqUoLq8CEgjQqFnXPAYPXIBhmu8G0cDLiN85H6um9yA6/i6LkOFSUlkABLctNcjpUSU1Nw4GD/2DGLH/07jtEuofR9Np+C1kuYpuJrw3Nn2m8zWNjeVdcXIIY1/MPbGdc8PGYWRaRlZ0ti9ewlevhPmYKmjbvjJ9/a2vHmFcDNz/Q+Jx+Pi0xwGUENm3egXv3H4KG9UXF1lEi0dz/1u17WOdQnllVMaE667cmHeA2ZCzmzluMI0dP4HnES2Tn5FjugrTDntjFkNfUzVv3sG3bHriPmizXHZVo9lQtUQXGOYDKsG49Bok6k40S3r6LEn+v2oaK1xvnihcv3mDv34cxdZqvlC/Tj83+yqzm+OHnVug/YIQoYwnrWXrMnHLGua22Y2LP97HkjaVvdVkUf+m9rq6uAscagz9PfTypGD9rGOjTv4w+Zl8an9q8fvHiRXumo3y3gllfHgJ6rtVmHL/2HnpoNbbS4C9H1Ho/UTDLerG1+J51r6yciIdIObUHcRuCYJg7GjF+NH0fBKXKqju8UMBHxeyTHPCkf9YgGANGwhQyCYm7liP92knpGlpeVAACZbVZLgJcNBEknDx1HoFzF8linR419MvRFntVC3pblhlxIcsyJy4623XojUFuo8FOZu+iouV4WR7FRaqzbYw3u0iaYuNw9txliTmVGT//2kbUcLaM8Ze+S3Uz/G/OE2b98ntbdO/pKqVqGzftwO079yUXnS0Hqx9venomXr95h2PHT0sTCC0X29pZmamDrOYyB7CzIs3fOUclJCRKaXT1c/jaYx1m0TR+3/6jmD7DH63b9hL1mV1VkN83A3Pqx19ao+9fw7Fs+Vqcv3AVUVHRopRTMOtro1q/nz179sxss/CaFs0zZ85EeHi4Q/w+4j9KXrx4gRwLQ/b6ehgxbgRaBoOhfoNX+WmWebLcs6bxqO1rfn5+DlEuqmDWl1OC6qz6jjPzwcPDQ5oRsBJBbdaJgIJZ1omrVfZamp2BAsM7pN88i4S9q2Ba7oUYv2Ew+ND0XamyPoESZnknKbCjYkj/LBcY/IbCOHc04jcEIeX4dmSH3xZ1VnlhvlWu7ca8U/pQsUPb8rB1UmrYuesA/Pp7e7vCLIIW+nb98FMr8Srq3nMQQpevxe07DxAdbQQVJc5mBM8FKssLk5NTpHPZjh1/Y/JUH7CLoT2Ntj+HWgpm1QCzKjvP0QTebcg4hCwKE7jCroYs1XM2sKrnIlVZ9x88BuHchEmz0LW7i5QYal0k7d/pjx0VqYYLXbZG5iiC97r4lPE8eXv16i0OHDwGT685aN+xD7hfe8Msfj+VWT17u2HuvCU4fOQEXrx4DSplecxqs04EOAfTILq20KO27wsMDMTjx49FeWudI695rzyfmJgY7N69Gyzps5YP1NOnT832ptJjSKhw584ds+dL7Vp+BQJEfZ/m3rPk1BGuMwWzas5r/VVLwmf9GlVQS4+u5e4VzLJcLK27p4oKFCbFIuvxTSSf3Im49XNhXDABMfT4UaosZXyu4J0Fc6Cyu6HfUMQun4nEXaFIv3oMeW+fg0BZbZaNAJVCXNBu3bYHM2ZqpYb0zbGnMouARS8zojqrddue8Jk9D4ePHBcjeHZfI0Rwpo3AQ1t4GAWELFwUhiHDxoEG1/Y13P8U3iiY9Wk89FzkGNEYvWv3gZjpGSBKQXYCpecUwaojLIxqez0wD6niiIr6gHPnr2B+cCj69BuCFq26i9m9I5TgUR3aum0PjB47FRs2bsO9+4/Eo4zHXpeN4/LmTZTAIp/ZQejUpT/+bNbJrjBLm9uag802unRzgadXoOTTo0fhSExMMnuxX5e4NOb3suyoPn48XwMoBEoESyzNs9Y/XKiUIgTZs2ePqE4+Px6CGktv9e0aWP0YQ0ND8f79+1rnOa/hxMREbNy4sd5AjcfhKKosjpGCWV/PVM737DhZPX/q+5hQlfs0Go3yN9nXj8D8n/LYWQ4bEREBlrSyuUdD3RTMcuSR5X/HKsrFq6e8sAC57yKQevGglD6ZQmdIiaHBW3llKTWRUpRZOgc076zBAozj1vgj6fBGZN67hKJEEypKirVywwrnKzNzxOmOJtYRES9x6PBxzAlcCBfXUWJ2zQXX56odWz+neuGnX9qIj9eoMVOxLGytLL7fvnuPrKxs+UPE0SECj48gi4uB7JxcPA2PwMZN2zFtui969nYV5RnhgSPEm+OrYNZ/YRb9ozhG9JJj18kR7pOkKcGly9fxQYzgC50KZhUUFiIlNQ33HzzCrt37MXX6bAHGbP5gb1WWHms2gOjWw0UAO7uZPn0aIWa+5qjgOF/8c+wU/AKC0aPXIJlP7KnM0mEWFZntOvQRYLdi5QZcu34bMQYTysqc0xPQEX+/femY6mseXpsFNX21WCZFI2qW/3FhWxfAxd8deXl54LHeu3cPO3bsgKen5zcX9mvWrEFRkeX/2RMdHY0JEyZ88/trExu+Z/LkyThw4ICUabJ0kOWR+o2xYswI5nx8fCz2nVSu3b9//0tpUefXOR8xLgQW5tzOnj1r1rnt27fPrO+rfozJybVvplHnwFjwA5bwR/tSThI+r1ixQmATmzoQdNf2GuXYsxSSx0coyWuUkIywdurUqZ+MK5+zo2pD3RTMcuSRJcgqK0VZQR5KMtKQ/eQmkvavQexqXxiCxsDgPwwGL1fllaVUSRZUJSkwJmBMvLPcYJgzEsaFkxC3ORgpp/cgLyoSZXk51YCWKseo7xTKsp0PH2Jw8dJ1LAldjeEjJ6JZiy4OAVe46KMiht3HaE7PRffOXfvw8NET6WpGQGTO4ra+MavL57kg4R9HLI2MT0jC5Ss3MGfuQrgOHiNgxBHMqKtDSgWzaoJZfI2G5M3Fb4k+TrM85wgI+vfhU2Rn50geOjpYZd7yGAmC30V9kA6GS0JXYcgwj4++bfaFqgTozcX4nc0f6OEVGLRIPL1evX4nkKcu157+3qj30Th56hzmBi36qECjuby9FGiMsT63UQ3HJhdzgxbj9JkLoiJjGYyjz2t6bJ35Pioqql7d8L60QK7N64RSc+bMqfEWEBAgJYO12U9N72G3RWuACs4dluoIWdNx2+I1qrv4d4OlNksq1mxx/tW/gwbrzrLZAj5Xjw0fE0ZTxVf9Ov0cUn3+ma89J/BqqJuCWQ48slr3wkIUpycj/8MrpF35B/Eb58G0aIpm+i5eWY3d+J0eR3oM6Bum3xSUsbRaqXHtT8srw+whMMxxh2n5LCTuWYGsRzdEnVWam4WK0mLV3dAC8ydBi+bj9AQbNm7H+ImzBLI4SukbAQLLcVq27i6dvxYuXoEzZy/i7dv3AhFq+180C4TKrF2UlZeLvDwhMQlPwyNBlcm48TNAbzIqYajO0DrH2V8Jp5RZXwJZ2usEEDTrZ2koARCNyWmeHh+f+NE7y5GBFgEJrxeTKQ43bt6V633KtNno0ctN8lBTZX09BtXBp+Ufawo4gqY27Xpj9NhpWLFyPXQFXHm5ef+8IKznnLEgZBkGDnIXFZo9YRbjxlz67scWAkc7dOqHKVN9pOPi48fPpEmEo89rZk2GDvihyMjIGkv1vrYodYaf0ePKGhtLHKn8coYYfH6MNKG3tDpGwSxrZFnN++S1SiXV5+PqLM9v3rxZ84k1gFcVzHLgQawoLUFZXjYKjO+Q+eAKkg9tQCzLCwNHaT5ZYvreOI3fo6nGIsSqfvsIshTQalzgyVrgUjODF1+6+WMRuzYAaRcOIvfVExSnJoJm8BVO2NHO0aY8lrTQN+vt2yj8ve8wZnnNQcfO/aWkyv6LW21hLUDrl9Zo2aaHmKZv2bpbzOBjY+Md2juLYIMqi/SMTLCjGtUhC0KWo2//4VJeWAUMHQNkKZj1dZBDAEHT7iZNO4l31ugxU7F6zWaEP3uBlJQ0cKFXV08nW80Hei7yWn8e8VKudf85IaIKatWmp6iheH6WB1Rfj+mn31cFszgHzfScgx07/8aDfx8LMDRXrWQwmHDx0jUpDSWEZGnfdz+2lI6C/2fHc9bnNZZU8rhWrd4kRvcJCcl16tpoqxxqqN9jT4WWtRbihw4dstpw2UMlU984EYIQhlh6UzDL0hH98v74O+zu3btOC7Ss4WX35WjZ9icKZtk23rX/NvqcFBWiJCMVOc/vI/nQZsSuDYRh/jitg6EyfReQxTJL7aaBLfE6YmwaMehTIMuCcIvlhmyyEOiO2KXTEL9jKVIvHRGlZGlOJirqaAZc+wmg8bxTX+TGxcXj1OkLmB+8FP3+Gia+Mo7SZY+L7O9/agku+ga4jIKP73xROD18pJV4OepocfFN0092vWPHyEWLV0oZJxfTv/3Rzq4m1J9ChCrgoMoMq2JRU4wIIOidxTK4Xn0Gw9M7EAcO/oNHj8MFaNGDztE2XuPMRZa6Gk1xuHDxGkIWhon3Fz3AHKfUlTBNA1r0ywpeEIrjJ87g1eu3SEvPMNuXzGiKFT+qVas3gt57VELpMMveAI/qLPoC9uw9WJpc7N5zUJpcJCY6h5+No+W6ucdDxQ7LieoLTRzl82FhYdIwwdx4fOtzLJmqT8mVLeNEnyyW1HEetPSmYJalI/r1/XEM2TXUGRVabAxh7j9kvh4V+/9UwSz7j8F/j0BM30tRmp2JAtN7pF8/hbj1QTCGTIIhYARiZg+pVlpnwYW7E3lPSQdHloD5j4Bx7mjNQ2zeWBjnjILBbxgMqgRT+WhZJJ9dNF86v6EwzB8L03JPJO5bjezwOyhKjqtUZ5WpcsP/zmJ1eoV/IKSlpUvp0eo1m+A+ejI6dOorJVWar8zXF/g1Lfot/tr3zfDTr23QrgNLvMbLQvfoPydBPxwu0qmIscYfq3UKZLU36yArISER/z58IgqTMWOnyUKaXfFYOukoyrfqY6Vg1rdznePGbntUNLkNGYeg+UukgUJk5GsQQtCHzlH+aOVxUB2Yl5cvIOvO3X+xecsujJ/oie49B1VTYNpblcXSu+bSTfGnX1rhr4EjsHbdFty4eQdxcQmiHjX3+mYZKM9746YdmDTFG127u8j3cBztDbM0L7YWaNu+D0aMnAR2OWXpamTkK4ERHDtzz7vadKQe1iICNHPevn17gwBatjCcdoYSTYKsa9euWW0+VjCrFheWFd7ijGpKazVmsEJ467xLBbPqHDLrf6CitFTKCwsTDMh+dg/Jx3cgdtlMDdoQ4Hi7NWpvKIOXCwyzB4uXEQFf7Gp/xG2ch/gtCxG7cjYM8z1gnOMOg+8QTVXjVVkuJmWIjRP+KbWWueNe6Z3lMxgG/+EwBnsgbkMQ0q4eQ967CJSkJ6O8qEDBLAtMizSxfvzkmSievLznom//Yfj19/Z2M0muDljkcaU6iyVe9Jsa68707lsAACAASURBVDEdS5auEtNklvCxfMqRSry4COUi/N9/n0hM/QIWiIl90+ZdKgFCCzuXdNUMbRTMqjku1fORAOTHn1vi9ybtBfrSzH/e/KU4cfIcwsMjkZqahoKCQgtclfXbhQaytOYDLMm9fecBNm3eJeV7vL6pyqoqdf32eVePgaUfEyx9/2NLgYTNW3bF6DFTpBSS8czIyEJxcYnZwUhMShblHDs3cm7r2dvNoWAWId6fzTqjS7cB4qfHee3M2UvS2TAzM0sW4gpomT38dfogr5k7d+40CB+tBw8e1OnczXmzIyu0qN5hWZo1rx0Fs8zJGst8JiMjA6tWrXIa+BwYGCjdOi1z9o61FwWzHGs8ZFHMxTE9eXJfhSP9yjEk7loG0wIPGPyHaiqRj4bn5i7QnftzArMIqgJHwbTcCwk7lyHp6FaknNuPxIPrEbdhHmLDvGBaMAFG+otRVfOJUqtx+owpoGVu3leqswi0AobDtHwmko9uRta/V8TPrjQrHWzWACtIyB1terLm8VC58eZtlBglLw1dLSVILOujUbJmUG7fxS4Xz/+rLPFq1qKrlHhNnOyFsJXrBWixO1tqWvpHNQMXJdb8I/bzseB38Ttp3EywRsN3KrJYgkaj8GEjJqBNu15SUqSZT9tfCVMTkFAwq3Z5TvjCMlyq7Fq37Qn30VOwPGydqGqePXsBwqP8/IJat/n+PJ/q85y5SLDLkkcqLqlepDJp1+4D8PSeK10CecxsQGB/ZVKlGbpc223ES65Hr0Hw9gnE2XOXEBX1QeJIbz9zN8LFiMiXOHT4mHQN7NNvWKVHmCMos7TzZ6lh0+adBXhzXqMq7eq1W+K1x+PPyc0VoGcNBaot50lzx9DWn8vKysLOnTtBZY8tS+Is+V379u2zye9Adk4MCQlxqDhRmUbQZu3cVjDL1lfmp9/HfxqyhNTDw8Oh8q+m69gWaslPo2O7Zwpm2S7W3/6migoxlC7Ly0GB4S0y711C4oH1iF3lC8OckTDMdtOM3xu5wkhTZrHL3CjEhvkg6dAmpF07Kd5ijFnq2X1I2r8GcRuDELt8Jozzx4mqhoo2KU/86KeloJYCXLUFXARag+QaJFhO2BqC1HP7kBPxr5QbVpSozobfnuC+/o7CwiJREt279xA7d+7D1Om+4gtEtYTDlBpWdgFjRzl2N+zTbygmTPLEsrC1AuHCn0UiISEJ2dnZAhEIl2yx6SBLL+ei4fT9B4+wb/8RBIeEYqT7JHTq8hd++6ODQ/pkVYdaCmbVDmYxZjrQIoigWpBdKgmCWf5K03ICLZbAWntB9XmOM+8J0pKTU/Hi5RtcvnID27btga9/MAa4jETb9r3FJ0s6adrRAF3POwI1zjO8Ptp37IeRoyZhedga3L59X+ak+pbaZWRkgrCbnoChy1ZjgIv7R5jlKKBezyXOa737DMG06b5iCE+139PwCHBOycjM/NhkwBI5xX3oc5cl9vd5Hjr7c8YkMTFR1B/OCLUWLVqEvLw8mwwDm18cOHDAIeAf1TpU7dhiUzDLFlH+9nc4A3zmHPL69etvn4wTvkPBLAcaNHZGo+l7cVoSciIeIvXcAVEZmUImIYZKpI/G5rVdgDfQ9xFGsdTSbzhMYd5IPrpNuj0WmKKQH/0KuS8eI+PWOSSf2CmqtrjVvjAtmgJj0GiBWvQco2l8TCOHggpk1fH6oBm89yAYaQa/fBYS9q5C+q2zyH//EgTQ7D6qNvMjwAUjF32vpOveeVEwdOjUX8p+HA1oceFH02qWSfXuOwTjJ87CktBVOHjomECkd+/eiyKFIIH+RVQzWFqpxYVOWaUSiyCQ30V4EB1jxPUbd8CSprnzFov/WJduA9GkaUdR8jjK4lkHCZ/fK5hVe5jF2BHE8EZVDU3LWf4asihMQObde//i/YcYZGVnSyMA5iKVe+XlGkQw/2r99JOSi2WaN1ZBYSGysnPEH+tpeKRA3vUbtmGmZwBcXEcJyPq9SQfJRVFlOQjMooccS3CpmvLzn4+/9x1CRMQLuY7rWz5MVZMpNk6UTozFkKEeAs8cCdLrufTLb+3QolU3KfP2mDBTSqkPHDwqc8qLl69BM3uq7TjfEFgSInD+YW5xYf35ja/zVlhUJEo9fobK0eycHLC0PCsrW27cj6XnyE+z1Hmf8fpKSkoSpZarq6tDK0C4YF6wYIGYZDMXbLkxTu/fv8f8+fPtEqOZM2ciPDxc8thW561glq0i/e3vYf4RPm/ZsgWOep3aovT325Gy/DsUzLJ8TM3eY0VZKUpzslBgjELm3YtI2r8WxkVTtO6FhDeNvLywCr5oPkYx3oMRGzoLSUe2IPvpbZRkpKE0N1tuBcZ3yHpyC2kXDiFp32rEU6VF37Hg8ZrKjR3qPsJBpdCqim0dAY9FTNad5Ds9B2rqLILluaPFqy3l1B7xtSumd1Zhvio1NHv2A1jGU1RUhLj4BNy5+wArV21A775DZYFJ5YmjlcYRaLGrHMu8OnXpL63t58xdiL1/H8LVqzfx6tU7xMYmgJ4zLLeyJNDiH03lFRUoKSmVBWVaWgZMsfGIfPEKN2/dFYNtL5+5cBsyFu079sEff3ZwGG+iz+HV588VzKobzNIhBL2nCGQ6du6HYSPGIzBosQDNGzfv4v2HaCk7zcjMQn5BoRiyWwocMBe1a7dYIEVyigZUqQyjkXjYivWYMtVHTM95rVDVSEUWr5//cwCQxfjp1zIN9YcOG481azfj2vVbiIkxisdIfUoMOSXy+mep3oNK/zr3UVPww09aAwYBet/Vfcw/v24s87yZzLP85wGBI2E9y5MDAkOwafNOnD5zEffuP8LLl28kNlShpqamIz09U+Y5gikCKv3G55z/+E8KlmATtvMznKsMRpOAVsLW9+9jJD4aaLWNmrUev6rs+lFCP3ZTIzByFLUWF+7sXvjw4UPQxN7eG+e2ly9f2qz00MfHB7dv3xaQa+tzVzDL1hGv3fdlZmbi/PnzYG7UVPJnr9d4TA1xUzDLgUa1vLgIhQlGWRynnt6D+C0LpINaDL16CF5ESaTAiwZeqJJxg2nxNCQdWIvM+5dRnBIvxvkCBbMzUBhvQO6rp/Kz1PP7tdLD9XNhWjJVukKKifwnUMtJoEpjAkiOdq5UZ/lQFTgUsaHTkbB3pZS45kW9QElGKlCh/hA3d0rVFsVlSE/PEH+Z3XsOYJzHTHTtPgi/N2H3vdaV/jqO4/XEhSgX5jSFb9+xLwa5jcH0GX5YGroGf+87IkoMllklJiZJuQVhXWkpVVqavxXPubY3/oGu37joo9KBC8XYuHg8e/4Cl69cx649BxCyMAz0vOn313A5pk9UMA6zaP7y4l3BrC/H5mvAgrnIG4FRh079BGTOmOmPsBXrQGUNu/IxF+PiE0U5JSqtSsWgDrbMzsXCIoEVhD/0aTt56hw2bNqBgMCFGD12Gnr0chODcR1iER45EsQhCKR/V8fOf2HSFB8p03z58rUAFl0xZO68xs9xwclFfuSL1zh+4gwmTfYWWMQ5zdFiQeUmx4YxYcdM5tLAQe6iPg2YE4IVK9dj5659OH7irMxvbDDx7FmkKGpfv3mHN2+iPt74/OWrN3ge8VKae9y99xDXrt/G2XOXBXRSyXro8HEc/ecUwsMjRD3IuU1ttYsAczMiIgK7d+8G/XBstUCmsfmSJUtksR4XF+dQjU+qR47zGRVtR48exeTJky0aH8aAChyDwWBTJVb18+NjBbM+j4hjPefvVnq6ESLZE0B7enpiw4YNohx0rAhZ5mgUzLJMHOu/F/53Mz8XuW+eIY2m73tXIDbME8bAkTB4q5K4GpVDni5gCSYN4NOvnRSfMZpxixG37j9WkAeqZvLeRojaLfnwJsStmwNjMH20hmkdD9kZ0du1EhgqoFVjrB0NKtnzeCqBlinYA/HrA6X5QOaDqyiI/SCed/WfDBr3HmgEz0Uxu2nRuHzwUA+0aNUDLH/RynIcB2ZpcKFKzcBjbNa8K/r/NQLTpvmKifK581dEyZCeni7KFYEI7FhbViaKFqo+dEhV0z1/rt34/jIpEyMUy8nJEYUDfboID1au3ij+XVTm0KCex6KpPxzHQP9rMEb/mYJZ5sEsxo8QggpGXVlDk/W/Bo7A1Gk+WLdhK85duIKIyFeIT0hEbl4eiktKJJ8kF8vLpWy1Kt/0vKvpvioXuaBmyRnLWwmy9u47hLnzFonvFLvjEa7xeBxNWVkVr+aiaGOJIZWgfv4LRBnKUjodZHFRXJ+N1zUhTXS0AVeu3ICXV6D4AbJba1UJtaPNa1o+EWpRGUsoznzq138oxo6bBv+AEKxctVE6pRLQXbh4TbzRaBrP25WrN3Hp8nVcuHhV5ieCqx07/8bqNZsQvCAUs33nYeo0X0yf4Y/ZvvMFjlHBxZJFtZkXASoAo6OjxZCagGvevHn1MqamqfWcOXOwY8cOXLx4Ee/evRMoW9/rwbyzq9+neA2mpaWBZVY8Hypm6qJs02EAzb4JyDhnqk1FoK4R4O8B5s+9e/cEQtf3GtUBtn6trly5EkeOHJH983qlf2tjyFUFs+qaiRZ/f4WoOcqLNa+szH+vIunwJsSuDdBK4tiJT1RZCrJ8Clk0Q25T8HjNjPv8fvHKKk5NqCr1ItAqLRFIyO6Q+R9eIevxDaReOoykg+sQvzlYvI+4D2PASA1sqdJDfBpnlXf/jQdVga4wzhkJ0+KpiN+6CCln9yHnxWMpNRTvLC5+6rkAsvhU4yQ75GKG5SgPHz4F1VmeXoGiDuBiSkqTvnPMRR+PjWVehEht2/dB/wEjMGGiJ4LmLRaotf/AUSnTYdnXw0fhiIx8JabQMQYT4uMTkJiYLEqQlJRUJCenyHNCB3rUfPhgkE6PVDhQCcHF4omTZ0WJtXL1BvjPCcFYjxni3/Vns85yDI68SNbBVU33CmaZD7N0QEOoxVzkNdOuQ2/0+2uYKGtYerhm3Rbx0zpz9qL4IBFAMa/YSZQlX4RSzEmDMVZufCy3GKPAGBqZv3z1VkzBWXJ25eoNycVt2/eIv9KMWf4YOtxD/Luategipbg8Ht4cza+Nx8TrhCCrW49BGD/RE+vWbxXgRyUVffy4CK7vxsU/FxRxcQm4f/8RQhYuR6/eg9GydQ/8/GtbAX2OFpuqXGouKi2WVDOf2BG1Ry9XDB46DuM8ZmDmrAD4+gUjcO4izJu/FPOCq25z5y2R1/38g8GyZzb1oA/X8JET4Tp4rHiosYyR8yS7rlKVS881tVk+AlTw8B8g+o0Laqq6eONj/XXe872NZSMA1M/dZDJJPAgE9ddoYO+M8K6xjF9DOU/mGHNNzzsayhNG8fpkV0yWLeo/0+8b03X6rXFWMOtbEbL2zyuBS2lOpiiLUi8eRvyWEBhDJmnKIaqypPueggqfQoVKoDB/HOLWBSL5n23IengdhfExn0IEUWiVgrCwNDcLRakJyI9+LR5baRcPIXFXGOJW+4nCyxg4SgNaLCNT/mQKan1N/UV11uwhAkFjl3shYc9KZNy/hJLMNA1ocQGkYJZZsyf/c0XPFaoY2E1sedha9OztBi6MqRLQFsX1W/DXBFHq+xqPi0CLi2OawxMqEWp17+kKl0GjMGbsVHj7BMmCf8vWXWIWf+78ZRBuEVCxzObFi9cCuZ5HvMCTp89F6UL/MAIDdkLbt/8oNmzYLothlpC5j54syhsavLdu2wtNmnYWFUUVyHK8OH0rzgpmWWbMtFxsgV9/bwuawxNC0CDexXW0mMQTLixcvALrN2zH3/sO49Tp86KioVcUGwjcvHVPcpP5yefXKhU3VBqyWyJLzaiymRe8BNNmzBaA1bW7i5S20kCcPm0EIBqAtsw5fSt36vpzKj1Z6scS4aHDx2PBwuUC5ti5j+pHAihLLWS5H0J6luQRmLmPmgwq1wiICB4deV7T5rYWovRk6SHLqpu37IbWbXtL98eOnftLt1R21OSN85H+mF1UeWMzj3Yd+koe0ouLN3a17NVnsPhy8R8X9NXKLygw6/eG+pCKgIqAioCKQOOMgIJZdh73CpaaFOShwPReYEzSwQ2IXekDY9AYiKfTR68sBbNqhFlzR8MU5iUm72nXTgqoAqqVBFQqZBhnepKV5uWgOC1FTPZzIv5Fxo0zSDmxC4m7wwSK0U/LOG+sBrW8aRKvw0TlVfZp/Bt7PmqebQbfoTAtnIy4jfNAXzaWCVMFWFFSokoOzZxbqYSgOosKJXqu0FCdHdp69naVRRQXyI678KMXUHNZ9NHomgtVLvratuuNbt1dMIggYdx0UL1C/5mFi1aIQfa6dVuxcdMObN22B1u27hYDdz5fu26LlA8uXbYGC0KWS2nPtOl+cB89BX8NHCmm2m3a9RRlCT1/qozym6OuC3tHeb+CWZYBPzpcpU+VlovtJU8IELr3HCSqGPcxUzBtui98/eZL6dfiJSuxLGyt5OSKlRvkngbuy8PWYdnytQhdthZ8D8t/CcMmTfbCCPeJ6D9gOAg0CM2Y8wQeBDQEWY57rTbDD1Sv/dlROvfNmBWAXbsPiEl7SmqalAVaCmTpUyHL6N6+fS8gm2qlAS7uMiaODLP0eYHzGktFWbrMeYYKVM459DNkKSkB15/N/nvj67z98SdvHfHbHx3kc3zcolV3UXlRnaVglp4l6l5FQEVARUBFoC4RUDCrLtGy9HvZkYqAJSsDBCspZ/6Wkjnjwskw+A9X5YVfU8bM0pRZhoCRMC6aLGq2lNN7kPs6XIMINaliKn20JOY5WShKjtdUWuF3xXMr+ehWJGxdhNjlnhpMDBgBA8s8fQYrpdZXx6Ixgi2toyabEBA8m5bPkkYEGbfOSk6VFeRLiatSZ9V90uQCkooISq7ZGY2+Kyxf4aK5XYc++KNpR3z3YwuH6YSmL/aq7rVyKi7iuQCkSoqLVS78WFbERT/VCIRRLNUZ4T4Jo8ZMxZhx06UEZ+z4GeCNz0ePnYqRoyaLcsFtyDj5DM20acrcvGVX/N6EAKv1Z747jleGWRWbb4MaBbO+HaO6xFPLwypTb4ItgoSWrbtL50PmE0ti2bxgyDAPDBsxEcNHTsII98ly42Pe5PURE8XDbpDbaAFAVGLxmqRqkgCL+a4biOvfW5djtdV79WOjaq1V255yjS1aslLmGpZX0reP3UItvdFbjB1OL1+5gTVrtwiUpkJJi52jX7fV5zVtbuN4azctv/S41nyvv1eDYpy3CLm6dh8o3Td37d6vlFmWTji1PxUBFQEVgUYQAQWz7DTIFeXlqCgtldK3wgQD0m+cRuKu5YgN84Zx3hiBKKq88GuQRPPMYlc5w7wxiF3th8SD65H19A7KiwoktroR/OdDXFFehoqSYlHEESSyg2Tem+fIfHAFqef2i8qLpYuxy2fBFDIBxjnulX5auhG/UmkplRZzkznoCoP/CJhCJiJ+4zwkH9ksJazsbFiWnwfmmupw+PkV+O3nBFr0q8nNzcPT8Ejs3nMQvv7BUlLHcim9KxoXTbZaAJvzPfqijuWRBFosP2T5FT16CBNoqMzzIRDgjeVO+o3PqaLhz1lC2KpNT1EysHyRMKJK/cLSSw0imHOMjvYZBbMsC7Oqjy/zUc9F5g/ziPlEhQzzi3nGfGPeVb/xNf2m5WIPURwSRlCJRUBGxY7m++TY1yTjoceB12Df/sPg7TsPhCnhz15Ip8eSklKLlRdWn+1oKE9j+afhEThy9KQoNDt16S9zgqZicyZFpQa3ajfmVe/V50QdZrH0dYS7UmZVzxP1WEVARUBFQEWg9hFQMKv2sbLoOwmyqN4oTkmQ0qSU4zu08sLg8ZpXlvg2KWjyVWgivkWDNZiwdAbity9Fxp0LYEfD8sICsLTwq8qYyhJEvpfwocD4DjnPH1SWHu5E4u7liFvrD9PiKTDOHQ2WlFGJI90lxVPra7BN/eyrY9dQlF66d1agO2KXTheglX71OApjo1GSkSbQVPLQorNH49hZeXmFlPqYTPG4dfs+1q3fJibnXPxwIU6gxYVR9cW6Iz/WF3FctFa/1U7doKka9M/pn6ndQtJ6cMQa8VYwy7rjpech7/V8qs+9M+Yiz5fwjXPJ2PHTpSvfxUvXpDuoJX2yPp+pdUBvNMVJx8T5wUvRt/9QAduEOyzj065p6+aANa7buuyTucfzZVlitx4DMXLUROmKqDyzPs8Y9VxFQEVARUBF4FsRUDDrWxGy0s/LiwqlvDD//Utk3rskqizjggkwsLRNgaxamo9rypgYn8EwBU9A3PpApF46IibwBFrsKkcF3Le2ijIaxBeJSq44PUX8y3JfPkX69ZNIPrwB8ZvmC6gQLy1/vfSwukm8go6NAlx9AcCJOstnsABPeq4l/7MVOREPURhvQFlerlZu+K0kVD//TwSozqJ/VnY2S3PixZg5MHAhXAePkbImqkG0hbTzAC0u+KrDBD6uAlI1PdYXtdrP9M9WfUb/ecO5VzDLdmOp51N97p0tF/9X2XX019/bS1nlgoXL8M+xU4iIfIn09EyLdC/8z2RW+QLnMwKtrKxsvHkTJUbwLJ+mQToVbixJVjBLGcB/KX/U6yoCKgIqAioC/42Agln/jYlNXinLy0FhYiyyHt8SA/K4tQEwBrqL6bsqL6ytqokQSSs3NIgRvDeSj21HTuQjFCWaUFZUqKmzajmieukny8Oo1Mp7F4HMuxeQcmqPZhC/NgCmJdNgnD9O1GAx0mlyUGW3SQW0Gi/QqvTP8hsKY9BoJGxfgvSrJ5D7KhyEowTXajMvAgRa7G5YUFCIfx8+xabNOzF9hp8YWLNUj0oGDQjZDgDURYFQ9/dWB1oN5Zzqdh4KZtUtXnXPsca7f4Is+u2xPLJ9x36Y6TlHTN/v3X+EhMQkm3TS45zGluoJCUliBO/tMxcDB7lLdz8aqzes+azmXOM5KmWWeb8T1adUBFQEVARUBD6NgIJZn8bD+s8qTUVZgpT3/iVSzx9C3IZ50EzfhylV1hfUL18GJRrMIggkaErcs0LM3HPfRUjnQnpj1XqTskPNy0xTzqWjKMmEvDfPkHn/MlLP7K3yNQv2gMF/KAyztbJDA7tOeiqg9eVxqi2gdMb3VcIs3yGirGR3TeZh5p0LKIyLBsG12syPANUMpaVl+PAhBleu3sTqNZvEKL1j537VYBYhUM0LJ/X6l+NSkyLH3vFSMKum8dIMtp1NBWXvXKr+/cz1739qIRCFTRiGDp+AFas24uq1W/gQbUBBQYE0njB/pqrdJ3VAz86GN27elY6lEyZ5Sskjm0RQbVr9uBviYwWzapcr6l0qAioCKgIqAt+OgIJZ346RRd8hJW2F+SiI/YCsJ7eQeGAdTIungsoiAxfDVPvMUlCk9lCkUpnlPxym4PGIXz8XSYc2SmxLMtPEDP5LRvA1DmyljxY/Q1+z8sJ8lLD00PAO2ex6eOUYkg6uR/yWBYgNo0H8RE1RJ10P3So7UGqKsdqfgzMCHHXMn4wvvbN83ARwmhaMR9yq2Ug9+zdyXj1BcVqi5p1Vi5LXGnNSvShmzPRTefX6LY6fOIOFi1dIiRA7+rHckB44jaE8x5ILWy4oNe8gdltsiZ9+aSU3GoTzZ5b8rrrsS8GsKpiljxFznKCDahaWotlzfOoylo7yXsaLHntswNCsZVcMHT4e84NDcfSfU3jx8i3S0jNkjiFossWmd2t9+eoNTp46h6D5S+E2ZKwY8bNRhDafVeWBo8TRUsfB8VDKLFtkmvoOFQEVARWBhh8BBbNsPMZlBXkoTktC7ovHSLtyFAlbQzRzcf9hlcbiCmR9Agm+qdSqVMXMHgLjnFGizopbH4SMG6dRlBwrPlhaR7k6/pFaCbX4WRrEs+thUWIs8qJeSLc6Qq3kwxsRvzkY9EnSO1BqSi1dpaXGsm5j6dyAjOo8Ai3jnJECORP3r0HGvYsoiHmN0uwMAVo2nm4a1NflFxQgJTUNDx89xYGD/8DPPxj9/houC0Bn6W5oqcVgffejQxIunLWudh3QpCk723X6CAftBUwUzNIgBuNPsMhFf4tW3aTLJeHtb3+0k9frmwON5fOMI+cH5jm7F3br6SJzB32yHj95huSUVCljtuVkSbUpSw1TUlLlGDZu3olJU3zQpdtA6TBpb6Bs7dzgmCiYZcuMU9+lIqAioCLQcCOgYJatxrYSjpRkpiP/wytk3D4nCp+4lT6V5WqDEaM65NXS+P1z6OGidRmkZ9H8cYgNnSk+V3lvn6M4JV7UWWZ3lKNCq6xM/LdK83LES4vG3rmvw8W4P/X0HiTuWoa4dXMQu3QaTMEeAjMMswdXKuyUSqvRAC2qswi0mIdz3RG3ORgpZ/YiO/wOChMMIMj+andNW81FTvo99M4i0GJJELsbbtm6G55egejbf5gYwjtjh0NrLxpr3r9WsqYv7jt06islTp269Ee7jn1kMU1liIJZ7eyqkGH8CRt/b9IePXu7iZqoT78h4HgRPDYGBU/N+Vt7xRJL9giGqMhq1aYH+g8YgUlTvLBl6y6BSEZTLPLy8sWXz5bTIhVgVGfl5+cjxmASdVbIojApfWzfsa8AZXtdf/WNeW0+r2CWLbNNfZeKgIqAikDDjoCCWbYa38qytaKkWFH2pJzcjfj1QTAtnKT5LtFzSZUXmg2zCAK1Mq/hMAaPQ9K+1ch8cAX50a/BzobsVmj2JqUHFQIitDLRgsrSw7cCKqjSSjm2DQk7liBujZ82pgEjxENL89LSx1YptRoD2GKpMP3UYsM8kbgnDOlXjyPvzXPJwzqVvJqdsA3zg1wAUtGQmZklQIv+WTSEp99M1+4D0ayFVnLY0FUNtVksfu09XEgSVjFevfsOhduQcRg1ZgrchoxBr76D0aJ1d1GyaN49ti83VMqsKmXWz7+2RtPmncGOd34BwRg/cRYGuY0G/eIItKg4asjQ42t5/K2fMS6cC378mcq27ujRyw1TpvpgzdrNLKBrCgAAIABJREFU4r2XmJiEnJxcgUq2Ki/8fGbW5zM2t9i1+wC8vOeK2pSdFhtec4sqCKlg1ueZoJ6rCKgIqAioCJgbAQWzzI1cHT9XUVqC0txs5EVFIu3KcSTuXiFeWcbAUaq88JulhJ8rsWp6Xk0VE+iOuE3zRZ2lqWKMKMvP0VQx9fXEqCiHVnqYD6rsqLhh18OsR9eRevkIkg6tl9LD2NDpWvlowAhR6hh8BsPgpfzQGgXMojpr9mDxcItb44/kf7Yi6+E1EGSzsQC7ZqrN/AgUFhYhIyMLr99E4dLl61i6bA3GeExHz96DpYxIV2h9a7HbWH9OzyUqVbr1GISJk70x228+5i8IxaSp3nBxHYW27XuL6ocgwB4+ZApmVcGsX35rIzk9faYf1q3fikWLV8DTOxCDh44DlXRUbdlrnBz6+qkEWZwLmrfshl59hmCcxwysWLkBV67ewJu3UcjJzUVRUZF4ZZk/G9X/kzSef/8hBpev3MCatVswcbIX2nXoI9doQwXzCmbVP2/UHlQEVARUBFQEtAgomGWjTKDvUnFaMrKe3kHSkS3gItfgPxyG2UOqmYbXBGnUa7UGICzzmj0YBv9hMC2bifjtS6WzYf77F6AZvJQa1hdmfZYvmkl8AQqT4pD75pmUjxJeiEH8skqDeJr70xNNgFZ1Py2l1Kr12FoEeNroWqJK0Jtm8MNgCp6AhO1LkHb5KPI/vBSgTXWf2uoXASoauBjlIvCf46cRvHA5Ro6aLAqtps272N33yVEX+lRk0Uycqqwhw8Zj0ZKV2LhpB/bsPYi58xZj+MgJ6NCpX6XRuH2M4BXMqlKw/Pp7W4GLQfOX4MTJs9i3/7Aoizy95gh4pIeWps5SDRA+XnPfN8P/fmguiqw/m3VB564DMWr0VCwIWY7TZy4gITEZuXl5KC0rE6Vn/Wai+n+a5dNZWdl4/eYdTp2+gJCFYejXf7hAODZmsGfJ78eYWrhTrIJZ9c8btQcVARUBFQEVAS0CCmbZKBOo4sl78wypl48ifsdSmEJnqO6FFgcUld5ZswfDOG8sYpd7aqqYp7dFQcXOhJYGCVTZEGiV5eWgOD0ZBYa3yH7+ABk3zyLl+E4BGbFh3jAtmFDppaV1rFQqLRuBJYvnWG2OW/NJI6g2Bo1G3Fp/JB/ZJOqsAtMH5Z1lgTmXZUE0UGZ7+1ev3+HsucsCZkaPnYau3V3EQ4ueQlw0WWtB5mz75aKY4INm4jTO9/UPFiP9EyfP4fSZi9Ihkh3V6Nmjdc1TMIsxs+c4U0FHpRw77507fwXXrt/G+QtXsXHTdsz09EeXbgPEEL6q3LCR53slyPrhp1b4rUkHAVljPWZgaehq8aWKiHyF3Nw8lJSUCMiyV3lh9SmQYJ5q08SkZPHx2rf/iKglBw4aJf51P/7SGt/ZucOopa8BBbOqZ4B6rCKgIqAioCJQnwgomFWf6NXms2L8Xo6iRBMy71xA0sENiF01G8Zgj2peWbVZIKv3fFvFUwkRvFw1FZT/CCRsX4y0ayekvJPeWRUlxbUZNbPfU1HCctIcFCaYkBP5GGkXDmoG8at9xUtLykr9h1aptOwCW1QufTuX6h8jMYOnd1boNCRsW4jU8/uRE/FvpXdWuTKDN/sq0z6oe2hR2RAbm4Cj/5zEvOClGDZiAjp3/Ut1faumptBBllZe6IJJU7xFkXX33kM8+PcJbt95gNDla6qVGbaW8jV7wEClzKoqM2TnwnYdeouqiB5xL168xps3Ubh46RpWrtoAwsdWbbpXKhH1stBGCrQqQdb3P7XCr390QOt2vTB4qAcWLlohIOv9h2hkZWc7hBqrpqmvoLAQcXEJ4DW5Y+c+zPScg/Yd++H3Pzvih59bNSiFloJZNWWAek1FQEVARUBFwJwIKJhlTtRq8xkavlO1U1KMsvw88VVKPrlbOpwZQybBGDASBm+95Kz+C2dbLM6d4zsqgZa3G2L8hgo4TDy4Dhl3zmtm8LnZtRk9s98jBvFFhSjNyhCAmfv6GTLvX0bquf1I2r8G8RvmStdDwxz3Si8tN+WZ1lCBHssNfYfAOH8sYsO8kLh3JTJunNa8s4qLxHsNqDA719QHyQPZFUwzhQ9/Foljx0+LCoOm8D16uYJlWLqqwR5gxtKKhrruj+dM3x16B1GR1a0HQZYXNm3ZiavXbiE62ogXL9/gzt0HWLZ8DQYOcq/0zFIwi+DPnsosjp1eZkhIe/HSdbx8+QYGYyyY6yxJW7xkBdxHTUbrNj3xy2/tQD80HnPjynWtOyfVaT/92gZ/Nu+Crj1cMH6iJ0KXrcHxE2fxNDwCKalpKHQAj6wvzdtUi2VmZUvpNLu1bt6yS/yzpFtry674pTIfG8LY8hyo/vyzWSd06zEQI0dNlFLn1LR06Vj7pRip11UEVARUBFQEVAQ+j4CCWZ9HxFLPCbPKKsvPUhOR9fgmEneHIXaZJwz+I8UrK8ZTeSZZB5C5IIYm3AQJIRMRvz4Qycd3IOvxDRSnJkhZoHSVs9RYV99PNYjJssbSbB1qhYsyL+X4DiRsW4TY0BkwBXvAGOgune/YiZEdGa0TDwVL7RJXerhJZ8NhosSMXeOPlBM7NZVgTqZ02GQzAbXVLwJ6yWF6eqYs9rnIX7FyPTwmzESvPoNF2WDPsrm6AihLvp8gi1CmZesemgn2eJpgr8fNW/cQHW2Qbm4xMUaBWaHLV2OAy0i0addL/IbsZT6tlFlVyizCLI4H/czOX7gi+Z2YmIzY2Hg8f/5SfLSoPBro4o427Xrj9yYd8dMvbQRg2hPEWTKHv7Uvdt0kyPrtjw6S5917uYGlhavWbJLSTMLa5ORUAVks6XPUjcdGoEX/LKMpTmDz6rWbMXW6L3r2dkOrNj0+jq2zAy0Fsxw1C9VxqQioCKgIOF8EFMyy0pjpHe+KUxKQ++IJUs8fRNz6uaAqy+A7VFPjNFRFiiOcl4AEN7Csz7R0GhJ3hSLt0iHkvn6KorQklBcXAhVW+MNWykorVXllZaLMYxfLouR45L2LRNajG0i7fATJhzYK1IpbNRumhZNh8B+BGL0ZACGnAp0NAOxxHLXOhoSW7HCZsCcMmfcuibcay17Li4tUuaEF5mCqs+g7k5SUgoiIl+IBtXbdFszyCsQAF3fpDqZ3OeRCSr99a6HsjD/Xz+27H1oI3Gjbvg/ovzNjlj/Wrt8iUORd1Aekp2eI75jRFKtgVkYmbt2+h3Xrt8DDY7p4UTmKMoswKzBoEc6dvywwKyUlDQS3LEl78vQ5/jl2SsoQ2a2P0KN1W6q02kpHSj0X/vd9lam8M+b0f4+ZpZTadcyGBmz60KXbQLgNGQfv2UFYu36reItFRr4C4V9eXj7K+PvYwg1gLDB1fdyFVjZdIfOYbgjPbq3rNmzD9Jn+cHEdLWDztz/ai8G9NrbOOa48dqXM+jj06oGKgIqAioCKQD0ioGBWPYL35Y9WaBAjKx35718i7dopJOxdJR32DOxs5z1YqXCsDrwqQQLVWfPGIG61LxL3r0H6zTOijGF3w/ISlnpZ37tIFHoFeSjJSEVhXDRyX4Uj88EV8dNKOsDSwyCYFk+BIWgsYvyGaVCLZZJKqdUggJaos/yGwhQ8HnFUCZ7chewnt6QMlY0DbJGDX56rGs5PuBgsKChESkqqLPqvXLmBzVt3w8d3PoYM8xDvIZa1cBFFg2h7KY/+uzC33IKUi0Qqcn78ubWArA6d+mOQ6xh4egdi/cZtuHrtJgiyMjOzBGQxZoQiLDOkMuuvgSOUMstBYdbZc5ckr9PSMpCfXyBG5vEJiVJCx06Hy8PWYfykWR/HUM/1739k2aHlcsya+VubfVOJpamxWolXGBVL3Xu6YtToKQgIXIidu/aLUT69xTgXcE5wdJBVfRYur6gQhVZ6RqaUHBJoEc7xGnZxHSVgnqCVPlrOOocpmFV9xNVjFQEVARUBFYH6REDBrPpEr6bP6uWF+bkoSoxF9pPbSDy4AXGr/WEMHi8KHNXJzlZlb1VlXqZFkxG/IRBJhzeJf1aB8Z2UAJYXFVZ6F9U0mBZ6raJcSk75XWV52dL1kFArJ/Ih0m+dQfKx7Yjfthixq/xgpEpr3lgY/Idr0HOW5gFmlzI5qwNHW+WBfb+HRvAxswfDEOguKsH4rQsFZOa9i0BJeoqAbwFaFkq3xrwbKrSKioqRlp6BD9EGKafbs/cQguYvxchRk9G77xCBNU2aalCrajHovKbZmkJDg1g8H3ZxbNaiqyhVRrhPgq9fMLZs2Y3LV24gxmCS0kK9mxtzRcEsSFdMR1dm6TCLqiyqEDmGVBxRefTq1VspqVu1eiO8vAMF3tIfrVmLLgJ89BzhPRVN2s15AJd+/AS19AVjh78/m3UWsEPV4aTJ3li8ZBXYCfD+g8cwxcbLmBYWOhfI4vWoKbTKUVxcIsDy7bv3uHzlOjZv2SldDtngolPXv2RsNTDvfD5pHE+lzGrMv6nVuasIqAioCFguAgpmWS6W2p4qKqSEjSqcvKgXSL96AnEb5sEYPEEzffcZjBgFKGynuGG5oc9g8aai+iluYxCSj21D9tPbKIx9L53lyosKbKOOqeanVZafC5ag5n94qZUeXjqCpEMbEL8lBLErfGBaMFHLF5Ye+rhBgIgqPbRd3lgS5EnJq6vmjRY0Gqal05G4b7WoswrjY8BcqCgtsfRM1Kj3x4V+Tm6uwJt/Hz7BocPHsXTZGkyb4QfXwWOkjIzm8KJw+ImdwlqI2qM2yhBHeg8X97zRM4hqLJ5P0+adBdqNHTcdwQuWYdduTakS9T5a4MfnieGYMIvqspbi4bVp8w7cu/8QNIcuKrZON9oMJygzrA6zCDp06EHlEcvSqESiimfb9j3isTXWY7p4xrVs3V3AASEn80RXNjlSHn/tWAg+9BwnAPmtSQeBtd17DsLQ4ePh4zsPa9ZuEf+wx0+eIT4+EYRY7HLKGDn7xtx8/z5aPLSoOiOYHz12WmWDi274vUkHAZYcW8bpa7F0lJ/pMIv/VCB0HeE+QRnAO3uiquNXEVARUBGwUwQUzLJw4OmVVZqbBS5SqcpKObYdpiXTtM51qnTMDjCistzQZzAMASNgWjgJ8ZvnI/XcPmSH35FxKs3OREVJiQa0LJwP/9md7qlVVip+SaWEWqkJyCPUengNqecPSNe7uDV+oJrso0E8lT3erpWlh6pxgNMp1So93NiUgHnIpgTpV48j7+1zUWcRqKrNchGgmTJLi7jQz8jMwus3Ubh+444s9P0CgjFy1CR06zEILdv0lMUxQZAOtLjYd2zliqas4cJVV2Kxk12Tpp3FL6lr94GYNNkLYSvWSXdH+iolJCRp5VY1GGA7HszieRFmtbIpzLp56y7Wrd8KD48ZomrTPLNa2C0XuODXDeDpmfU5zOLVQlhDNSLBTXZODhITk/Docbj4aIUuW4sJEz0FbDZr2RUEB9XhrTMotHgt8rpkWbCW452k2yZB1uhx0zB/QahAEKrq3n+IkRhQmcnrvyGALI4xx7agoEBM4R8/oUfaaSkpHTd+Jnr0chN1Gj3D2O2QpYdV85fjqk2Z27y+mZOcr4aNHI/dew4IsM4vUL8LLfebUO1JRUBFQEWg4UdAwSwLjzEVFsWpich9HY60S0eQsH0JjPPHVoIIVTJmHwihGaobvN00oLVkKhK2LkTqmb3IfnYPBaYPINASM24L50NtdkeQQTPwAlMUciL+RcbNM9L1LmFnKOJW+YpBvJFea/5DP1NpKahln3wys2yRQItdNn3cYAqdjuQjm5B5/zIKjFFS8lqbXFHvqVsEdPUKlSsGo2Z0fvDQMVkM0hyeyg5CreYtu8limYvm737Q1SuOV47FRaC+wCfIovk1vZHad+yLfn+NwJhx0+HrNx9UM7H73fOIF0hMSkZBYeEXA6fDrKWhqz76LRHusZxL+z7bLooJ6XQlDrsr2kqZxQ6PbBowzmM6OncdIOBHA5y2zwM97oRPNICfM3chzpy9iBcvXov5O5VZn28EOMXFxUhITMLziJc4e+4yNm3eKT5So8ZMRf8BI9Cxc38pz2PHQ/3c9O9yBICrH4t2r4EsHiuhh5bjwzFm3DQpt2Mzg+MnzoDKSzYxoBKzIW9SUpqUjGfPX4i5/YaNO+A/J0Q6N3JsO3TqJ6rMz8E8Y+kIY1tdFcZjYqkox5XX2uChY7Fz9z4FsxpyAqtzUxFQEVARsFIEFMyycGAJRApM72WRmrR/DUzLPWEIHAmDjysMXgpm2Q8+VCq0CLT8h8M4f5wYr6ee24/s8Ltixs2ug/bY6JdECMpys5LMdBQmGASGZtw6h6SjWxDPLphUac0dBYP/MBhmuymVliXLAG22r2owK3g84jfOQ8rpPch+/q90u7RH7jWW79TVDampafjwwYC79/6V0sMlS1fBY8JMdOvugqbNu1YCLV2lpZceOsZikAtADfS0ENDEsqImTTugfcc+GDJsHLx9ggRe0Bsr/FkkYuMqfYOKikSp8qWxjo2Nx63b97E0lAbwI9G6ba9Kk/wqLx4NLlR1gbTm809hljs2brJNmeGNm3cFZrE8s0u3AdIRUPdUs+b5fnHfPzTHr3+0Q5v2Gsw6feYCXrz8MszSwS39tLKycmCKjROodeHiVWzbsRdUJA4bPl7gAQGoDj0cRZGoxUEDWDwm3niMBB4dO/eTHJ/tr4Hai5euifE9ATXLT6lc4jXekDcqTYuKikRpGhefgMgXr8VLi8Bytu88DB46TmDlb390gA4r9TgSgDO+1YGSPR/zWKjM+uPPjnLMLq7uoppNSU2DUmY15CxW56YioCKgImD5CCiYZamY0iurpEhgRO7LJ0i7eAhxm+ZXmr4PrabMMlPVYbMFd0M+vmpAa/YQmBZNQcKOpRCg9fQOxBQ+JxNS8lVh/S6HH1Pv89LD3Gzx06JBOLseEngk7F2J+I1BMC2fCWOwh+an5U1AOggx4qWlVFr2A6W1v2YItAm2WT5K7yyOa/qtc8iPfi15V1FW9jEt1APLReDThX42DAaTlGOdPHUO6zdsg3/AAniMnwnXwWPFZ4gqB6q1fvujvSy6qGz4EnSoX7mWDspq3j/3ramUWolSiIbe7Tr0Acus2Hlw1JjJmOXpj9Blq7H378NSSklvrKSkFOTm5YmJ9LdKrqjM0mBWlTJLN5b+0jlb63UdZHERTlg3wMVdAJ0tPLOozGKZ4bjxM6T0iWOvd70k1LLtrSW+/6klfv+zI9p26IMvlRl+foVoeV4hYCc3N0+6+b15G4Xbd+5j/4GjUnpK6Dl6zFTQOJ2qROYTGwawjI+AgWPwpfGtyvWqvP3ma4Qolbcv7ZexpUca/Z94LFqOu8r4U1U2y2sOli5bjb/3aTlOU3QqDnmOhHffyvHP4+SMz/U5jKo8qrQIft5FRUvnxr1/H8KS0FUSJzZ9oFKra3cXtGnXGyxB1MpLdU+tmucajo0+TlVjWtcmAVpefGmc5fVKjz9eX63a9ESffkNFXcb8ZAfHr6lInXHc1DGrCKgIqAioCFg3AgpmWSq+FRUozckCu9RlPriM5MObEBvmKWVtLG/TgEPtF73OsDB3zmPU1HHsKGmc4w5TZclhyqk9yPr3mpT6UR1F7zPYEmjpecjOh1RpFeSBTQQK2PXwVTgy7l8Wn6/Ev1chdrUfjAsmwEAfLZrDi+pPh1oqxxw6L/VSQ98hMAaOQvz6IKSc2Yfs5w/+v7378I7qzPI1/Cfdme7puXPnTo+ne3r6dnK7p6dtcrQJtmmyJCRAgASIIBFEzsnY2GQDJieTTM45qHKpSqUcSnnftfepkmWMiSWkUr1aq5YMlErnPOerWuv8vPf+LAjXHS/56jgBvenVCo6qqmoLfO7ff2RtSt/sPyLrN3whc/MXSVp6ts3U0pusX77zR/n5L34Vu7n/YdVIPHhxqh5+OgB47o2dVUzozzqPeCWFfo+3E2p1yj/+XG/8/mDhg7ZGjhqTJbkz5lrQs33H16JVRTdv3hWtsqqsrLYbwqbm5udWZMWVn9VmqJUdGjA8L9h4/nn99A3zT/1c3FO/O+GGzsx6e2GWBnpLl62RYR+Pld//sYf80z/rjpf/3qkPnYP269/8t0yZOtt2K9RdC3UguLYTvuhLK3mi9fVSXl4hPn9Qbt+5L2fOXpCdu/bJqtUbZWbePBkzbqL0G/BxbFD8H6xSRgOt+LV3rolTJRVfk/G1+tLfNRxr92i/xvW/9Xf9r3/8pb3PNHz547u9RAOZMWMnyoyZ82TFyvU2+03Dxpu37thOhdo2XFdXL01NusaTf8j7i65l+393PsO0SqtBKiq/r8DTmYBbt+2yNTwtZ46MGJnRtqulfnZoWKnhbPy6/fA6OK29dp3aPpNe/T3svLfjn2XOa7b/Pfr6zvX+d/ufBb/93d9sl9mJk2fInr0HbSMDDSf5QgABBBBA4GUFCLNeVuoFz9PwoyHsl6qbFyRyYIsE1uTZsHEd+Fw07oPYDoYEDV0jaIjN0MroLTqLyps/VgKr86Rkz0Ybwl7nui/NtVU2Q0tbAOUt74hkbYc6ID5aZ7O8dEC8Vu5oO2Tk6E4JbVsh/lUz7Lg9Mz4V99QPrXXSwq3xPdgts6tXMcaHwWf2EU/+eAl+sUjKTu1ndtYLPmMT8c/x6gbd7bC2ts7mD2mYozvBnfvukny954CsW79Z8gsWWbXW8E/GWfvOu+/1siBJ57vo7B6tKNDdELUFSoOmf/jZO1bVotVE3wcBWlX1/UOHmutDAwJ9noYGOvNKbzK1NUhfS6tS9LX/49fvyW9++1f7nX/5az/p1XuItUOmZ0wRbY1cuWqD3eDrDazO0HnyxCXaQqkhnVZuaJCl56qPF32FQiVy9doNO2+tgBk4eISFSFrd8Ze/9pX3/vvtPPR36bnqQ6vO/vbBQBmfNlm2bttt7XLlFRUvFeK86Hyf9e+VVdVy9epN+WrrbpmZN19GjJwgffoNt0q9D3p+KJ3x0CrBfgM+sXBt+Yr1cvrMebvOlZVVouv3RV8aejitaQ1WwaTteB6v30JPDe527d4na9Zusqq+jMxpMnT4WOnbf7hV9WigpEGDzth651d/jq3339m8LW0N0wqqn/2TrttfPfOh7wl96L/r83/xv/9TtKrwX//t9xYQx9e3Vhj+6c+97Fr37T9MPv50vEzIypE5cwvt2HQmlga1OgOsqMhtlWY6G0uDHD03DbJeZo2/yCqZ/j3+vtbB//pe1/e8vocfP3FZ6+Wx46cs1NL2w5mz5kt6xlRbQ737DLH31R/f7fmja6ufO7oLql6rn/3CuW76maafT1qlqZ9V+tDPrfaP+N/rczSQ1OdrFZi+zj//y3/Jv/7b76xtWSvtdC3pzoXvvtdb3u8xSLTibtToLAtVdZfG785ftoqzl1nbyXS9OFYEEEAAgY4VIMxKkG9rc5PUFd2zliG9OfXNTxf3lMFOe+FYWsC6RojVLkyMV8ik97Tr5J0zygJIrdDSofANkWKbYeVUaL34hjBBy+jHL2OVWk2i87yiQY9U37smZecOWWtk8eaF4l8+TbxzR4s7Z4gzT0t3baT1sBN2zWy3tl4YpsXbXXtY4B1Ymevsrnn9O6kP+3+8BvibDhPQG8PGxiaJRqMWBj148FguXLgiBw4eEx0UbzeEefNEQyStdBj80Ujp1Weo3fBr9Y5WzWj4pK08P//Ff8ZatX5pFRDtb/ra/7dz4/fvFgjoDd//id3w6Wtp25cOcu/dd5gNuv77yAzJzMqxGz5th9Q2q737DtnMrzt371vFjc5H0pv71/3SSp+HD59Y5Y/+Dg3LJmfnyeTsmTJp8nSZ+FYfM2xgefaUmTJlap7Ny9IwQ2/UtW2yo+Yi6a6Xjx8XWbvlF1u2y5KlayRv9kKZPnOeTJ9R0DmPmfNk9txFsqBwhQ1zv3X7ngSDIZsPpUHO63zpz1VV1UggGJJ79x9ZgKBVidripec8a85CGyo+euxEC7cGDPrUAr3//p8BtnPef/2/v9qMtnd+9Sf55Tt/kP/7y98/5/GHWHD1rs280l3rNLjSuWy9+w6VwR/9XT4ZMV7GpU2W7Kl5ohsQaBWWvu90zte57y7K3XsPxO8PSFVVlQWZGtDx9WMBddF5WuXllVadqfO0Tp/5ztaNrmedO5c3a75MmjxD9NpqSN9/oHNt9fNGP8t0Ttyvf/OebTig11XDx1/8y29iweWvLbDX3TX/4WcawGto9U7s8avYZ5mG8b+19fDOr9612Wx6vf/nbwPsfwgMGjyi7XpPmTZLCuYtkdVrNlmloBPUuu1zTKvt+EIAAQQQQOBlBQizXlbqOc/TOTfaFlZ544JV9/hX5NgOdDpo3IIFwqwuFi7EKrO0RS+rr+02qe2Get20PVTbDaMBtzRVlVvLn1VnPef6d+g/aXWFDohvbJDmmioL2WrdD6X61kUpP3dIwns3SWBDvvgWTxLv7JE22N49aYC4Mp2dD7+vCiRQ7VKBqlVn9bC1552XLsHPC6X0xF6pcz0Qm5v1EhU1HbruUuTFNczSG8H4gHgNdnQ3OK0C0fDgwsUrogPVt23/Wtat2ywLC1fI9JkFVj0ycnSmDBk2xqpntHJHK5j+8CetenjfbuT0xv/ph94w6k39H9/tIX/+S2+rgNJwTNuq9LX0NTMn5lp7VeGiFVYttX3HHjl0+LicP3/ZdrN79LhItJosUlpmFTfxKpXXvWRaoRYOR6wNTSt29Hdpy0/8obvovfXH3oN2I6435DoDTKuKtAqluYPCDK0GUc94dYveXB85etKu/ZGjJ6RzHidtBppekzt3H1hbrAZRGr6+bmudrvX4zCWdTxQIFNuGCBp+XLh4VY4e+9Z2CNQZTBqA5BcslpzcuZKZlWttf1o5pbsJDhj0ifQfOFy0muqnH8Ol/8CPZdCHI2TY8DGiwaxW2k2cNF1m5hXIgoXLZNXqDRakaUWkVhQrMz9OAAAgAElEQVRdvHRV7t59YBVoemyRSHyNp8ZcrNd9D+vnmAaV2laqlVr6ftHPCF3PGnrrjo96bbUaTwPx5SvXSf68xZIzfa593owekyWfjEiTj4aOsmvbp99Q6dHrQ9HdRLVS8r2/9BGtTv3Tn3vaZ5d+fulD//zn9/rYc/72/gDp2etD2yFWg0pdK2PHTbLrrYHw/AXO9d7y5Xb7PNGQ+tKla1YVq8eqraNO2yiB5euuA34OAQQQSEUBwqwEXPWWhgZpqiizYd3BzxbarCydx+SaoFUyhAhdKkTQYFEHpmuYMKG3uLIHWXWMt2CsaIWMhlnl5w5L1PvEZhhpiNSpYdZT61MrAHWuku166C+SqutnpeTwNgl9tcyOXysCPbbz4WCnUiutR7sB8azFrrMW3xdX2gc2U8+dM8w2iwjtWi9Vt6/Y9SXQemrhd8IfNeDSiq1w2GnhuXzluhw77twQbty0RZYtXycF85ZK7owCqyYaN36ytacN+3icBVMfDRstTz9058SPPx0nI0amy5hxWTIhc5pkT51l4VXB/KUWIOjNpt50agvhlavXRcMrDZs0dNIwQh9685qoL21J1Jtgnb+jQ6U1zPP5/PbQqhh9BALBTnno8eiQbw1gEn3e7f30ta31tC4q2nJYVl4hkUiphQIacnXWQwOnsvJya79SA73Z10ufqOsfD3Od6sR6O18NcrWtTwO9g4eOi4apGzd9KStXbpCFhctlTn6h5M2eb6Guzm3LmT7nmY/cGfkyI6/ABrfPX7BUli5bba2Dmz/fautbw0INWXSWl9vjs1lgug4TdW7tr2+q/7fu9qjrWXd/1ODy7LmLFlrv2LnHwi1tWy5ctNI2CMibNU+m5c62ykxtP9UNA8aOmyijx2bJyNET5O+jMtoeo8ZkWsiZlpYtWVk5MmVKnuROn2ttohrGr169UfR6a7uo/k8BrXrVcE13Wi0tLROtiHzdKsNUv6acPwIIIICAI0CYlYCVYC1gvidSenSnBFZNd6qyMnpTlfXCdqtXac1KwHPbWgt72OB0HcCt1Uy662TxliVSemS7VF47Y0PgtSpLdzW0ICuBN45vvNy0UssCrTpprqmUhkhQat0PpOr6OSk7sUdC21dLYNVM8eSPFZfN0uorroyesd00md3WlcIsq5rTttCs/uIpSJPApgVScemkNFWUOoFWJ8xre+P12Y1eQAMOq3aIRp2gJ1xiLTxa7aA7xOnA9StXb8r5C1fk1OnvrJJn/4GjNndLd0nUG7j4Q8Mpfez+er98vWe/7D9wRA4fOW6BlQ7lvnjpmly9dssGXOv8Lp2BpdUKOgdLZyTpzaiGa3qjn+ibfT1PDbQ0LNHfo6GZ7pbW2Q89Dt3ZTEMmnQ+U6PNuv1T1tbXqS43VQUMV/d360P/uzIdW3ulxqUFHzIjSc7c10NRs4YKGeVrZo6GmhkwapuqavH37ns1nu3L1hly6fM2qqLRyUQOKtsfFq7H/vmxVjVpppSHw1Ws35cbN2xZc6aYLur410CgOhW0HO60msvN8zfbJ9teS//6xgPM55lRtabWb7gTp9nitckuvrQZcGmDqddJrpvOr9HNJq6e0Yk6DKK3Y1PZP/ezSzzl9HDx0zP7+2LFv5dtvz8rZsxcsoLx0+bq9nla3OtfbbZ+dusuqVr/Gd6HU49K1xxcCCCCAAAKvK0CY9bpy7X5O5ytV37kqOm/JtyjLBnJ/396VgBCmq4VCyXg84z5wdv7L7CPuSf2d9q65o8W/crqEdq6R8rOHpOb+dWkoDUtzbU3XC7Harben/1MDN63U0ha1igvHJbz3MwmsmyNends242NxZw8UV1Yf2/2QddmV3o/O7Kyi8R+Ie8an1uZadnKv1Ac9Totrc5Ozo+bTF5w/dxkBJwhotQBEb9B05zir6CmJSCgUbntodVf8oUGBVttUVjkhlYY1HRnUdBksDqT7Cjz9P3ye/nP3PfNud2YW7DZrpWKTBYwacNfU1NjcsorKStGNGOIPbQ3UIFKDbw0jnRbYjg2eux04J4QAAggg8EYChFlvxOf8cNT72FoMtbqnbfC7DuFmVlYnz8qKtROm9XBaCrP62aB0b8E4CayZKeEdq6X05B6pvH5O6twPYkPfa2w+VZeryHruOm2V5rpaaSyLWHtk9e0rUnb2oJTs+0yCm+aLrzBLPLnDxWZpaWulzgpjSHwnr814qPa+FKX1EHfOcJt7VrL/c6m+e00aSoKdP6/tuWuOf4wLODd/TmWTtiU61U0/XdlUW1tr7Yv12p5uFTfOzoPx1+M7Aggg0FkCTkDvVKVqW6uG7fpoaGiwIfP6GRd/6NB5fei/6XO10kp/Xh98IYAAAggg8DYECLMSoFzz8JaUHPxKguvnOjvLTR5Ei2GnVm/pbCin6kXnYlklVs5Q8WhL4eJJFvBEDn4plZdPSp3rnjSUBKxlT2dR6ayi5AqyRAeoWOthc33Udj1siISlzvtYqm5ekNLjuyW0dbn4l00Tb/5YJ9TKHuRUaqX3jAWuMa9OvWbxcCfFvuv8Ng1bpw2xILx42yopv3BC6nxF0tJQL7abZgI+o3iJjhOI3/xpu4w+9IZOHxpUPesR//f487nx67hrwysjgMCrC8QDqfafUfH/fvrzK/6Zp9/jP/fqv5GfQAABBBBA4PUECLNez+0HP6U7y4W2r7I2IU/eCBvqzC6GnRFKxCqxxn9gM6Jc6b3EPWWwMxdrabYEP5sv4a83SNmp/bYboFbUNZZHbCfK1qZGJzhobbFw6AcXOBn+0NpiIVxrkw6Ir5OmynJrV9PWyYrzRyRyYIvNBfOvzBXvvDTx5A6zWU26TuMPp5KQIfFvda5WbFdDnW+mc86CXyySspPfSG3RfWmO1jo7GybD+uMY227k4jd0L/sdOgQQQKArCrzsZ1j8eV3xHDgmBBBAAIHuLUCYlYDrW3H1tAS0nWuR087lyupHZdZbrfKJVWGN7yGujN5SlNlX3JMHinvaEPHOS5fAmjwLGyPHdtmA99ond6Uh7JemyrLYznFNCVgFXecltLJMd2Fsrqmy1sk6z0OpvnVJyk8fkJK9myzU0wo1DV51CL6tV2s/7CXOTK3OCCJT9HfGw6wpg8UzZ5QENs6TyJEdUvPodixk7V5rs+u8SzgSBBBAAAEEEEAAAQQQSGYBwqwEXL2Ki8fFv2qmeAvSxJ0zVFxZfQmz3kqYFW+Pe1+KxveQIt0ZbtIA8WhL4dzR1lJYvHmhhL/ZbNVJNQ9uSH3IL01VFc5Ohbo7WHfcMU7nVcR3PWyot1CrsaxE6lz3LcwrPbZTQltXSGC1s2Y9M0eIO3uwhYBFaT1jgVY727dyLVM8zMoebG2wgfVzpeTQV1L76Ja0RGusfTQBH1G8BAIIIIAAAggggAACCCDQrQQIsxJwOSvOHxXfihzxzB0r7qkfiSuzDxUuHR6AtKvGSu8lRZn9rKXQM+vv4i3MkuDGeba7ZOm3+6Ty+nfOgPfSkFPtkkq7xFmo1SwtOqC1skzqg27btbHiwjGJHPpKQl8uE2s9zB9nQ8hdkwba+nWl6ZD4Hqzjjl7H8cqs9mHWwa+k5uFNwqwEfDbzEggggAACCCCAAAIIINA9BQizEnBdy787Ir5lU8UzZwxhVkff/NvrO0GWVhHpgHdtk3PnDBHv7FE26Dz4+SKJHNst1XeuSNRf5LQTxuYPdctKrBetYavU0plazbZDXlN1pbUfavVPxcUTUrJno/hX54l3frq4Z3xiVVqurD7iyuhls8fYlbMDq8ZiYZbOdrM2ww0FUnJ4m9Q8ukWb4YvWNf+OAAIIIIAAAggggAACKStAmJWAS19x6aT418yy3ci0xY2ZWR11899uwLsGLTqbTOdizR1jw/eLtywW3aWw/PwxqX5wQxpKgtZSqPOjRAe782UCNiQ+WifaeqhD8LVyrfTkXgntXi+BDflW2WYbGeg8LQ0Ldbe98R9Ike68p7tEvpXAsqPWUBd73XiY1TYAvlBKT+6TuqL70hKtYwA871kEEEAAAQQQQAABBBBA4BkChFnPQHnVv6q6fs52IfMvzRbPzE/YzTDhYYcTotiue+kfiGtCT5tLZjsV5o8T/9rZUrLvM9FQsa7onjRVlTtVLY0NThgQmyH1qte1Oz/fhsQ3NVpgEq/Uqr57Tcq+/UaKv1ouvqVTxT39E3FPGihFmb3FldFTXGkEWgkP8uJhllYWzkuzWWYV549J1PtEWurrnR02u/NC5NwQQAABBBBAAAEEEEAAgdcQIMx6DbSnf6Tm3nXbJS6wdpZ454yynfSskoUqljes4mlXiZXWQ4om9DZbrRryLZwggbWznV0Kj+6SiqtnbMB5Y2nYdvLT6qO2lkINs/j6kYAFWrHWw+baaqkP+WyelrbNluz/QoKfF1rFm6dgvLinD3dCWq3U0l0jqdR6w7UdrxB73yy1otNXmGmfI9W3LtpGBTrnzNbwj64cf4EAAggggAACCCCAAAIIpLYAYVYCrr/uEld2cp8Uf17o7GiYPZjdDN+4Ois24D29pzO7KbOPuCYPEt15z798mg0uLz22WyqvnZXaJ3fb7VIYTcAVTb2X0NCkJVorjeURiQZcTqh14biUHPxSgpsXinfRJPHkfizueOuhzdNqv/NhPJzh+8tXb31fcejJHS5a2Rk5ss2qC/U6tDY1Emal3luRM0YAAQQQQAABBBBAAIGXECDMegmkFz2lvtgrldfOSGj7avEumCCuKR9KkVauUJn1itUrTiWWzWYap+2EWok1yEIUnYvlWzJZAhsKJLxno5SdOShVOuDd98RmPzXXVElLQ7206k6FfL2GQKuFJzqnSds060sCtgOkzdM6sVfCO9dJYO0c8S2eLN45o8WTM1zckwaIK6O3M0urbZ4WM7VeJcyyKrf0XuKZNVICq2ZK+en90hD2S3NNpdNiyKy311jL/AgCCCCAAAIIIIAAAgh0dwHCrARcYR2krTvDlXzzufiXZItbh8BrW5zd4FOp8nI39067ld3c68DxjF62q561FC6aKIF1cyS8Y41E4i2FRfeloTTkzMbSAItWwgSsZDFHq9JqrJfm2iqreKt5eMvmkUUOb5fQtlXW3ulbmCmeGZ/aTC1XurProV67onGEuC+33v9mnw9ml9nPKjqDG+ebs4aJLfVRZ02zrhOzrnkVBBBAAAEEEEAAAQQQ6FYChFkJuJxaFVQfdEvk6E7xr5xug7OLMnS2kN7YE2b9tIHTZqUBiIVYWuWT2ceqsTQQ9BakSWDVdBuKrUFKxZVTUvv4js12aqosj+321m42VgKuJS+hAq1WFaRtbk211bHWQ7e0hVpHtlmbp39lrnjnjhX3tCFO+2FWX6vU+mGoRaXWs9d/LLzN6ivuqR+Jf8kUCW1bLdW3L1uQZRWGBFm8HRFAAAEEEEAAAQQQQACBZwoQZj2T5dX+sqWxXpoqSqXs7EFrg/PMGSOurP7iSteZQtzM/9TNvLVh6m5uOlBcwz81m/qReGaPFN+iSRLcNN8GYpefOyw6ZL++2Cc6qLy1sZFKrFdbom/27NZWa+FsrqmWaMAt1XevSPmZA1KyZ6MENxaIb9HEWOvhMKf1cIK2Hrbf+ZD3wI/eA7ru03uIO3uQeGb93SoPIwe3Su3ju1Rkvdlq5acRQAABBBBAAAEEEEAgBQQIsxJwkePDs3UYubZhaRDjmjZEXFqpwuysZ1enWYj1gRP46Q55E/uLO2eYePLH2Wymkn2bRXfVq7l/3QKUpsoyG1CuuxTSUpiARfuKL6FrXCu1mmtrLLi1IfEPbkjF+aNSsv9zCW7IF9/8dHHn6q6HOksr3noYD7WoUPxBoKXrP6OneHKGia8wS0JbV0r5uSMS9Rexvl9xbfJ0BBBAAAEEEEAAAQQQSD0BwqwEXXO90dfgJXJomwTWzbVKFfekgc7sLAbBxwItp61QAz6bKWYD3geK7uTmyR8rvuXTJLi5UCKHt0nVjQsS9T62YeQ62J2vriWg10RnO2n4UnXzokSO7JDgliXiW5FjgaRn+sc288wC3bSesc0QqNCKB1oWcqf3dKqy1sySyKGtUn3nqs2B61pXmqNBAAEEEEAAAQQQQAABBLqeAGFWgq5Ja3OzRH1FUnHxhIR2rLGd99zTPmIQfHxmWLwSKzbc3aWzsaYMFm/+GAmszLXKlNKju0Sr25y5WH5pqij7fn5Qgq4TL5MYAZ3ppEPKNdBqKAlI7ZO7du3KTuyW8I7VEliTJ9556eLOGWJVd660ntZO6rTdOqFmPNhJve/ft9Z6C8ZJ8ZalUnbukFOBWF2ZmAvEqyCAAAIIIIAAAggggAAC3ViAMCtBF1fbsBpLw1Lz4IYNgg9sKBB33ggbaJ66OxvGQgsLsmI7FE4eaAGHd/ZI8RZmSWBjgYT3bmprKWwIB5wQK1orLQ0NoiEhbYUJWqSJfJnWFhsSr/PiWqK1TqgV9kvNw5tSceGYRA5skeIti8S/bKpoYKPtdO7swaIhpjNLTtsPU3GDhNjgd3XIHiy+ZVMl/M3nUnXzgrVvttTXJfIq8VoIIIAAAggggAACCCCAQLcUIMxK1GVtbbXh5PVBj1RcOiHhHWvEqzOE9AZeZ0Kl3Oys9y2siLcU2oD3if3FkzfCBoYHN86T8O71UnZij1X01LnuS0Mk1DYXS8NBC7HY0S1RKzTxr6PXplV3PmwRq9SK1lqgW+d5aLvylZ89JJEDX0jxliXiXz7N2flwymBn0H9GLylK010sdZ2kyjyt2Hsirad9LnjnjpPizYVSfuag1BXdEw2ytF2ZLwQQQAABBBBAAAEEEEAAgecLEGY93+fl/1Vv6hsbrLpCd96LHN0l/rWzbSaOa2I/azdMnUDrfSka30OKdAh4Vj+7cdfB4N78sRJYNUNCW1dI6dGdUnn5W6tk02HijeWlTpAVD7FeXp5ndhGB1pZmaYnW2XtAK+w0oNGKo7JT+yX89UYJbigQ78JM8c4ZJZ6cobaTn1ZqFaX1iO362c3bD8fphge9rDpNQ93A6lkSOfClVN+6JPUhnwWCVCF2kcXMYSCAAAIIIIAAAggggECXFiDMSuTlaW21OUJRv0sqLp+S0I614luSLa6pHzq7u2l1VrdurdLKk1gblVajTeovntxhNgzfvyRbAuvzJbxnk5SdPWTD8vUGXmcu6ewlrezhRj6Ri7ETXqutUqvZgt3m2mppLI9IXdF9qbx8SkoOb5PiL5eKf3We+AozLeh1T/1Qiib0dsKscU7lUpFtmNCdhsXHKrLSe1qQ5Z48SHwLM60yUWfsxTc6YP13wprlVyKAAAIIIIAAAggggEBSChBmJfiytTY1SWNZxIaYl58+IMEvFjvVWVn9xFrttGKp2+1uGG+f6uG0VOpw96kf2cww/5LJoi2FJXs3WYVO9a2Lom1oDaUha8vUara2lsIEXwterpME4qFWkzMkXqvuon63aMVi+cUTUnpkh4S2rfx+SPy0oVbBZ/O0tJrPKrW60zyt953KzNimB56ZIyS4fq61F9Y+uuVUJdZHO+li8WsRQAABBBBAAAEEEEAAgeQTIMxK9DWLVWc5w+BvWjWKVmHosGdXVl/RXd2c6qxuVHmi7VO6W51WY03sb7sUemaPFN/SbAl9uVR0l8LqW5dFW8+0WkdadR5WbCZWov15vS4nYDO1WlpsJpTuUKk7H1ZcPC4lez+TwLo54skfL+5pQ8Q1ZZBYS2480OomFVo2Ny6jl7gnDhDP9E/EuyBTwjvXWnWifk7YnCxmw3W5dcsBIYAAAggggAACCCCAQNcVIMxK+LVptZY5DW3qiz1SefWMhLavtnZDz/SPneHX3aLyJNZOqK1TE3rbjbp72lDx5I+zuVjFOhfryHapuHRStPpEWwqba6us/Szh5LxgUgjozpQtDVFpLCuROs8jqbp5UcpOH7DdLIs3L7TwU+dpte16mNbDNk5I3llz7d4jWf0tyPItmSLh3RvsfaGbRejnBDt2JsXy5SARQAABBBBAAAEEEECgCwkQZnXQxdBqi6bqCol6H0nFhWMS2r5KfAvSxZ0zJLa7YTK3G8Zu0jN6WrWZe/JA0QHvWmET3JAvkcNbpfLaaYn6Htnuds4ubQ1ONZa0dpA4L9vlBeLth82x9sPKMgs5ax7elIrzR61aKbBqunhmjRT3lA9tvpRV+2mllu0GmmS7Hur8uPSeUhRru/UUpElwyxKpvH5O6kN+aa6JhbtUZXX5pcsBIoAAAggggAACCCCAQNcSIMzqiOuhOxvqzm71dRbm6K5u5WcOSvCLQvEtniienGHOjCAbCJ8sO7jF5mKNd3Zk0xt017Qh4pkzWvzLpkjws/kS/nqDlH77jehcLA3xdPh3c12N6Bwx9aC1sCMWW5K9pr03WmxN6OD/xqoKaSgJWuth5ZVTtsulzdNaO1t8hVnOkPgpsRZdXXttmyh05TZdfa84QZa2FntmfCK+RROleMsSKTu5z6rSmqoqpKWhPva+IOBNslXM4SKAAAIIIIAAAggggEAnCxBmddgFcNoNNdBqqiwTrT6JHNspwc8Lxbcgwwm0Mno7w667+myg+A6F6b2c3dgmDRRtKfTOSxf/2tkS2rVOyk59I1Xx4e6RYqtKs5t13aWQLwSeIWCztJoanVlaWqVV7JOah7fEQi0dEr91hbWsevPHiidHh8T3caq1dB3qRgpddGdQm5GV3sOZkTdtiHgLJ0rxF4ul7OReqXlwQ5oqSqW1sZH2wmesCf4KAQQQQAABBBBAAAEEEHgZAcKsl1F6nee0a6nSHfu0+qT69iWJHN0pxRpoLZoobrtB7xerNulqFVpOdYlVmMSHu2cPFveMT8U7P0P8K6dL8ZZlEjm0VSounrCwrj7sl6bKcmmJ1lJ18jprJtV+Jl6l1dxss9Saa2tsnlbU90Sq71yR8nOHJXJgixRvWSyBlbniLRgvnhmfOjO1dDMFC7U+sCqozt8h1Hn/WpClbZFZfcQz81PxLZ4kxVuWStmJr6X67lVpCPstvLMdPLXllhbDVFv1nC8CCCCAAAIIIIAAAggkQIAwKwGIL/MS2m6nQ9Crbl6Q0iM7nEArXqGluwDqIPWuMhfIKrF6SJHuvKjVY1n9LEDwzh0jvmVTJfj5Ignv2yxlZw5K9a1LEvU+lsayiGjbmN2kc4P+MkuC5zxDQGfN6VD0hkix1LkfStWNC9aiW7LvM9Eh8drS6p0z2iob3ZMGONVa+t7p7E0V2u3o6Z7U32bj+RZPjgVZeyycawj7nLZbbbnlCwEEEEAAAQQQQAABBBBA4LUFCLNem+7VftB2covW2g6HGgCVxiu0CjPFPe0jZ4ZWW6DVGVVa8d/5vhRpC5cGbBMHiGvKYHHP/FR0eHVg7RwJ7dSWwv1SffuK1HkeS0NpyAZZOy2FOheL+T+vtjJ49g8EtFqrSQfE19m60vUV9RfZzoflp/dLeNc6Ceg8rUUTxTt7pLUfaqhl61XDV2s9jK/ljhwYH/8d7Xcs7Cvu7EHiyRsh3gUZEvpquZSfPiA1969LQ0kgtnOhtt3yHvnBNecPCCCAAAIIIIAAAggggMArChBmvSLYmz5dq060QssCreNfS/EXi5wZWrnDYvOAtEIr1uJns7Q68oY8/trxlkJnwLZLd1/TlsKZ2lKYLv7VM6X4y2USObxdKq+clton92ywvZ6LBg8EWG+6Kvj5nxKwYCta51RqFd1rm6cV3rFaguvnOEPi80aIa/JAJ9DSFr+2Ki0NnOJrPNHfY0PedSi9tRX2tVBaAzbfihwp/mqZlJ3eL7WPbtmxt0TrnGHvP3Wi/D0CCCCAAAIIIIAAAggggMBLCxBmvTRVYp7Y2twkLQ1Ru8GtfXzHBqfrLmc6TN3VWW1T2laY1kNcOrQ6o6cdh2fmCPEvm2ptUqXHd9u8rzrvYxtmbzsUNjaIngs7FCZmXfAqPyHQ2mKD0rXyT8NT3SGzPui2MFgHqoe2rhT/8mk2y815//QVl1YV6npu2y000UHW35zdCtN0Z8+eNujdPfVD0TZc/7JpUrL3M6m8/p3t6KnD3nWGnO3mSUXWT1xk/hoBBBBAAAEEEEAAAQQQeDUBwqxX80rYs7VSo7GsxFqQtBVJh0TrsGjP7FE2b8fmAelNefyGfFy8rSkRN+ax17IQq6dz8z/RmfPjmfV3a+EKbiiQkj0bpezsQadNqjQkLdEaWqQStgJ4odcR0Jls2oKobXs1D27akPjw3k0S2FAg/iWTxVswVjzTPxZ7/2T2eSrUet330PfvF9sQQauxdPh8Vj9xaYg1Z5T9bp3pVbJvs1RePSP1Ib80VZXbYHtn2PvrnC0/gwACCCCAAAIIIIAAAggg8CwBwqxnqbyFv3Pap2qtXa/O81AqL5+SyKGvbMi1V3c6nKm7tg0SV6YOh+/x1E35mwRasRk/VomlVSXaUjjI2aWwMMt+f+TAF1Jx4ahU37sq0YDLQjerxmpqfAsy/AoEniOgM7Wam6Vt50N/kYWtFZdOSsnhbaJVjr7l08Qza6RotZS2zLom9HLeQ7bBwqsEWvEQK9Z+G69cnNBbijK1rXCoteFa8Lv3M6k4f1RqH9+WhrAzH6ttjhwVWc+5oPwTAggggAACCCCAAAIIIPDqAoRZr26WmJ+wm/Ima0FqqiizHQGrbl6UshN7JLxzjQTWzRHfoizxzokNuZ48yNqZimweUPyGPD7rqt2fbc7WU39uq+rSdsKedoOvM7E8ucPFmz/WKsKC6/MlvHOt/f6qG9/ZTnINkaA011RaJYyGb1SYJObS8ypvIKAbDMTfO/V10lRVYZsQRL1PbFOCstMHpGTPJglumm9tsrq+PRoMa7CllVQ2JL7H94Pi9b3xrEfsfWTvl/iOnlMGi2f6cKvE0llygVUzJPTlcokccWbJ1RXdF20rjAe/1loYO943OGN+FAEEEEAAAQQQQAABBBBA4CkBwqynQN7qH8jYcugAAAvDSURBVPWmvKVFWpsanZ3bwkGr7Ki8ekpKj+20UMuGXC+eaDuk6c6CRRm9RQMtbT+0h/63/Tl2g667ucUeP3hO/PlZfcU9RVujRot/Sbbd9Id3b7AQS9ujtLKkvthrLVIt9dFYgOUECG/Vhl+GwPME4qFWS7O18tnGCpFiqS26L5XXz0nZt/ulZN9ntsGCf0WOePLHiWvaUHFN6Ou0CGqoa4/Y+yf+Pop/t/beeDvhAKvC8th7ZrIE1s+V4m0rpeTQVqvGqr6rFYxup62wJbajJyHW864e/4YAAggggAACCCCAAAIIvJEAYdYb8SXgh+OBVmOjVXQ0lkUkGm+dunhMIke2SWj7Kgmsm+3M1JozxoItnQvkyRlmO6i5pwwW96SBTuVJZl+ntUq/Z/UX9+RB4p76kT3Xk/uxePPHiW/RZNHWqPCONVJ6dJftEFf76LbUBz1OS2FNVWzWT3MCTpCXQKADBeLvHw2E62qsMioa9Iiu58prZ2yDhZK9myS4eaH4lk0Vb/548cwaJZ4Zn9psLX0PeXKGijv2sD/nDhfP9E/s4Z09WnzzM6x1MbBpvlUvlh7ZIRXnj1klWJ37gc3vaqquEG0r5AsBBBBAAAEEEEAAAQQQQKDjBQizOt741X6D3pw3NtiugVrtUXPvmpR/d0RKDn4poW0rLYTS9ib/0mzxLcoU77zx1vZkrVR6Qz7lQ7FwywKs4U7wpa2EhZniXz5VghsLJLRtlUQOb5eKC8el5v4NG1atO65p+5Y9Xu2IeTYCXUrAKh3raqShJCh1RfecUOvE1xLeuU6CmxZIYO0s8a/MsaHt2srrK5wgvoWxx6Is+3vdydO/MlcC6+ZK8ReLJfz1Bokc3SXlF49Lzb3rFvxqe7AOo3d29WztUgYcDAIIIIAAAggggAACCCDQnQUIs7rg1bUd2xrqbV5VQ2lI6rRS68kdqb51USouHpeyk3slcnCLhHaucdqo1syycMs7L93aB72zRzkVWAsyRVusdH6QPjdyZKuUf3dYdDZX7eM7P6zE0uHuGmbxhUCSC7S17sYqtepDPqlz3ZfqO1el8spp0d1DS49stzbE8K61Etq6QkJfLbfv4V3rbEfCyOFt9j7Toe5V18/ZkPla1317z+h7sqlaZ8lFCbKSfK1w+AgggAACCCCAAAIIIJCcAoRZSXTd9OZZB0zrDoM1D25Ye2DpiT1S8s1mKf5quQQ25It/5XTxLc8V/6o8CWxaIOEda0Xboiovn5Sax7esJaolWic60J0vBFJCQKsdm2OztWoqRcOt2sd3LdStvHLKKh/Lzx6S8rOHbVfRqpuXLOzVysjGspK2ge4pYcVJIoAAAggggAACCCCAAAJJIECYlQQXKX6I2s6kgVZzTZU0lkekIeyXqK/IWqmqH9yQ6jtXpOrmBam6cUGqb10SHUyts4PqPI/suY1tO601UYUVR+V79xew9tkW0d0FtYVXh8VrKKwVVg3hgG14oPPi7BHy29/broS6k6cFv43s5Nn9VwlniAACCCCAAAIIIIAAAkkkQJiVRBeLQ0UAAQQQQAABBBBAAAEEEEAAAQRSXYAwK9VXAOePAAIIIIAAAggggAACCCCAAAIIJJEAYVYSXSwOFQEEEEAAAQQQQAABBBBAAAEEEEh1AcKsVF8BnD8CCCCAAAIIIIAAAggggAACCCCQRAKEWUl0sThUBBBAAAEEEEAAAQQQQAABBBBAINUFCLNSfQVw/ggggAACCCCAAAIIIIAAAggggEASCRBmJdHF4lARQAABBBBAAAEEEEAAAQQQQACBVBcgzEr1FcD5I4AAAggggAACCCCAAAIIIIAAAkkkQJiVRBeLQ0UAAQQQQAABBBBAAAEEEEAAAQRSXYAwK9VXAOePAAIIIIAAAggggAACCCCAAAIIJJEAYVYSXSwOFQEEEEAAAQQQQAABBBBAAAEEEEh1AcKsVF8BnD8CCCCAAAIIIIAAAggggAACCCCQRAKEWUl0sThUBBBAAAEEEEAAAQQQQAABBBBAINUFCLNSfQVw/ggggAACCCCAAAIIIIAAAggggEASCRBmJdHF4lARQAABBBBAAAEEEEAAAQQQQACBVBcgzEr1FcD5I4AAAggggAACCCCAAAIIIIAAAkkkQJiVRBeLQ0UAAQQQQAABBBBAAAEEEEAAAQRSXYAwK9VXAOePAAIIIIAAAggggAACCCCAAAIIJJEAYVYSXSwOFQEEEEAAAQQQQAABBBBAAAEEEEh1AcKsVF8BnD8CCCCAAAIIIIAAAggggAACCCCQRAKEWUl0sThUBBBAAAEEEEAAAQQQQAABBBBAINUFCLNSfQVw/ggggAACCCCAAAIIIIAAAggggEASCRBmJdHF4lARQAABBBBAAAEEEEAAAQQQQACBVBcgzEr1FcD5I4AAAggggAACCCCAAAIIIIAAAkkkQJiVRBeLQ0UAAQQQQAABBBBAAAEEEEAAAQRSXYAwK9VXAOePAAIIIIAAAggggAACCCCAAAIIJJEAYVYSXSwOFQEEEEAAAQQQQAABBBBAAAEEEEh1AcKsVF8BnD8CCCCAAAIIIIAAAggggAACCCCQRAKEWUl0sThUBBBAAAEEEEAAAQQQQAABBBBAINUFCLNSfQVw/ggggAACCCCAAAIIIIAAAggggEASCRBmJdHF4lARQAABBBBAAAEEEEAAAQQQQACBVBcgzEr1FcD5I4AAAggggAACCCCAAAIIIIAAAkkkQJiVRBeLQ0UAAQQQQAABBBBAAAEEEEAAAQRSXYAwK9VXAOePAAIIIIAAAggggAACCCCAAAIIJJEAYVYSXSwOFQEEEEAAAQQQQAABBBBAAAEEEEh1AcKsVF8BnD8CCCCAAAIIIIAAAggggAACCCCQRAKEWUl0sThUBBBAAAEEEEAAAQQQQAABBBBAINUFCLNSfQVw/ggggAACCCCAAAIIIIAAAggggEASCRBmJdHF4lARQAABBBBAAAEEEEAAAQQQQACBVBcgzEr1FcD5I4AAAggggAACCCCAAAIIIIAAAkkkQJiVRBeLQ0UAAQQQQAABBBBAAAEEEEAAAQRSXYAwK9VXAOePAAIIIIAAAggggAACCCCAAAIIJJEAYVYSXSwOFQEEEEAAAQQQQAABBBBAAAEEEEh1AcKsVF8BnD8CCCCAAAIIIIAAAggggAACCCCQRAKEWUl0sThUBBBAAAEEEEAAAQQQQAABBBBAINUFCLNSfQVw/ggggAACCCCAAAIIIIAAAggggEASCRBmJdHF4lARQAABBBBAAAEEEEAAAQQQQACBVBcgzEr1FcD5I4AAAggggAACCCCAAAIIIIAAAkkkQJiVRBeLQ0UAAQQQQAABBBBAAAEEEEAAAQRSXYAwK9VXAOePAAIIIIAAAggggAACCCCAAAIIJJEAYVYSXSwOFQEEEEAAAQQQQAABBBBAAAEEEEh1AcKsVF8BnD8CCCCAAAIIIIAAAggggAACCCCQRAKEWUl0sThUBBBAAAEEEEAAAQQQQAABBBBAINUFCLNSfQVw/ggggAACCCCAAAIIIIAAAggggEASCRBmJdHF4lARQAABBBBAAAEEEEAAAQQQQACBVBcgzEr1FcD5I4AAAggggAACCCCAAAIIIIAAAkkkQJiVRBeLQ0UAAQQQQAABBBBAAAEEEEAAAQRSXYAwK9VXAOePAAIIIIAAAggggAACCCCAAAIIJJEAYVYSXSwOFQEEEEAAAQQQQAABBBBAAAEEEEh1AcKsVF8BnD8CCCCAAAIIIIAAAggggAACCCCQRAKEWUl0sThUBBBAAAEEEEAAAQQQQAABBBBAINUFCLNSfQVw/ggggAACCCCAAAIIIIAAAggggEASCRBmJdHF4lARQAABBBBAAAEEEEAAAQQQQACBVBcgzEr1FcD5I4AAAggggAACCCCAAAIIIIAAAkkkQJiVRBeLQ0UAAQQQQAABBBBAAAEEEEAAAQRSXYAwK9VXAOePAAIIIIAAAggggAACCCCAAAIIJJHA/wffAuN5AlllTwAAAABJRU5ErkJggg==;" vertex="1" parent="1">
          <mxGeometry x="525" y="347.1" width="140" height="47.37" as="geometry" />
        </mxCell>
      </root>
    </mxGraphModel>
  </diagram>
</mxfile>
